/* XPM */
static char *_8f650b97403440cd400d0ac5cef5c97Hz2tdTBvpAlGkTSx[] = {
/* columns rows colors chars-per-pixel */
"33 31 220 2 ",
"   c #0D0E00",
".  c #1D0A00",
"X  c #190806",
"o  c #001300",
"O  c #0B1A00",
"+  c #1B1501",
"@  c #1C1900",
"#  c #141102",
"$  c #1C1615",
"%  c #22090D",
"&  c #221301",
"*  c #23140C",
"=  c #241C04",
"-  c #321F01",
";  c #240816",
":  c #271414",
">  c #0B2708",
",  c #1E2500",
"<  c #242100",
"1  c #272E05",
"2  c #272908",
"3  c #322E00",
"4  c #2B3609",
"5  c #352817",
"6  c #3D3413",
"7  c #34300F",
"8  c #141226",
"9  c #280D26",
"0  c #361928",
"q  c #3A1D31",
"w  c #3E1B3B",
"e  c #2E1132",
"r  c #1A3A3D",
"t  c #17383D",
"y  c #1A342B",
"u  c #3A222F",
"i  c #3B2635",
"p  c #44381A",
"a  c #423509",
"s  c #443625",
"d  c #482436",
"f  c #523C34",
"g  c #4D352E",
"h  c #374400",
"j  c #1B493C",
"k  c #474902",
"l  c #5C5F00",
"z  c #494112",
"x  c #474114",
"c  c #554F1B",
"v  c #675D16",
"b  c #556119",
"n  c #67681D",
"m  c #464224",
"M  c #5A5826",
"N  c #59562B",
"B  c #514131",
"V  c #5E573C",
"C  c #44562E",
"Z  c #604F33",
"A  c #6A6322",
"S  c #7C7924",
"D  c #7C752E",
"F  c #7C7A2B",
"G  c #777427",
"H  c #696238",
"J  c #716934",
"K  c #7B7434",
"L  c #7E7B3A",
"P  c #1C3941",
"I  c #333A4D",
"U  c #471F41",
"Y  c #583947",
"T  c #5D355B",
"R  c #522A4A",
"E  c #643758",
"W  c #3F414D",
"Q  c #325352",
"!  c #3C6A4D",
"~  c #195C62",
"^  c #335766",
"/  c #1B6673",
"(  c #1C6875",
")  c #1A6C78",
"_  c #176672",
"`  c #2B686A",
"'  c #306261",
"]  c #357273",
"[  c #594457",
"{  c #644C58",
"}  c #685546",
"|  c #756946",
" . c #7C7843",
".. c #736D57",
"X. c #794D67",
"o. c #794C69",
"O. c #795769",
"+. c #724C73",
"@. c #764772",
"#. c #785271",
"$. c #6C4C6E",
"%. c #807931",
"&. c #857C44",
"*. c #857B48",
"=. c #827F54",
"-. c #845478",
";. c #907F6F",
":. c #8A627C",
">. c #45837E",
",. c #888609",
"<. c #89861D",
"1. c #8C8A1D",
"2. c #868516",
"3. c #95921E",
"4. c #949115",
"5. c #918F16",
"6. c #A19E1D",
"7. c #898623",
"8. c #8C8A24",
"9. c #8B8A2B",
"0. c #868527",
"q. c #918E23",
"w. c #908D2E",
"e. c #949124",
"r. c #9D9B26",
"t. c #99962A",
"y. c #9C992B",
"u. c #93912A",
"i. c #8D8B3B",
"p. c #908E34",
"a. c #949135",
"s. c #92903D",
"d. c #9D9A3D",
"f. c #A19F28",
"g. c #A29F37",
"h. c #A8A726",
"j. c #B0AD22",
"k. c #B7B428",
"l. c #BBB939",
"z. c #ABAA34",
"x. c #C2BF24",
"c. c #C4C11D",
"v. c #C6C324",
"b. c #C9C626",
"n. c #C5C32C",
"m. c #C9C52B",
"M. c #CBC928",
"N. c #CDCA33",
"B. c #C9C63A",
"V. c #CBC93B",
"C. c #C7C434",
"Z. c #8A8847",
"A. c #979256",
"S. c #928E4C",
"D. c #A8A64C",
"F. c #BCBB46",
"G. c #A9AC58",
"H. c #9C986B",
"J. c #A49B7E",
"K. c #B1AE6D",
"L. c #B8AF6C",
"P. c #B0AE67",
"I. c #BFC146",
"U. c #CCCA4C",
"Y. c #C5C446",
"T. c #D1CE41",
"R. c #C8C559",
"E. c #D2CE50",
"W. c #D2CD5B",
"Q. c #D8D55D",
"!. c #D0D06E",
"~. c #177D8C",
"^. c #487C8A",
"/. c #875683",
"(. c #895785",
"). c #91598B",
"_. c #945B93",
"`. c #995F95",
"'. c #824781",
"]. c #8B6087",
"[. c #95668E",
"{. c #966291",
"}. c #9B6799",
"|. c #9C7393",
" X c #A26A9E",
".X c #AC7D9F",
"XX c #A85FA8",
"oX c #A663A6",
"OX c #A863A7",
"+X c #A56BA4",
"@X c #A96DA5",
"#X c #A765A9",
"$X c #AA64AA",
"%X c #AB6CAA",
"&X c #B06FAF",
"*X c #AB73A7",
"=X c #AD72AC",
"-X c #AD7BAC",
";X c #A571A2",
":X c #B072AC",
">X c #AF67B0",
",X c #AF7DB0",
"<X c #348896",
"1X c #2C95A8",
"2X c #3393A5",
"3X c #2D9EB1",
"4X c #309DB1",
"5X c #34A2B5",
"6X c #669492",
"7X c #4798A8",
"8X c #669EAD",
"9X c #48A4B3",
"0X c #6FAEBD",
"qX c #65B4C3",
"wX c #B9B381",
"eX c #B080AA",
"rX c #ACABAC",
"tX c #B1C5D0",
"yX c #A7D5E2",
"uX c #D4EAF6",
/* pixels */
"$XOX$X$X$X$XOX$X$X$X$X$X$X$XOXOX:X%X%X=X@X%X=X@X=X=X$X$X$X$X$XOX#X",
"OXOX$XOX$X$XOXOX$XXX$XXXOX$X X[.o.o.X.X.X.X.X.o.X.o.-.+X XOX$XOX$X",
"$X$X$X$X$X>X%X$X>X$X$X>XOXoX-X-.& = & & & & & & & . d *X X$X>X$X$X",
"OXOX$X$XOX$XOXOX$XXX$X$XOX*Xd f L.D.D.G.P.K.K.K.K.wXH.9 ).$X$X$X$X",
"$X$X$X$X$X>XXXOX$XXX$XOX).-.p v W.x.B.U.D.S.A.A.A.H...% -.$X$X$X$X",
"$X$X>X$X$X>X$X$X>X$X>X&X@.% *.g.V.x.C.Q.b o > O     # % (.:X$XOX$X",
"XXOX$XOXOX$XOXOX#XOXOX%X$.* K t.B.B.F.h ! <X] 6XrXrXrXrX[ T =XOX#X",
"$XXX$XOX$X$XXX$XOXoXXX+X$.& K t.U.z.Z.O ` 9X7X0XyXtXtXuXW e (.}.#X",
"$X$X>X$X$X>X$X$X$X&X&X-X$.@ L y.Q.k > ' <X4X3X1X1X<X0XuXQ 8 8 +.&X",
"$XOX$X$X$X>XXXOX:X@.R f i = S t.W.k > ' ( ~.3X3X5X3X7X0X^.^ 8 +.%X",
"$XOX$X$X$X$XXX X{.Y - 6 5 < G t.E.l 4 ' ~ _ 1X1X3X1X2X<X7X^.8 #.=X",
"$X$X>X$X$X$X$X`.9 Z S.!.=.@ S r.Y.U.G.o j ` ` / ( ( _ / / ^ 8 @.&X",
"OXOX$XOX$X$X$X[.; N w.R. .@ S t.B.n.l.0.C y j r P P P P P I +._.#X",
"$XOX$X$X$X$X$X).: M e.R.L @ S r.V.v.n.Q.n , 1 1 1 1 1 2 $ i =X#X$X",
"$XOX$XOX$X$X&X[.: M e.R.&.@ S r.V.b.M.n.l.Y.Y.I.I.I.F.!.m i ;X#X$X",
"OXoXOX+XOX+XOX[.: M q.R.L @ S 3.j.k.b.b.x.v.v.v.v.v.v.R.h u %XXX$X",
"OXoX+X}.}. X+X[.: M 9.R. .@ F 8.,.k.M.M.v.b.M.v.b.v.c.E.z u ;X$X$X",
"&X'.e w u 9 /.|.* N p.d.H , F q.2.l.N.M.v.M.M.v.M.b.c.E.z d *X$X$X",
"$X(.T 0 5 f { { $ N Z.n m @ G 8.2.r.j.m.x.v.v.x.b.c.c.U.a u @XXXOX",
"#X$X,Xw p J.s & 2 V A.< @ < F 8.8.2.5.T.n.m.m.v.b.b.v.W.x d %XOX$X",
"$XOXoX{.#.: H | @ 2 3 K K F 0.7.8.1.1.4.j.N.m.x.b.C.l.g.p u %X$X$X",
"$XOX$X%X(.% J Z.p x 6 i.9.9.8.7.8.7.8.2.6.k.n.n.m.k.u.A B T @XOX$X",
"$X$X$X%X(.; | S.s.p.w.8.0.8.8.7.8.8.8.q.,.,.n.m.V.e.n # :.=X$X$X$X",
"$XOX$X#X}.:.f 6 i.9.9.0.7.8.8.7.8.7.1.2.h.F.V.j.4.a.H % /.#XOXXX$X",
"OXOX$XXXOX=XE d | J G 0.0.7.1.<.8.<.5.3.h.l.l.f.<.K } d ).$XOX$X$X",
"$X$X>X$X>XOX*X[.% & = S.Z.s.s.p.9.<.3.W.f.,.<.w.A.& d eX+X$X$X$X$X",
"#X$X$X$X$X$X+X}.-.-.O.g p p 6 c s.8.8.g.w.8.a.A p O./.OXOXXX$X$XOX",
"#XOX$XOX$X$XOX$X%X+X;XU q u u s *.D %.%.K %.*.N 0 {.%XOXOX$X>X$X$X",
"$X$X$X$X$X$X$X$X$XOXoX%X+X;X-X-.% * * * * * X T -XOXXX>X$X$X$X$X$X",
"OXOX$XXXXX$X$X$X$XOX$X$XOXOX$X`.@.$.$.+.+.+.@.(.$XXXXX$X$XXX$XOX$X",
"$XOX>XXX$X$X$X$X$X$X$X$XOX$X$X$X:X$X&X&X%X%X%X%X$X$X$X>X$XXX$X$X$X"
};
