/* XPM */
static char *_9d7a5979d1c4c77e48d795222fcf84c4jWhJNRpSkDPYyod[] = {
/* columns rows colors chars-per-pixel */
"50 50 221 2 ",
"   c #5C0E0E",
".  c #791610",
"X  c #7D2416",
"o  c #880C07",
"O  c #8A111A",
"+  c #A81D1C",
"@  c #9A240A",
"#  c #B82416",
"$  c #962525",
"%  c #AF2324",
"&  c #BE252A",
"*  c #C11410",
"=  c #F71C1A",
"-  c #EC1815",
";  c #C9251D",
":  c #FC2211",
">  c #F3241B",
",  c #FD241D",
"<  c #F72B1D",
"1  c #F4311B",
"2  c #FF311E",
"3  c #ED2E1D",
"4  c #E71528",
"5  c #F51E25",
"6  c #FD1C22",
"7  c #FD1C2B",
"8  c #F61925",
"9  c #FF1E33",
"0  c #CA2628",
"q  c #D72225",
"w  c #D82833",
"e  c #EA2828",
"r  c #FE2523",
"t  c #F42A23",
"y  c #FD2B24",
"u  c #FE262B",
"i  c #F52B2D",
"p  c #FD2D2C",
"a  c #F42426",
"s  c #EA322B",
"d  c #FD3125",
"f  c #F5332C",
"g  c #FE332B",
"h  c #F73427",
"j  c #EB2631",
"k  c #EB2737",
"l  c #FE2633",
"z  c #F42C32",
"x  c #FD2D33",
"c  c #FD263C",
"v  c #FE2C3A",
"b  c #F52A37",
"n  c #EE373B",
"m  c #F33233",
"M  c #FD3333",
"N  c #FF3832",
"B  c #F4323B",
"V  c #FF343B",
"C  c #F83C3A",
"Z  c #F04028",
"A  c #F44234",
"S  c #FA2A41",
"D  c #ED3044",
"F  c #F93744",
"G  c #FB4447",
"H  c #FD484B",
"J  c #FF434B",
"K  c #F8564F",
"L  c #F94A56",
"P  c #FF5756",
"I  c #FC5754",
"U  c #FC6758",
"Y  c #F8644A",
"T  c #FC5C63",
"R  c #FE5975",
"E  c #E56C61",
"W  c #FF6466",
"Q  c #FC6B65",
"!  c #FC666A",
"~  c #FF6C6B",
"^  c #FF726E",
"/  c #F77668",
"(  c #FA6D75",
")  c #FF727B",
"_  c #F97876",
"`  c #58AA17",
"'  c #79AA1A",
"]  c #589430",
"[  c #5EB123",
"{  c #67AC2D",
"}  c #7AB43B",
"|  c #6C9D5B",
" . c #5DAF43",
".. c #76AA45",
"X. c #78AD52",
"o. c #7CB456",
"O. c #6AA354",
"+. c #78AF6E",
"@. c #74C14D",
"#. c #84B93D",
"$. c #86B44C",
"%. c #8CB340",
"&. c #8AB355",
"*. c #90B059",
"=. c #AEBF4F",
"-. c #81BB6F",
";. c #82BE74",
":. c #86B879",
">. c #A0B362",
",. c #F5827D",
"<. c #9CCC5A",
"1. c #A6CA4A",
"2. c #A0CF5D",
"3. c #A9D25B",
"4. c #9BC962",
"5. c #9FD065",
"6. c #8CC67C",
"7. c #A6CD68",
"8. c #ABD867",
"9. c #B4CB71",
"0. c #C8DF7D",
"q. c #E17380",
"w. c #FD7B87",
"e. c #868686",
"r. c #8AB88A",
"t. c #95BB91",
"y. c #AFB4AE",
"u. c #FF878D",
"i. c #F99686",
"p. c #EF8593",
"a. c #F98A9A",
"s. c #FB989B",
"d. c #E79D92",
"f. c #FBA39B",
"g. c #EAA39D",
"h. c #FB96A6",
"j. c #FCA3A9",
"k. c #EEBAAD",
"l. c #F2ADB0",
"z. c #FDB4BA",
"x. c #F9BAB6",
"c. c #EEB3B5",
"v. c #BFDD83",
"b. c #AECE9C",
"n. c #A6E094",
"m. c #9DCCA4",
"M. c #ADCCAD",
"N. c #B1CFA9",
"B. c #B1D2A3",
"V. c #BFCAB6",
"C. c #B1D3B0",
"Z. c #A8CEB2",
"A. c #B8EDB7",
"S. c #CBCD8E",
"D. c #C8D984",
"F. c #D1DB9E",
"G. c #E5DD8A",
"H. c #D7E399",
"J. c #C4D8B8",
"K. c #D5DEBF",
"L. c #D6DEA2",
"P. c #EDDBB3",
"I. c #DFF2A3",
"U. c #C8E6B7",
"Y. c #D2FFB3",
"T. c #DCE9BD",
"R. c #F1F0AD",
"E. c #EBEAB0",
"W. c #FFB2C1",
"Q. c #FCBAC8",
"!. c #FFAACB",
"~. c #BBD0D3",
"^. c #BFE0CB",
"/. c #DFDFDF",
"(. c #C2D3C1",
"). c #FCC3CD",
"_. c #F9CAC9",
"`. c #E8DAD7",
"'. c #FDD9DD",
"]. c #C8ECC9",
"[. c #C9E6D0",
"{. c #E3F3C6",
"}. c #F9F9C9",
"|. c #EAE9DA",
" X c #FFE7DD",
".X c #FFFFDF",
"XX c #DAF8E8",
"oX c #D7F1EC",
"OX c #E5E8E6",
"+X c #FFE5E7",
"@X c #F6ECE7",
"#X c #FDEAEA",
"$X c #F8E7E5",
"%X c #EBF4EA",
"&X c #EAF7EA",
"*X c #FDF1E3",
"=X c #F4F7EC",
"-X c #FEF2EA",
";X c #F4FCEC",
":X c #FDFEEB",
">X c #F5F9E2",
",X c #FEE5F5",
"<X c #FCEFFD",
"1X c #FFEFF4",
"2X c #EDFDF3",
"3X c #EDFFFA",
"4X c #E6F9F4",
"5X c #F5F4F4",
"6X c #FFF4F4",
"7X c #F5FDF3",
"8X c #FDFDF5",
"9X c #F5F7FB",
"0X c #FEF6FC",
"qX c #F4FEFD",
"wX c #FFFDFF",
"eX c #FEFEFE",
"rX c #FFFEFF",
"tX c white",
"yX c #FEFFFF",
"uX c #FEFEFD",
"iX c #FEFEFE",
/* pixels */
"iXiXuXwXiXuXwXuXiXiXiXiXiXiXiXiXiXiXiXiXiXiXiXiXiXiXiXiXiXiXiXiXiXiXiXiXiXiXiXiXiXiXuXwXiXiXiXuXiXiX",
"iXiXiXuXiXiXiXuXiXiXiXiXiXiXiXiXiXiXiXiXiXiXiXiXiXiXiXiXiXiXiXiXiXiXiXiXiXiXiXiXiXiX0XiXuXiXiXuXiXiX",
"iXiXiXuX8XuX5X8XiXiXiXiXiXiXiXiXiXiXiXiXiXiXiXiXiXiXiXiXiXiXiXiXiXiXiXiXiXiXiXiXiXiXuXuXuXiXiXiXiXiX",
"iXuXiXuXuX5X|.;XiXiXiXiXiXiXiXiXiXiXiXiXiXiXiXiXiXiXiXiXiXiXiXiXiXiXiXiXiXiXiXiXuX9XuXuXuXiXiXiXiXiX",
"iXuXiXiXuX8X|.8XiXiXiXiXiXiXiXiXiXiXiXiXiXiXiXiXiXiXiXiXiXiXiXiXiXiXiXiXiXiXiXiXuX8XuXuXuXuXiXiXiXiX",
"uXiXiXuXuXuX8X8XiXiXiXiXiXiXiXiXiXiXiXiXiXiXiXiXiXiXiXiXiXiXiXiXiXiXiXiXiXiXiXiX8X5XuXuXiXuXiXiXiXiX",
"uXiXiXuXiXiXiXiXiXiXiXiXiXiXiXiXiXiXiXiXiXiXiXiXiXiXiXiXiXiXiXiXiXiXiXiXiXiXiXiX$X`.0XuXiXiXiXiXiXiX",
"iXuXwXiXiXiXiXiXiXiXiXiXiXiXiXiXiXiXiXiXiXiXiXiXiXiXiXiXiXiXiXiXiXiXiXiXiXiXiXiX0X$XwXwXiXiXiXiXiXiX",
"iXiXiXiXiXiXiXiXiXiXiXiXiXiXiXiXiXiXiXiXiXiXuXuXiXiXiXiXiXiXiXiXiXiXiXiXiXiXiXiXiXiXiXiXiXiXiXiXiXiX",
"iXiXiXiXiXiXiXiXiXiXiXiXiXiXiXiXwX8XiX6XuXiXqXuXiXiXiXiXiXiXiXiXiXiXiXiXiXiXiXiXiXiXiXiXiXiXiXiXiXiX",
"iXiXiXiXiXiXiXiXiXiXiXiXiXiXiXiXuXqX8Xc.).8XqXuXiXiXiXiXiXiXiXiXiXiXiXiXiXiXiXiXiXiXiXiXiXiXiXiXiXiX",
"iXiXiXiXiXiXiXiXiXiXiXiXiXiXiXiXiX7XuX+X1XuX8XwXiXiXiXiXiXiXiXiXiXiXiXiXiXiXiXiXiXiXiXiXiXiXiXiXiXiX",
"iXiXiXiXiXiXiXiXiXiXiXiXiXiXiXiXwXiXuXuXiXuX0XiXiXiXiXiXiXiXiXiXiXiXiXiXiXiXiXiXiXiXiXiXiXiXiXiXiXiX",
"iXiXiXiXiXiXiXiXiXiXiXiXiXiXiXiX9XiXwXwXiXiXiXqXiXiXiXiXiXiXiXiXiXiXiXiXiXiXiXiXiXiXiXiXiXiXiXiXiXiX",
"iXiXiXiXiXiXiXiXiXiXiXiXiXiXiXiXwXiX9XqXqX9XwXwXiXiXiXiXiXiXiXiXiXiXiXiXiXiXiXiXiXiXiXiXiXiXiXiXiXiX",
"iXiXiXiXiXiXiXiXiXiXiXiXiXiXiXiXuX3XuX0XwXuXqXiXiXiXiXiXiXiXiXiXiXiXiXiXiXiXiXiXiXiXiXiXiXiXiXiXiXiX",
"7XwX8XuXV.A.-Xj.w.E _ Y Q.a.~ Q ( Q _ `.! / ~ ~ ~ Q T P.h.W ! ~ Q ( ( E / ^ ( Q U w.j.6XK.M.uXwXiXiX",
"uXqXuXuXt.>.-XQ.b - . : J t = 8 > = l M 6 r 7 = > > , V 7 = , > , = 6 o 4 6 5 # 5 n x.8X*.r.2XuXiXiX",
"wX8X9X7XZ.=.:X#XQ N b h k s x V p d l h x ; X V F x x s z p x F v f M i x N e $ l Q ,X>X1.J.qX0XiXiX",
"wX;XuX8X7X4.S.qXz.l n c   % x r F M i g z y l z i h r m V p y m y 5 x p g e x r m l.iXF.<.5XwXwXiXiX",
"wX8XiXuXiX+.7.>X#X( 7 p & e d > s.f.x B x u g s r g r ; q y y r K P.! 5 g f g r ^ #X.X<.+.7X8XiXiXiX",
"iX;XwX6XiXoXo.F.qXj.A 3 x y M = s.;XJ 5 p F < p g i B . $ b g i z.x.w j x g j D g.iXF.} 4XqX4XiXiXiX",
"iX8XwXuXuX9X:.2.&X8X/ M l V j i H T h 1 M l g < x t V q k M p p l 5 @ 0 v t M ^ uX=X7.t.0X<XqXuXiXiX",
"iX8XwX8XwX7XOX{ E.uXx.R P h x # + u i p O 0 M c x y , f g y r m p f m p p T R k.0XE.[ oX:XwX0X8XiXiX",
"iXuXiXwXwX8X2XV.<.|.9X|.j.P m e 4 g h S   q M c r L U > n c h d i p y b I s.,XiXY.6.B.7XwXwXuXiXiXiX",
"uXuXiXiX0X7XqX7Xm. .7.uXl.a.a.P C h : p p g r M B _.f.i p t p c 1 g T ,.h.Q.6X3.| N.&X8XiXuXiX8XiXiX",
"8X9XiXiXiXiXuX8X8XZ.;.7.:XwX+Xa.K j M p u f y r s K x > w + m p c H p.#XiX=X3.:.M.7XiXuXiXuXiX8XiXiX",
"uXiXiXwXiXiXiX9X9XuX[.{ U.iXiX@Xi.W F 7 C x v x 2 t v V j 0 c G I h.-XqXqX].] ].iXuX9XuXwXuXiXqXiXiX",
"uXiXiXuXiXiXiXiXiX8X9X+.#.-XOX8X1X_.p._ P m m m u z p t f ~ ) _ '.@XuX>X}...r.wXwX5X8XiXiXiXuX9XiXiX",
"uXiXuXiXiXiXwXiXwX9XuX].+.&.8.}.uXqX0XqXW.d.i.J M F L u.i.z.2XiXuX:X}.9.%.o.^.wXuXiXwX8X8XuXuX8XiXiX",
"iXuXuXiXiXiXwXwXqXwXuX6X0Xb.6.' D.I.{.8XiX:X X!.z.x.x.#XqXuXqX{.R.D.' +.C.wXuX3X8XiX0X8XuXuX9XuXiXiX",
"iXiXiXuX8X8XuXuXuXuX:X3X7XuXXXJ.o.{ #.D.D.D.T.3XqX6X7XT.0.0.G.%.` &.~.XX:X0XwXiXwXiXqXiXiX8X8XuXiXiX",
"iXiXiXiXiXiXiXiXiXiXiXiXiXiXiXiXOX&XB.....X.$.2.1.1.3.%...X.O.n.OX=X9XiXiXiXiXiXiXiXiXiXwXiXiXuXiXiX",
"iXiXiXiXiXiXiXiXiXiXiXiXiXiXiXiX:XiX3X4X3X3XJ.*.-.:.:.U.7X7XwX<XuXuXiXiXiXiXiXiXwXiXiXiXiXuXiXiXiXiX",
"iXiXiXiXiXiXiXiXiXiXiXiXiXiXiXiX0X0XiX8X0XwXuX9XuXuX9XuXuX5XiXiXiXiXiXiXiXiXiXiX9XiXiXiXiXiXiXiXiXiX",
"iXiXiXiXiXiXiXiXiXiXiXiXiXiXiXiXwXwX8X8X8XuXuXuX8X6XuXuXuXuXiX8XiXiXiXiXiXiXiXiXuXiXuX8XuXiXiXiXiXiX",
"iXiXiXiXiXiXiXiXiXiXiXiXiXiXiXiX9XuXiXuXiXiXuXuX8XiXiXiXiX0XiXiXiXiXiXiXiXiXiXiXiX5XiX8X8XqXiXiXiXiX",
"iXiXiXiXiXiXiXiXiXiXiXiXiXiXiXiXuX8X8XiXuXiX8X9XwXwX0XuXiXqXuXqXiXiXiXiXiXiXiXiXuXiXqXOXy.uXiXiXiXiX",
"iXiXiXiXiXiXiXiXiXiXiXiXiXiXiXiX8X:X8XuX9X8X8XiX7X8XuXuX9XiXwXiXiXiXiXiXiXiXiXiXwX5XuXqX%XqXwXiXiXiX",
"iXiXiXiXiXiXiXiXiXiXiXiXiXiXiXiXwXiXuXuXuX8XiX0XiXiXwXiXiXuX8XuXiXiXiXiXiXiXiXiXiXiX8XuX8X8XwXiXiXiX",
"iXiXiXiXiXiXiXiXiXiXiXiXiXiXiXiXuXiXiXiXiXuXiXiXiXiXiXiXiXiXiXiXiXiXiXiXiXiXiXiXiXiXiXiXiXiXiXiXiXiX",
"iXiXiXiXiXiXiXiXiXiXiXiXiXiXiXiXiXuXiXiXiXiXuXiXiXiXiXiXiXiXiXiXiXiXiXiXiXiXiXiXiXiXiXiXiXiXiXiXiXiX",
"iXiXiXiXiXiXiXiXiXiXiXiXiXiXiXiXiXuXiXiXuXiXuXuXiXiXiXiXiXiXiXiXiXiXiXiXiXiXiXiXiXiXiXiXiXiXiXiXiXiX",
"iXiXiXiXiXiXiXiXiXiXiXiXiXiXiXiXiXuXiXiX5XiXiXiXiXiXiXiXiXiXiXiXiXiXiXiXiXiXiXiXiXiXiXiXiXiXiXiXiXiX",
"iXiXiXiXiXiXiXiXiXiXiXiXiXiXiXiXiX5XiXiXiXuXiXiXiXiXiXiXiXiXiXiXiXiXiXiXiXiXiXiXiXiXiXiXiXiXiXiXiXiX",
"iXiXiXiXiXiXiXiXiXiXiXiXiXiXiXiXuXiXe./.uXiXiXiXiXiXiXiXiXiXiXiXiXiXiXiXiXiXiXiXiXiXiXiXiXiXiXiXiXiX",
"iXiXiXiXiXiXiXiXiXiXiXiXiXiXiXiXiXwX/.%XiXuX5XiXiXiXiXiXiXiXiXiXiXiXiXiXiXiXiXiXiXiXiXiXiXiXiXiXiXiX",
"iXiXiXiXiXiXiXiXiXiXiXiXiXiXiXiXwXiXwXiX5XiXiXiXiXiXiXiXiXiXiXiXiXiXiXiXiXiXiXiXiXiXiXiXiXiXiXiXiXiX",
"iXiXiXiXiXiXiXiXiXiXiXiXiXiXiXiXiXiXiXiXiXiXiXiXiXiXiXiXiXiXiXiXiXiXiXiXiXiXiXiXiXiXiXiXiXiXiXiXiXiX",
"iXiXiXiXiXiXiXiXiXiXiXiXiXiXiXiXiXiXiXiXiXiXiXiXiXiXiXiXiXiXiXiXiXiXiXiXiXiXiXiXiXiXiXiXiXiXiXiXiXiX"
};
