/* XPM */
static char *_e569024f2f5412adcc8884686434f659qDYRwenEv3iGKg4[] = {
/* columns rows colors chars-per-pixel */
"50 50 90 1 ",
"  c #070607",
". c #090606",
"X c #0B0906",
"o c #0A0708",
"O c #0B090A",
"+ c #120E0E",
"@ c #15100F",
"# c #120F10",
"$ c #141212",
"% c #181515",
"& c #1E1A17",
"* c #1C1718",
"= c #1D1C1C",
"- c #211E1E",
"; c #241F21",
": c #242223",
"> c #292525",
", c #2B2628",
"< c #2C2B2B",
"1 c #302E2F",
"2 c #36322F",
"3 c #312F30",
"4 c #343233",
"5 c #383435",
"6 c #3A3738",
"7 c #3D3B3B",
"8 c #413C3D",
"9 c #423F40",
"0 c #444343",
"q c #494647",
"w c #4D4946",
"e c #4B4748",
"r c #4C4A4A",
"t c #514D4E",
"y c #55504F",
"u c #545252",
"i c #595454",
"p c #5C5758",
"a c #5D5B5C",
"s c #615E5E",
"d c #65615E",
"f c #645F61",
"g c #656263",
"h c #686666",
"j c #6D6B67",
"k c #6A6768",
"l c #6D6B6B",
"z c #716E6E",
"x c #736F70",
"c c #747272",
"v c #797475",
"b c #7B7977",
"n c #7A7778",
"m c #7C7A7A",
"M c #817C7E",
"N c #83817F",
"B c #827F80",
"V c #858283",
"C c #898585",
"Z c #8B8987",
"A c #8A8788",
"S c #8D8B8B",
"D c #908D8E",
"F c #92908E",
"G c #948F90",
"H c #949393",
"J c #999596",
"K c #9A9894",
"L c #9C9799",
"P c #9D9B9B",
"I c #A29C9D",
"U c #A39EA0",
"Y c #A4A3A3",
"T c #A9A6A7",
"R c #ABA6A8",
"E c #ADACAC",
"W c #B0ABAC",
"Q c #B2B1B2",
"! c #B9B5B7",
"~ c #BAB7B8",
"^ c #BCBBBB",
"/ c #C1BCBE",
"( c #C3BEC0",
") c #C4C2C3",
"_ c #CCCACB",
"` c gray83",
"' c #DADADA",
"] c #E1DFE0",
"[ c gray88",
"{ c gray97",
/* pixels */
"        O       O     O           o         O   O ",
"    O O      O    O     O   O           O         ",
"                O             O    o    O         ",
"     O   O    O     O      OO    o     O    O    O",
"O          O        OOO 9g O  O o.oo...o       O  ",
"     O  O    O     O   9[{j     .......o        O ",
"    O O       O     $ =_^Y'r    oooo..oo    O     ",
"          O  O  O     NHHgYH$ O oooo..oo   O  O   ",
" O        O     $    ScPEm^gY $OoooooXooOO OoX O  ",
"     O O      O     a)4^SN^0HH OooooOXooO O oOO O ",
"           O O O   4`c7P0<ml9[g ooo.oooooo  ooOX O",
"   O  O O         $T`r0Sa:<a=^)1ooo.oooooo  ooXX  ",
" O          O   O Z)Q10aq6:7=K(E;   oooOXXXXXXXXOO",
"      O        O q_EE<at83:q&F^!voooX+ooOXXOXXXXO ",
"  O             $YQEY6g0<07i>D~!(2.+XXOOOXXXXXXXoo",
"        O  O O  a^EYJta0:gkf7HWT/A +o+ OXXXOXXXXoo",
"             O OYYYTJfgh<lalrATTYQ<   XX XXXXXXX.X",
"O  OO          3YYYYJPDa7g=SSLYYP~s oo X OXXXXXXXX",
"               iPPPPJ)Tq4hOV(PPYYYN ooo.XXXXXXXXX.",
"               lHHHHD^Eq<h#x_UPHPPS$ooXXXXXXXXXXXX",
"       O       lSSSHAVJ6;xOiILJLKPS$X.XXXXXXXXXX X",
" O   O         lSSSSVlm<;vo9BnGHKPF$X. XXXXXXXXXOX",
"      O        xHSSSVcn%,lo6BxLDKPF$XXX.XXXXXXXXXO",
"         O     xSSSSBSS 9i 8InIBFKV#XXXXXXXXXXXXXX",
"     O   oooo oxDVMAzDP pt 0PmJAZFD%.XXXXXXXXXXXXO",
"  O           .fGMMBzMR tt lSMHSZKN@XXXXXXXXOXOXXX",
" O  O O o  o . iGBMMMsR%rt%xcVSANKz XXXX+XXXXXXOXX",
"         o..   eGBnBMzsetu7udCAANKj X.XXXXXXOXXXOX",
"O  O  O  ...   %VvBngn5>r040mmNNSK1 XXXXXXXXOoOOXO",
"          ...   gVvxcmg-94<aPFbjMb..XXXXXXXXooooXX",
"       O  . ... ;BMvnVZ74huZFZZVZ2..XXXXXXXXoOOOXO",
"    O     ...... iCBvVZc4arPFFFZj+..XXXXXXXXOoOOXX",
"O                 kVVMUUz3nLHSBB:  O.....XooOooOoo",
"   OO  O     O X  -VAAJ/MtCBDSA5O XX ...XXoooOOooo",
"        O  O    O+ fIkGIAfGDJPk$...... X  Oooooooo",
"  O   O     O O O .x/CMJp4MVSPM ....... X  Oooo+oo",
" O         O   X   g~VVA4%cACPn ..oooooooooooOoooo",
"   O OO            -s43f%%aq:r, XXooooooooooOoo+oo",
" O    O O           :rka:#rnu4 OXooooooooooooOoooo",
"                 O;o<D55-$=rT7  X ooooooooooOooooo",
"O$O$OO$OO   $$######O87#$$O#s= @OoOoOOOO+OO#OO#OOO",
"OOOOOOOO      O ..  .  O  O  OXX..ooOOOOOo   ooo..",
"=%====:=:::=<<<<<<<<166346554<>233311,;1;-;;*%%%%%",
"uuuuagaacccccmcbnnnvlllllxczzcvNnnnnvMMvkkkhsaastt",
"aaaalhhhllllmmmmnmmmvzvvvvvzjMbbmMmmvvvMxxxxkfkfsp",
"77770000r0rrrrttuuutysiiiiisdiyytttty99teee9788858",
"==========::::::;>;>5i882<2td5><--;-;;;;;;;-****%%",
"$O$$O$$$$$OOOOOOO###2f08>%>wj7&>####%#%%@@######@@",
"$O$$O$O$$O$O$$$+$&$7uapw2:wpd82>%%$++++@@+@@+++++@",
"$$O$$$$$$O$$+$++$$$0apiw2:wiiw8&%%#++++++@++@@+@@+"
};
