/* XPM */
static char *floor1677766297[] = {
/* columns rows colors chars-per-pixel */
"50 50 245 2 ",
"   c #4D4948",
".  c #564D4B",
"X  c #5B544C",
"o  c #504F53",
"O  c #555252",
"+  c #5A5552",
"@  c #5C5956",
"#  c #56565B",
"$  c #59575B",
"%  c #5D5B5A",
"&  c #65584F",
"*  c #74574D",
"=  c #635757",
"-  c #635D5C",
";  c #6A5B5A",
":  c #765C59",
">  c #6A6557",
",  c #65625D",
"<  c #69645C",
"1  c #75675D",
"2  c #716B5D",
"3  c #5E5D61",
"4  c #665F61",
"5  c #646264",
"6  c #6A6464",
"7  c #6B6965",
"8  c #676668",
"9  c #6A6769",
"0  c #6D6B6B",
"q  c #736564",
"w  c #7B6462",
"e  c #746C65",
"r  c #7A6C65",
"t  c #78666B",
"y  c #736C6C",
"u  c #7B6C6B",
"i  c #777066",
"p  c #7C7365",
"a  c #75716C",
"s  c #7C746C",
"d  c #7E796D",
"f  c #6F6F72",
"g  c #796E71",
"h  c #757273",
"j  c #7B7573",
"k  c #7E7974",
"l  c #7B767A",
"z  c #7C7B7A",
"x  c #9A5F55",
"c  c #86645C",
"v  c #80785F",
"b  c #A7695D",
"n  c #B66B5B",
"m  c #AD755D",
"M  c #BD745E",
"N  c #836B65",
"B  c #8B6965",
"V  c #836E6C",
"C  c #8B6D6A",
"Z  c #966C68",
"A  c #817465",
"S  c #8C7965",
"D  c #81766D",
"F  c #8D736C",
"G  c #847B6D",
"H  c #8A7C6C",
"J  c #987365",
"K  c #95736C",
"L  c #9C736B",
"P  c #9C7C6D",
"I  c #846E70",
"U  c #827573",
"Y  c #8D7572",
"T  c #847C73",
"R  c #8B7D73",
"E  c #877678",
"W  c #837D7A",
"Q  c #8A7D7A",
"!  c #927572",
"~  c #997774",
"^  c #937C74",
"/  c #9A7D73",
"(  c #9B7D7A",
")  c #A86B66",
"_  c #B66D67",
"`  c #A17366",
"'  c #AC7465",
"]  c #AB7965",
"[  c #A5746B",
"{  c #AB746C",
"}  c #A57A6C",
"|  c #AC7C6B",
" . c #B37364",
".. c #BC7264",
"X. c #BD7B65",
"o. c #B67869",
"O. c #B47B6B",
"+. c #BA7C6C",
"@. c #AF6E70",
"#. c #BA6D74",
"$. c #A37D74",
"%. c #AD7B73",
"&. c #A87874",
"*. c #B47573",
"=. c #BA7374",
"-. c #B47B73",
";. c #BB7D72",
":. c #B97A7A",
">. c #CB6F56",
",. c #C66A58",
"<. c #C9755C",
"1. c #D3785C",
"2. c #C16A66",
"3. c #C47567",
"4. c #C47C6C",
"5. c #CA7C6B",
"6. c #C27A7B",
"7. c #8B8166",
"8. c #8C826D",
"9. c #96846E",
"0. c #9A8D6C",
"q. c #9F926F",
"w. c #898376",
"e. c #8D8274",
"r. c #87817D",
"t. c #8C837A",
"y. c #938574",
"u. c #9C8573",
"i. c #958A75",
"p. c #9B8B75",
"a. c #92857A",
"s. c #9B837B",
"d. c #958A7B",
"f. c #9B8C7B",
"g. c #9E9173",
"h. c #9D927C",
"j. c #AB826E",
"k. c #A98A6E",
"l. c #B4826C",
"z. c #BA836C",
"x. c #BC896A",
"c. c #A5956D",
"v. c #B29F6E",
"b. c #A38474",
"n. c #AB8372",
"m. c #A28C75",
"M. c #AC8A74",
"N. c #A2837A",
"B. c #AB847B",
"V. c #A38C7A",
"C. c #AD8B7C",
"Z. c #B48274",
"A. c #BB8373",
"S. c #BA8B77",
"D. c #B58379",
"F. c #BB837B",
"G. c #B48C7D",
"H. c #A29475",
"J. c #AC9576",
"K. c #A69874",
"L. c #AC9D75",
"P. c #A4937C",
"I. c #AA957D",
"U. c #A59979",
"Y. c #AB9B7C",
"T. c #B3947B",
"R. c #BB917A",
"E. c #B6A26B",
"W. c #AFA076",
"Q. c #AFA17C",
"!. c #B3A274",
"~. c #B3A47C",
"^. c #BBA878",
"/. c #C5856A",
"(. c #C29469",
"). c #C28571",
"_. c #C48B74",
"`. c #C88876",
"'. c #CA8B7B",
"]. c #D28C7B",
"[. c #C5917B",
"{. c #C7AF76",
"}. c #898482",
"|. c #958C83",
" X c #978987",
".X c #9C8D82",
"XX c #9D9183",
"oX c #999389",
"OX c #9D948B",
"+X c #8C9091",
"@X c #9A9998",
"#X c #A28B83",
"$X c #A68886",
"%X c #A98D85",
"&X c #B28C8B",
"*X c #A39482",
"=X c #A99681",
"-X c #A49A84",
";X c #AC9B83",
":X c #A3968B",
">X c #AA968C",
",X c #A59A8B",
"<X c #AB9C8B",
"1X c #B29482",
"2X c #B19D85",
"3X c #BB9887",
"4X c #B3968D",
"5X c #B29E89",
"6X c #A59C95",
"7X c #A99E94",
"8X c #AB9C9C",
"9X c #B89D92",
"0X c #AEA184",
"qX c #AEA18C",
"wX c #B3A384",
"eX c #BBAC85",
"rX c #B4A28C",
"tX c #B9A38C",
"yX c #B8AA88",
"uX c #BEB28B",
"iX c #ABA194",
"pX c #ABA59D",
"aX c #B4A593",
"sX c #B8A692",
"dX c #B7A894",
"fX c #BAAA93",
"gX c #B3A699",
"hX c #B4AB9D",
"jX c #BBAC9A",
"kX c #BCB199",
"lX c #9FA3A3",
"zX c #B7ABA3",
"xX c #BCB2A4",
"cX c #BCB5AC",
"vX c #C28A86",
"bX c #C69285",
"nX c #CA9486",
"mX c #C79B90",
"MX c #C7A995",
"NX c #C2B498",
"BX c #C6AEA3",
"VX c #C3B5A8",
"CX c #C3BBB4",
"ZX c #C7C1AF",
"AX c #C9C1B7",
/* pixels */
"A Q.eXi.a d i &.3.,.z.L.eXuXs k s C 5.<.% 1./.b.6 G N *.vX-...<.5.%.h j G q =.:.Y | z.vXw D e a.tX|.",
"G U.q.w.d.h.P.' ;.+.M.H.L.U.tXf.f./ -.+.= ,.m y.y.C.G.:.A.{ -. .' F %X.Xn.V *.).J { { L %.b.f.h.<X=X",
"G k 8.5 W *XU.( .X#XR G 8.T *Xy.h.Q s.%XO m J h g &.D.;X.XC.^ u C t a.s.{ E =XM.; J J U ~ y.h.*Xi.;X",
"d.y.h.s T *X~.XX*XXXXXh.*Xh.oXXXXXt.:X8X9 ' n.r.W $X4XtXaX,X,Xs.n.S  X#X$XT I.T.y.u.n.^ d.XX*X#XP.Y.",
":Xm.f.s L z.).gX;XI.f.i.i.p.tX;Xf.Q %X$XY i.P..X,XqX;X5X;XP.<Xd.i.y XX4XOXW ;XP.i.i.d.d.sXrX-Xp.P.=X",
"k ;XtXa.Z J ..XXI.d.r.:XaXP.;XP.y.F &.L h zXsXrX;XV.V.*Xu.p.t.f.<Xt.P.i.i.e I.p.Q pXcXxXtX;XP.V.I.p.",
"8 Y.tXt.y j j dXp.i.#X3XdXwX=X8 8 c  .M y jXfX;Xl e.< u.I.p.a.2XrXf.p.0 k s U.Y.t.=XrXdXe.7 8 H P.V.",
"0 <XP.a.:XY.tXA.z.j.$.&X%.:XAXm.P.f.K.y.l 0.wXiXOX;X5X<XA.' E '.V.f.rXjXjXR m.H.a 0.0.=XCXsX<XU b ,.",
"3 % + 5 XX;Xp.y 6 6 q ;   + fXI.p.a , % 3 + X + *X5X5X, + 6 3 -   O i.wXrX5 9 8 + .   X sXNXjXa O y ",
"o v.E.7.e 1 H bX] } O.<.x.L.8.p s w.K.Q.j L.L.h.e r w.I.+.) ; +.M.y.2 A e.a.f.P.Q.K.Q.p.R w.e.^ +.n ",
"# E.c.e X & D VXk.p.u.(.k.L.. & a e.W.K.7 ^.K.8.X X r gXS.0.D S.H.y.& X D Q D.s.qXeXg.w.X + 6 / 3._ ",
"3 q.g.s w.h.f.OXG y.f.Y.OXU.y.V.i.G 8.d % q.K.h.w.p.d.@Xw.i.w.h.P.T y.i.i.q N U }.g.XXd.H p.m.H Y C ",
"a ~.W.w.d h.t.z h.g.qX0XQ.yXi.p.w.G H.H.- kXyXOXT P.d.y.P.g.0XkXaXoXe.p.T 4 ) $.W g.~.hX^ i.t.9.{ ) ",
"8.f.W.y.OXI.iXU.~.eX0XQ.W.U.xXoXf.i.wXeX< NX~.h.d.=XaXVX~.eXuXfXwXi.gX:X%Xw @.1Xd.g.K.wX,X*X*XtX`.3.",
"j XXe.a OX0XwXh.tX0Xh.h.K.d.0X*X*Xf.U.wXO p.i.z t.<X;X5XI.wXP.XXy.h iXT.B.}.@X@Xe J ,.e.=X=X*X,X=X;X",
"a i.H.d w.y.I.k ;XqXU.g.U.~.i.d.T T P.P.+ p.P.d.T y.f.f.-XP.*Xi.f.Y i.Q ! 8 +XoXl Z <.f.a.p.i.V.*X=X",
"|.f.p.s e G w.rX*XY.-Xg.K.Q.e.R j T P.2Xk p.P.|.W G w.2XP.I.5XV.p.G Y H U h @X@X}. .M V.e.G T i.=X=X",
"r.D h.s w.V.p.oXh.h.y.e.g.i.2XP.y.R p.P.W t.i.f.aXP.I.=XP.i.i.R p.e P.f.R , oXoXz K ` V.rX-X*XV.P.f.",
"0 i.<Xr.R w.h.k K.g.f.OX-X*X*Xf.i.a.J.p.0 OXiX7Xh.i.f.*Xp.a.t.XX<XW d.a.d.< V.m.R |.d.aX=XP.f.*XP.i.",
"f ;XtXt.y.:XqXg.L.H.-XdX;XrX<XaX7Xi.P.p.0 P.sX7X.X=XaX0XP.f.t.tX5Xi.*X;XaXe V.d.r.V.P.sXiXtX<X;XP.P.",
"0 a.p.T XXjXkXj d j e.f.p.y.;XrXP.R s s 0 e.z f.f.2XdXs $ .Xf.y.R D gXjXzX3 h j a e.*Xp.2XwX2XW 0 8.",
"o E.E.p.,XjXMXO.X.b.[ 1.(.{.=XwXXXP z.9XU ,. .B.OXrXtXf.[.] e +.M L 4XgX4X! ) K L.^.c.;XtXsXqXp.+.2.",
"% E.v.7.s D p.nXO.L ' <.x.!.H 7 @ P l.| 1 ,.+.C s e.a r.z.' N ).3.L F y u.^ _ ( K.^.!.0.s , 2 k.X.n ",
"o v H p R i.i.BXS.K w x 1 H H.h.y.P z.| = x c W *Xf.i.dXb.O.4 c B N ( a.V.w =.B.S 7.0.H m.p.h.T.O.2.",
"O + > < w.d.r.L 5.%.1 < > p p.d.d.$.;.! $ > < }.*Xf.i.hXN.X.* * 1 h a.a.R I *.!   + y 2 f.f.I.Y.N.O.",
"T U.E.i.|.rX-X$.].MX[.L.~.~.I.OXP.P 5.A.8 ^.Y.*Xt.p.=XzX[.].5.bX1X|.7X6X.X4 @.G.i.p.I.~.<X*Xd.>X5XpX",
"G ;Xg.w.6XtX2XF.vX&X1XY.U.h.jXtX=XN.-.B.- ^.U.e.j P.;XjXn.A.&X4Xf.T hXfX1Xt D.C.I.d.I.U.dX>X|.<X=XrX",
"e J.!.7.w.P.P.4 T W h.Y.~.U.sX*Xp.Q j r.+ ^.wXk D P.I.0 y U a. X-Xe.*XC.) = H Q y d.;Xp.f..Xf.d s y.",
"e.h.p.T 9 % - tX5X,X4XL L -.6 5 % s :X*X9 r.p.e.0 6 + *X.X>X<Xd.i.a.7 6 ; D wXY.d.i.u.I.5 8 , e.5XI.",
"t.p.p.i H ;Xa.I.b.s.N.Z Z @.;XP.e.H b.N.k W p.XXhXU.f.*X*X;X*Xy.e.i p.P.i.2 L.Y.W i.8.h.;XI.P.p.h.*X",
"W 7 j 0 y.P.2Xu C u E g 4 u p.;Xi.Y V u h - j }.5X=X2XR j j W k s 0 i.h.g.@ D d k 6 @ W <X2X*Xa.j j ",
"s rXrXe.r R h.j ) @.&.6.:.:.A f.t.K #.) 0 C.1X>Xe.i.*X2Xm.b.y.5X3X^ D w.f.> J.u.R m.C.rXR f.i.y.p.b.",
"j Y.wXe.s f.-XK [ Z *.=.F.1XR *X.X^ } [ 6 *.-.%Xe.f.h.f.$.] K _.A./ Y Q  Xq $.} K O.A.Y.f.<X:XQ L J ",
"3 ~.Q.i.f.dX2X} l.K Z =.1X#XtXwX=Xy.Z.T.9 vX=.3XrXrXrX.Xl.+.1 3.3.F >XzXzXu S.Z.L A.4.*XsXjXgX XO.3.",
"o W.~.7.y..Xh.).z.} { #.n.P.=Xd.i.P z.l.t #.=.1X<Xh.P.V.]  .: 3.3.Z $X8XQ Y X.' O.X...=XsX7X:XN.X.,.",
"# W.K.8.d.gX;XmXS.b.! O.n.P.<X;Xe.B ).).V *.[ .XtX=XrXtXO.) q o.' J %X:X( ^ _._.).O.` V.zXfX|./ 4.>.",
"3 7 s i G i.P.NXeXQ.i.p H 8.g.i.a.b.4.O.  i a 8.i.p.P.fX+.;.r q 7 9 i.e.d.Y /.3Xj 7 a W Y.U.I.T./.>.",
"8.L.W.y.T y.p J.uXeXQ.K.W.ZXi.G D .XbX_ 5 ~.~.0Xp.y.H ;XbXZ.+.'.~.,Xi.i.s V ]._.s g.L.VXd.R U T.].4.",
"G L.L.e.y T > ~.eXyXwXQ.Y.Y.s D r P bXZ.@ W.Q.qXl s e ;XnXbX3.[.T.i.w.T q C 4.S.8.H.c.6XT s e V./.[.",
"7 V.u.s a.=X5X2 > w.t.i.i.y.2XI.p.1 : F - W.w.T t.I.aXD 1 K K b.p.W I.U.b.4 * A d j.P r.<X=XXXp * K ",
"j ! K w w.p.tXe.G y.i.0.i.g.P.t.f.a G y.3 g.g.w.T y.5Xy.H ^ $.Y ^ s p.y.$.O z }.j ' n W f.f.XXG A e.",
"}.} ' B f.p.p.Y.U.wX0Xg.g.wXwXy.y.H ;XY.s g.W.kXcXP.P.;XI.G.D.[ N.G V.^ Y 8 lX@Xa.) n i.rXf.i.P.P.rX",
"r.h U y w.V.tXrXp.e a.y.e.8 I.P.i.H s h z z t.r.}.P.rXf.r.k Y j z 5 u.b.} % z 9 l l b k 0Xb.P.a.0 l ",
"h mXR.^ 8.y.h.a Y.h.f.,X;X2Xh.9.R R ;Xf.R ;XfXI.P.0.f.=X0Xu.a.rX;Xa.p.y.i., g.m.k *XtX:.) Z Y a.P.m.",
"t #.=.B O < 7 l p.i.I.;X;XrX- @ - s f.g.8 ;XI.i.@ , 6 p.b.p.T I.5XoX= - 6 s P.m.k f.=X3XO % 6 w.p.r.",
"f Z.&.Y f.wX;Xz y.W d.P.f.XXaXtX-Xe.f.f.3 P.u.P.I.tX<Xy.y.i.j =X.X}.qXgX,Xj =X*Xj f.f.V.VXBXsXf.g.e.",
"3 U.p.d y.=XP.i.| ^ ^ } S e.;X*Xf.^ b.n.q | J I.sX=X;Xt.P L 6 | ` N =XcX6Xt $.V.p.h.p.e.xXVXaXp.j.m ",
"O ~.L.7.d d.=XuX4.Z Z ..l.L.a.9.a.S A.O.r >.M k.y.d.<X-Xz.) = 3.M Z ^ OXf.! =.G.~.W.J.f.@X-Xd.b./.,.",
"# g.w.s D f.rXZXX.O.%. .U e.a.u.i.! z.z.X 1.u U R p.aXjXA.X.Z ' B V ( a.V.! 6.1XwXL.a t.f.h.s.m.3.>.",
"e eXkXoXw.p.a.U.F.A.T.F.MXVXa.p.y.|.#X} @ 1.`.5XR P.p.6XO. .$.nXbXN.^ s.y.E &XZ.s ;XyXcXk f.f.5Xz.>."
};
