/* XPM */
static char *garage1677766121[] = {
/* columns rows colors chars-per-pixel */
"50 50 251 2 ",
"   c #000001",
".  c #0D0C0A",
"X  c #0E142C",
"o  c #352E26",
"O  c #3B342B",
"+  c #393429",
"@  c #2F2F35",
"#  c #24251F",
"$  c #433C34",
"%  c #463F39",
"&  c #403A2C",
"*  c #4C453C",
"=  c #484439",
"-  c #50493F",
";  c #554F35",
":  c #5A573A",
">  c #484325",
",  c #625D3E",
"<  c #2C3645",
"1  c #38455C",
"2  c #3E444D",
"3  c #394B64",
"4  c #4E4A42",
"5  c #474647",
"6  c #524D45",
"7  c #544E49",
"8  c #5B4F4F",
"9  c #545145",
"0  c #56524A",
"q  c #5A544C",
"w  c #5D594E",
"e  c #5A5645",
"r  c #4A4C56",
"t  c #5C5651",
"y  c #5E5A52",
"u  c #5C5C5C",
"i  c #545658",
"p  c #485059",
"a  c #615B4E",
"s  c #615D44",
"d  c #625C54",
"f  c #625D5A",
"g  c #62555C",
"h  c #705657",
"j  c #6A654B",
"k  c #736C4E",
"l  c #776D4A",
"z  c #77714D",
"x  c #656155",
"c  c #65615A",
"v  c #6A655C",
"b  c #6C6A5C",
"n  c #6B6754",
"m  c #726D52",
"M  c #736B5B",
"N  c #777253",
"B  c #797456",
"V  c #7B765B",
"C  c #7D795B",
"Z  c #78755A",
"A  c #495567",
"S  c #5B5C64",
"D  c #45566A",
"F  c #615E63",
"G  c #7A5C64",
"H  c #5B636A",
"J  c #626363",
"K  c #6A6663",
"L  c #6D6A64",
"P  c #64646B",
"I  c #69696B",
"U  c #736C64",
"Y  c #726C6C",
"T  c #796966",
"R  c #6F726C",
"E  c #767363",
"W  c #7B7363",
"Q  c #75716C",
"!  c #7B736B",
"~  c #7D7968",
"^  c #6A6B72",
"/  c #776E74",
"(  c #6C7175",
")  c #747274",
"_  c #7B7573",
"`  c #7B7B7B",
"'  c #797878",
"]  c #5F6050",
"[  c #817B5D",
"{  c #866959",
"}  c #866867",
"|  c #986968",
" . c #837C62",
".. c #837B6C",
"X. c #88776B",
"o. c #93756A",
"O. c #886C72",
"+. c #827C74",
"@. c #8B7D73",
"#. c #837E7A",
"$. c #847474",
"%. c #967974",
"&. c #A86B66",
"*. c #A77C77",
"=. c #B0706E",
"-. c #A35F61",
";. c #C86E5E",
":. c #C47865",
">. c #CE746D",
",. c #8B846D",
"<. c #898367",
"1. c #93856B",
"2. c #978A6D",
"3. c #9F9569",
"4. c #848274",
"5. c #8C8374",
"6. c #8C847B",
"7. c #89867B",
"8. c #938574",
"9. c #938B74",
"0. c #9B8C74",
"q. c #958A7C",
"w. c #9C8D7A",
"e. c #98857A",
"r. c #9C937B",
"t. c #989475",
"y. c #A4866A",
"u. c #A9996D",
"i. c #A28E7B",
"p. c #A88977",
"a. c #B98577",
"s. c #A39372",
"d. c #A4937A",
"f. c #AB967C",
"g. c #A49A7A",
"h. c #AC9B7C",
"j. c #A99A74",
"k. c #B5987C",
"l. c #B88B6C",
"z. c #ADA474",
"x. c #ADA57C",
"c. c #B2A374",
"v. c #B3AA7D",
"b. c #BBAC7B",
"n. c #B5A47B",
"m. c #B3A36E",
"M. c #C5987B",
"N. c #CE8F6C",
"B. c #C8B37D",
"V. c #D1B078",
"C. c #7C7D82",
"Z. c #747786",
"A. c #8B7C83",
"S. c #D77E80",
"D. c #7C8385",
"F. c #838384",
"G. c #898889",
"H. c #948C82",
"J. c #9C8D83",
"K. c #968B86",
"L. c #9D9282",
"P. c #94938C",
"I. c #9C948B",
"U. c #9B9784",
"Y. c #8B8C93",
"T. c #949393",
"R. c #93949A",
"E. c #9C9B9C",
"W. c #9A9894",
"Q. c #8F9093",
"!. c #A49584",
"~. c #A49C83",
"^. c #AC9B83",
"/. c #A59A8B",
"(. c #A99888",
"). c #B29D83",
"_. c #B3998C",
"`. c #A39D96",
"'. c #B09895",
"]. c #B28C85",
"[. c #ACA28D",
"{. c #ABA586",
"}. c #B4A183",
"|. c #BBA384",
" X c #B4A38B",
".X c #BBA48A",
"XX c #B4AD8B",
"oX c #BBAA8D",
"OX c #B7AD83",
"+X c #BAB284",
"@X c #BCB58B",
"#X c #BAB489",
"$X c #ACA394",
"%X c #A8A49A",
"&X c #B6A896",
"*X c #BDB691",
"=X c #BCB796",
"-X c #9E9EA0",
";X c #A4A4A5",
":X c #A9A9A5",
">X c #ACABAC",
",X c #A6A5A8",
"<X c #B6ACA9",
"1X c #B3B2AC",
"2X c #B7B4A5",
"3X c #AEADB1",
"4X c #B3B3B3",
"5X c #BDBDBD",
"6X c #B6B7BA",
"7X c #AFB1B0",
"8X c #CB9288",
"9X c #EC988B",
"0X c #C2AB89",
"qX c #C3BB8D",
"wX c #C5B689",
"eX c #C1AB94",
"rX c #C3BB92",
"tX c #C8B697",
"yX c #D3B99C",
"uX c #D3B48A",
"iX c #C9B8A7",
"pX c #D2B5AA",
"aX c #F6A594",
"sX c #C7C18C",
"dX c #C9C197",
"fX c #D6CA9A",
"gX c #D3C088",
"hX c #D6C6A6",
"jX c #CCC2B8",
"kX c #E9D8AC",
"lX c #BEBFC1",
"zX c #CBBDC3",
"xX c #C4C5C4",
"cX c #CDCCCD",
"vX c #C6C6C9",
"bX c #D7D3C9",
"nX c #D2D2D3",
"mX c #DADADA",
"MX c #D8D5D8",
"NX c #D1CECF",
"BX c #E1DED1",
"VX c #DEE0DF",
"CX c #DFDEE2",
"ZX c #E4E4E4",
"AX c #EBEBEC",
"SX c #E8E9EC",
"DX c #F3F2EA",
"FX c #FEFDFD",
"GX c #F4F4F5",
"HX c #EEEEEF",
"JX c #E8E3DF",
/* pixels */
"$X X XG.w._.i.5.s.w.I o.&.&.&.&.T K *.$X$X_..X6.w.).w.@.i.s.K 8.w.0.0.8.7.' $ %X&X)..X6.J..X0.5.0.~.",
"eX.XyX6.u ! L W ` P Q M.N.;.;.;.o._ M.oXeX.XtX5.S ! U U ! P U |.^.].f.L.O = y + 2X_.iX5.S ~ Y U +.P ",
"a.*.'.F.6.$Xd.^./.'.#.w.M.u.2.s.6._ n.c.OXj..XK.A.W. X X_.`.#.w.^.p.4 $ w t t 6 O (.oXL.6.(.$X$X(.(.",
"T T O.( _.pX).!.s.f.U F ,. .8.4.F ) u.1...X._ ( T.&X.XiXtX|.Y ` t $ - d t 0 0 f 0 o P.Y (.|.oXiXiX0X",
"l.y.h.@.$XpX}.d.9.Q +.0.d.b.c.x.r $.b.z.x.0.!._ K.&XoX X/.I.c + * v t 0 7 d x 4 t q + H.w.0XOX.X!.0.",
"N.N.V.,.I ..n ! A.) G.h.h.c.u.g.i ..B.m.c.d.^.@.i L ! ` c o 7 v 0 q q d 0 w t t 0 v 6 o 7.! } F / #.",
"y.1.s.9.$. . .0.$XJ.F.rXb.B.B.n.S 5.uXz.s.s.h.@.$.6.U $ 6 t q q q w q y t 9 q b q 0 q q O H.X.5.).K.",
"E L ' ) @.f.f.0.i.^.K.$X0.9.~.r.L u m W ,...9.#.#.= O d d q 0 0 d d 7 0 x f q q 0 w q f 4 o [.s.p.y.",
"h.g.rXI.Y 0.p.d.@.@.Q I.&X{.t.g.1.H $XXXoX&XI.& $ v a 7 q 0 f q t y u 0 w y 0 q q d q 6 d e o /.6.o.",
"b.m.gXr.I 6.#._ +.) I .XB.wX@XwXs.~ hXhX~.4 % 7 q a q q t y d q 0 0 v y 0 9 y x 0 q f t q d - + P.' ",
"j.g.h...R.iX!.L.^./.8.tXoX0X+XwXt.9.&X* o q K q q 7 0 d y 4 q v ] 0 y 0 w y y w t 0 a f q 7 w q o '.",
"5.1.#.H @.yXn.k. X^._ W 1.X.8./.K.0 $ q t 9 a 7 a d q d t t 9 d y q 0 0 d y 4 q f d q 0 q d q t 0 O ",
"s.u.d.! L 1...6.i.0.c X.8.@.K.b + $ v d q q 6 a x y 4 0 x v w 0 0 q x 0 0 y d 0 a q 0 t d a 9 q w * ",
"g.g.x.0.C.7.@.6.8.Q W |.iXZX6 o K 0 q q 7 x y q q u y 0 t w 0 0 w y ] 0 9 w v t 8 6 d d 4 q v - - ` ",
"s.3.2.M `.tX&X|.!.8.K.MXGX5XZXy = y 7 0 d d 0 4 9 y v t 0 0 0 v t 9 w v y 0 t 0 w d t d y 0 4 v R.'.",
"q.....Q s.k.k.d.).bXGXvX4.> 2XSX$ * b q q q c c 0 w y 0 0 y w y 0 0 9 v y 0 0 q d w * t x 4 Q D._.oX",
"eX&XtXH.,.d.@.;XAXMXP., , k : BXMXO t 6 6 q w v q 0 9 q d a 7 q f f q 0 7 q f 0 t f f * 0 G.P.e 8.@.",
"eX).yXJ.S T.mXVX%Xj : k k 2.#Xv.DX6XO d t 0 d w q q d q d q q 7 a d a 7 q d d 6 7 y q d Q.7.k s G.g ",
"I.8.(.K.NXAX2XZ : j b <.XXdXrXv.z.FX,XO x t 0 6 q d w 7 q c c a 0 q 0 f t q q v q = Q W.~ l C x $XtX",
"! @.2XAXxX4.: j n <.{.dXdX@X*X*Xb.v.FXR.+ q q y t d q q 7 t d q 0 q d d q 6 q a 0 ` Y.b z ~ C j iXpX",
"N.bXFXjXJ : m C j.sXdX#X#X@X*X@X*Xv.=XFX) + b w 7 q c v q 7 w 7 d x q 0 v d = q P.G.t n  .Z B n `.i.",
"N.pXbXE.G.e t.*XdXsX+X#X@X@X#X#X*X=Xv.dXFXP = 0 q 0 a d q q 7 a d q 6 q w 0 J T.` S < n [ B B v @.Q ",
"{ M 1.4.W.j fXdXXX#XrXrX#X#X#X@X@X#X@Xz.hXGXi 4 v 7 q d 7 d d q q f f 0 = _ W.Q 5 3 1 k V V V v !.p.",
"T G / ) %X,.@X*Xt.F.&X#X+XdXqX@X#X#X@X@Xz.bXSX6 - d 7 6 q d d * 7 a a - D.E.N u 1 1 p m [ V Z b i.l.",
"k.k.tX~.E.r.qXsXU.R.D.E.%X{.#X@XsX@X#X#X#Xz.BXCX$ % d c w t y f q = d R.Q.k z H 3 < p B W V B b 4._ ",
"OXc.sX9.W.r.qXqX~.E.< X D.,XT.%X[.#X@XrX@X+Xz.DXvXo a t 6 0 d v * u ;XH.j C z H D D p B C Z N v 5.+.",
"8.2.2.~ 2XU.wXqXU.1X<   D C.@ Z.,X%X2X{.v.sXsXz.DX3XO q q q 6 6 ` :XZ , C C z H D 3 p V C V N M M.8X",
"t.2.,.P E.{.v.qX$XE.E.5 ( A   3 Q.< ( :X:X2XXXXXXXFXT.& b - * Q.%Xj @ ] <.C z I A D i B V V k T >.=.",
"f.!.k.X.C.{.#XsX~.F.SXGXBX-X@ A P   X R.S ' G.XX+X=XFXD.o d R.W.: u S n [ C N J S r 5 { C V k v -.| ",
"&.&.;.-.R.&Xb.@X{.Q.;X4XnXFXDXcX>XX X Z.# . 5 &XsX3.DXFX4.Y.P.; r Y.i a [ V m I r < L W Z C j E e.! ",
"-.} } g $X$Xb.sXXXC.3XGXnX7X4XmXFXZXW.6XO   # *XsX+XXXZX6Xb l e P ' i j [ V V i 5 Y  .V V N ..}.h.x.",
"*.| O.Y _.%X#XdX{.G.,XvXvX4XSXNX7X6XAXGXcXD.P XXqXqX+X%Xb z <.= u ) S M  .V N i (  .B V z .. Xg.b.uX",
"S.8X9X-.~ $Xv.@X{.G.nXxX7X:XnXZX-XxXxXxXnXFXnXr.*X*XsX4XE N <.9 r D.i n [ Z k L  .B V m U X.L W / L ",
"8X=.9XK.D.`.z.sX{.Q.;XvXZXZX>X:X;XmXFX4X3XnXE.g.rX@X*X1XE N C e J #.J ] [ Z W B B C m ! L $.' $.O.O.",
"$.@.I.A.%X$Xx.sXv.G.-XmXvXlXcXZXmX>X`.;XmXFXQ.t.qX*XrX4XE B C e P F.J j C V Z Z C l W $.'.iX3XiX8XpX",
"} X.@.( [.`.v.*XXX-XQ.VXSXW.6XlXmXZXcXvX:XlXG.t.sX#XrX1XZ B C 9 I ' i m  .Z B V k T o.Y A.pXzXpXzXpX",
"N.a.0X%._ %Xz.*XXX#.5X6X:X;XAXGX;X>XxXZXSXxXR.r.sX@X@X1XE B <.- H Q 5 n ~ N B k | ;.>.| O.K.G.A.A.O.",
"*.p.k.5.J %Xu.sXXXG.4XmXVXcX1X4X-XZXHX4X7XmXnXr.qX@XqX1XE B  .: u Q.u n C C k o.:.N.N.X.P T F T O.O.",
"Q L W ~ !.2Xu.sXOXP.Y.5XxXZXmXxX5X>XnX:XNXSXR.t.rXrXrX1XE N C w C.` u Z B N W } <.<.<.E d.b.k./.!.*.",
"1.1.I.C...&X/.x.z.P.R.AXGX;X:XcXGXmX>X4X7XHX;X<.sX@X*X1XE B V x H ' I k z L T | t.9./.` 4.b.u.K.H.*.",
"B.b.hX/.f @.@./.[.R F.vXlXT.AXSX4X4XCXGXvX4XD.t.sXwXrX1XE B C e ) C.u j X.U aX9XwXgXkXI.J 1.9.4.$.L ",
"z.}.B.1.) /.q.8.,.I.T.`.T.xXcXnXE.NXnXvXnXZXxXr.qX@X#X1XZ N [ q ^ ( y o.&.| 9XS.n.OXV.6.' g.s.7.+.%.",
"5.,.,.^ /.yX).).0X$X+.^.'.%XT.;X5XNXAX6X>XnX3Xg.@X@XrX1XE Z [ 9 i T.e.8Xo.h S.%.9.5...^ !.hX.Xp.].].",
"s.9.5.P _ 0X^.r.^. X) Q 4.E W.:X:X;X1X:XvXFX;X9.rXrXrX1XE Z C 9 F.G.6.!.X.2 } A.J.6._ L .. Xg.=.>.].",
"c.h.b.,.J #.` _ 8.6.Y f.{.h.d.h.!.T.E.6X6XvXQ.t.rX+XsX1XU z [ 9 6.g.p.l.e.O.=.| i.s.h.@.K ) ` } | O.",
"h.g.v.2.H._./.L.8.! W oX^.f.).|.$X6.).'.;XW.E.{.wX+XrX4XE N k 9.).}.f.M._.O.;.-.i.!.).X.H.^./.p.| T ",
"8...~ v d.0X).h.d.!.! K.L.@.$.q.w.#.! +.9.P.W.9.@X@X@X1XZ k ! w.w.5.@.%.%.O.} } @.! ! F d.0X).p.*.a.",
"/.6.!.+.i.oX).q.^..X! w.!.w.5.5.+.( +.w./.q.U.E.=Xx.+X2Xb 9.Q J.r.q.6.q._ ( +.L./.8.!.+.d.eX^.e.^.oX",
"eXoXhX6.f ! U L W P ! 0Xf.f.f.k.$.+.0XeXtX&XhX6.u K.%X:X#.S Q 0Xf.h.f.k.! #.eXeXeXeXhX6.u W L Y ! J ",
"eX}.tX!.` J.@.i.(.G...^.i.i.0.j.Q ) .X XoX|.uXJ.' K.@.&X/.6.#.^.i.i.q.h.Y ( |.oXeX}.tXJ.' @.8.e.8.6."
};
