/* XPM */
static char *hummerdown1677765759[] = {
/* columns rows colors chars-per-pixel */
"50 50 240 2 ",
"   c #010000",
".  c #181819",
"X  c #1D1C21",
"o  c #535252",
"O  c #785D5D",
"+  c #61524D",
"@  c #7D625E",
"#  c #77695F",
"$  c #765C64",
"%  c #6F5C62",
"&  c #636263",
"*  c #6D6B6A",
"=  c #6C6866",
"-  c #736B65",
";  c #7B6C65",
":  c #746C6A",
">  c #7B6D6C",
",  c #786465",
"<  c #6E726B",
"1  c #7B7465",
"2  c #75736C",
"3  c #7B746C",
"4  c #7C796D",
"5  c #747666",
"6  c #726F71",
"7  c #6E7273",
"8  c #747474",
"9  c #7B7572",
"0  c #7C7A73",
"q  c #7B7B7B",
"w  c #767777",
"e  c #855A5A",
"r  c #98595E",
"t  c #97635D",
"y  c #8B635A",
"u  c #AB675E",
"i  c #BB735B",
"p  c #905966",
"a  c #8A6D65",
"s  c #846C6A",
"d  c #896867",
"f  c #976B67",
"g  c #82756B",
"h  c #8E736A",
"j  c #847B6D",
"k  c #8A7C6E",
"l  c #837665",
"z  c #95746C",
"x  c #9B736B",
"c  c #9B7A6C",
"v  c #977669",
"b  c #836871",
"n  c #837474",
"m  c #8A7572",
"M  c #837C73",
"N  c #8B7D73",
"B  c #827C7A",
"V  c #897D7A",
"C  c #8D7478",
"Z  c #937D73",
"A  c #9B7C72",
"S  c #947B7B",
"D  c #997575",
"F  c #A86B67",
"G  c #B86B66",
"H  c #A87769",
"J  c #B67868",
"K  c #A86E74",
"L  c #A47B74",
"P  c #A87977",
"I  c #B77C75",
"U  c #B65B6C",
"Y  c #C86B5D",
"T  c #CA696A",
"R  c #C77867",
"E  c #D67966",
"W  c #C77277",
"Q  c #E07261",
"!  c #F07C57",
"~  c #7C8177",
"^  c #7C816D",
"/  c #8C836C",
"(  c #87836A",
")  c #92846E",
"_  c #96896C",
"`  c #9C966F",
"'  c #848375",
"]  c #8C8273",
"[  c #85827C",
"{  c #8C837B",
"}  c #8D8A7C",
"|  c #898A77",
" . c #928474",
".. c #948A74",
"X. c #9B8D74",
"o. c #92867B",
"O. c #9A867A",
"+. c #958B7B",
"@. c #9B8C7C",
"#. c #9B8475",
"$. c #9C9274",
"%. c #9C927C",
"&. c #97957A",
"*. c #8B9072",
"=. c #A3866B",
"-. c #BB866B",
";. c #A28E76",
":. c #A38B7B",
">. c #A88478",
",. c #B38472",
"<. c #B98779",
"1. c #A39574",
"2. c #AB9C74",
"3. c #A3937B",
"4. c #AA947C",
"5. c #AB9C7D",
"6. c #A49879",
"7. c #B19C73",
"8. c #B49D7E",
"9. c #B79578",
"0. c #A89668",
"q. c #ACA17B",
"w. c #A4A27E",
"e. c #B4A47D",
"r. c #BAA777",
"t. c #E3865A",
"y. c #D7846A",
"u. c #D79868",
"i. c #D48679",
"p. c #D89877",
"a. c #C88C72",
"s. c #E58E74",
"d. c #C4AB7A",
"f. c #C8B37A",
"g. c #D4BC70",
"h. c #EAA57C",
"j. c #DBC177",
"k. c #7C7E81",
"l. c #937A81",
"z. c #D77B87",
"x. c #E67784",
"c. c #7F8588",
"v. c #7C9194",
"b. c #838484",
"n. c #8C8282",
"m. c #8B8A84",
"M. c #87888B",
"N. c #938B83",
"B. c #9B8D83",
"V. c #928D8A",
"C. c #978686",
"Z. c #959282",
"A. c #9C9384",
"S. c #9C938A",
"D. c #9B9788",
"F. c #8A8E92",
"G. c #8D9295",
"H. c #959493",
"J. c #999999",
"K. c #918D91",
"L. c #A48A84",
"P. c #B78785",
"I. c #A49384",
"U. c #A99583",
"Y. c #A59A81",
"T. c #AC9B84",
"R. c #A39A8C",
"E. c #AC9D8B",
"W. c #A6968B",
"Q. c #B39D85",
"!. c #B89986",
"~. c #A39B93",
"^. c #A79A94",
"/. c #B89B95",
"(. c #ACA18C",
"). c #A8A787",
"_. c #B4A584",
"`. c #B4A38B",
"'. c #BBA58B",
"]. c #B9A886",
"[. c #ADA49C",
"{. c #AAA496",
"}. c #B4A493",
"|. c #BAAA92",
" X c #B3A99B",
".X c #B6A698",
"XX c #B9B393",
"oX c #9D9EA3",
"OX c #9FA0A5",
"+X c #ABA9A8",
"@X c #B3ABA6",
"#X c #BBB3A9",
"$X c #BCBCBC",
"%X c #B7B6B4",
"&X c #ABB6BA",
"*X c #C48783",
"=X c #C39986",
"-X c #D2918F",
";X c #E7948D",
":X c #C5AA88",
">X c #C7B488",
",X c #C7A998",
"<X c #C8B496",
"1X c #D2B998",
"2X c #D3B28C",
"3X c #CDBCA5",
"4X c #C6B7A6",
"5X c #C6BCB5",
"6X c #D1B6AE",
"7X c #BDC3B9",
"8X c #D3C18F",
"9X c #D5C1A6",
"0X c #C9C3B9",
"qX c #D8CAB9",
"wX c #D5C8B6",
"eX c #E6CEB6",
"rX c #BEBFC1",
"tX c #ABB9C2",
"yX c #BFC0C2",
"uX c #C3C4C4",
"iX c #CCCCCC",
"pX c #C8C7C7",
"aX c #D7D4CD",
"sX c #CECFD1",
"dX c #CCD1D3",
"fX c #D4D4D4",
"gX c #DBDCDC",
"hX c #D8D8D7",
"jX c #D3CACB",
"kX c #E6DBD0",
"lX c #EBE3DB",
"zX c #DEDEE0",
"xX c #DFE0E2",
"cX c #E4E4E4",
"vX c #E5E6E8",
"bX c #ECECEC",
"nX c #F4F4F4",
"mX c #FEFEFE",
"MX c #FCF7F7",
"NX c #F9ECEC",
/* pixels */
"A.e.1X_.[ @.q L s.E A ).8X_.[ @.q O.p.i.D R u.Q.b.&.q l.-X*XK Y y.*XB Z.~ S z.=X#.9.i.l.N O.M N.<X/.",
"$.$.` ] ~._.A.>.I a.D &.2...^.Q.A.I.I <.z i Y / J.!.>.#.J a.z L u a J.T.>.>.<.<.v H T f W.!.A.A.R.Q.",
"M ] 6.2 { T.3.9 9 n.: ] $.2 { T.4.9 n C.7 f J 2 N G K j ' l.* B F @ b.P.G m ] H $ h H $ Z T.3.j k @.",
"D..._.$.q } ~ ' (.R.o...q.%.9 b.9 ] [.[.m.+ a - = = + 0 XX[.m. .-.>.w V b N _.9.A #.<.D 9 { 0 k _.Q.",
"I.k N l <.a.f #.Y.U.%.k j g T.Q.] +.~.S.%             . Q.U.I.k ( M W.`.| @.I.A.A.j / 0 (.`.{ o.$.W.",
"B { A.n Y Y Y A +. .9 [ X.M T.8.3.N F d B V : X . o V.V. .' 2 { +.M T.8.U.] @.N 9 N +.j Q.8.3.o.B.o.",
"{ |.9XE.y a = o.].;.n .X9X(.: 4 J.+X,X/.[.5X0Xc.c.+XmX0X4X[.+X7X9XE.> 2 = +.:X1.B '.9XE.- 1 : 9 _.9.",
"m.B.4.+.m.A.Z.N v Z s H ,.n.n.E.C d G.b.l.k.c.H.J.M.k.k.k.F.S O 4X+.o.R.D.V  . .0 6.8.+.{ E.H.> a z ",
"q X.k ' 4X2XX.: h x , G a B 4X3X-Xl.w 8 q % 0 : = b.% 6 q 8 S P.5X' _.9X>X: M ..2 ` k M 3XeX5X8 d x ",
"k g.g.2.{ ] 7 x y.f y t.u.7.o.R.F.dXvXmXmXNXmXmXMXmXNXMXmXMXxXF.[.+.Z Z M @.].X.l ].r.X.N.A.V.S R R ",
"] d.0._ - l V.U.p.=.l u.=._ # R.& zXmXmXmXmXmXmXmXmXmXmXmXmXmX& S. .- 1 | U.p.@.j r.X.N # 1 0 B.y.R ",
"3 1 8 8 3.Q.4.D.).&.* 2 8 q 1.4X& nXmXmXmXmXmXmXmXmXmXmXmXmXmXw V.0 :.8.:.l.K B.5 2 w w 3.9.2.W.,.P ",
"} $.f.).9  .: { ).q.M 3.f.E.9 @X& mXmXmXmXmXmXmXmXmXmXmXmXmXmXw ~.R.9 o.2 n *XU.| $.r.^.9 +.2 { *XI ",
"T.T.r.$.m.B.B U.8X>X6.q.r.%.m.[.& MXmXmXmXmXmXmXmXmXmXmXmXmXmXw M.@.m.&.~ K x.:XY.e.q.@.N.B.[ 3.s.i.",
"' ] X.2 E.<XQ.] _ 6.M ..` 8 E.3X& nXmXMXmXmXmXmXmXmXmXmXmXmXmXq m.: E.:X<.M n B.1 f c 2 }.:X_.N z L.",
"q k 5.k 2  . .1 ..I.3 / 6.( 3 ^.o MXmXmXmXmXmXmXmXmXmXmXmXmXmX6 n.n 2 A f 8 v.H.s f J M 3 O.] l &.D.",
"^.O.r.1.{ @.M +.'.].Y.6.r.1.m. Xc.nXmXmXmXmXmXmXmXmXmXmXmXmXmXH.H.@.m.@., N.tX[.L.F Y &.{ @.3 @.:X'.",
"b.9 / l `.'.3.O.@.+.N M / j `.qXcXnXmXmXmXmXmXmXmXmXmXmXmXmXmX%XJ.M _.=X>.V b.{ m d f 5 _.].3.N o.+.",
"M B.[.N.] N 3 M r.X.8 S.}.N.) @XbXnXmXmXmXmXmXmXmXmXmXmXmXmXnXsXjXN./ ] g k ;.) 8 Z. X@.Z ] 3 { Y.;.",
"N.'.1XE.: j 2 0 7.1.+.'.1XE.: ~.w mXmXmXmXmXmXmXmXmXmXmXmXmXmXJ.J.E.: M : @.:X3.{ '.1X(.2 ] 0 +.Q.4.",
"q o.] M .X9X4X4 < 4 ~ } N V E.3Xo nXmXmXmXmXmXmXmXmXmXmXmXmXmX* w ' .X9X4XB M M 3 { ] ] T.2X,X9 0 +.",
"n 7.0._ .X0X Xh H #.@ J 0.` U.4X& MXmXmXmXmXmXmXmXmXmXmXmXmXmXq l.f [.0X Xs f ) 4 2.1.] W.`.5.k x J ",
"] g.g.2., l ~ ,.y.v y t.u.r.1 V.& mXmXmXmXmXmXmXmXmXmXmXmXmXmXq l.H = 3 ( P T =./ j.f.@.; ; 1 5.R R ",
"j _ 2 1 k _ { :.a.L $ u @ 2 / }.& nXmXmXmXmXmXmXmXmXmXmXmXmXmXq B d s N @.>.W #.5 / 1 -  .X.&.U.R I ",
"B M ] { +.3.+.#.<.P > s m V o. Xo MXmXmXmXmXmXmXmXmXmXmXmXmXmX= 8 o.V I...L I O.9 9 ] ]  .4.X.%.,.P ",
"S.q.j.r.0 n.8 D s.W P r.2X].q @XJ.MXmXmXmXmXmXmXmXmXmXmXmXmXmX+X@X}.3 { w z z./.A.T.>X].0 n.* { <X|.",
"V.@.0._ R.Q.:.>.I a.Z &.` / T.qXnXnXmXmXmXmXmXmXmXmXmXmXmXmXMXMXhXB S.!.>.L I Q.} o.X./ ^.E.N.:.(.`.",
"8 / 7.1 o.Q.4.8 9 n.: *.w.5 { qXdXnXmXmXmXmXmXmXmXmXmXmXmXmXmXhXiX2 | <.U > | ..> M ;.1 m.R.I.j j @.",
"N.X.r.1.w V j M (.{. .H <.#.w @XyXnXmXmXmXmXmXmXmXmXmXmXmXmXmXpXuX+.q m y / >X_.o.O.8.$.q ] g / _.!.",
"W.N N n R.`. .o.:.3.:.r r p R.9XpXnXmXmXmXmXmXmXmXmXmXmXmXmXmXdX0Xg W._.&.*.2.U.A./ Z 0 W._.O.{ %.I.",
"M V N.M 5.Q.A.N K f 7 n L d 4.0XpXMXmXmXmXmXmXmXmXmXmXmXmXmXmXfX0XB T.8.q.*.X.] 8 ] A.B U.Q.3.o.B.} ",
"[ |.1X`.; 2 < d T G b z.;XI : @XpXnXmXmXmXmXmXMXmXmXmXmXmXmXmXfXpXT.= 1 = ) f.;.9 `.3XT.- 2 - g 8.9.",
"N.6.e.%.N I.D.s y a D K <.B.{ 5XpXnXmXmXmXmXbXiXmXmXmXmXmXmXmXfX5XP [ K.l.z H f m I ,.&.{ Q.S.: y z ",
"q 1./ o.|.1X:Xg s B : f h n.|.qXiXcXbXmXmXmXvXrXmXmXmXmXmXnXvXfX5Xd 5XjX4Xd d z - F t ' 3XkX5X> @ c ",
"~ r.d.2.V k j L y.H O T -.:.{.+XpXpXiXnXbXnXbXbXnXnXnXbXbXzX5XfX#X/.H.@XS c a.H O Y y.@.[ %.M.C.R E ",
"] r.$./ - 1 q U.p.X.h ,.A / - %XfXdXzXdXhXhXfXgXfXhXfXfXdXzXgXfXaXL.3 > n >.y.H g -.Z k ; g q I.y.E ",
"8 1 1 0 %.].U.Y.w.1.< ^ 4 q 3.qXhXiXdXpXrXrXiXsXuXuXpXdXuX$X$XiXhX[ q.e.N.L J #.< 5 4 8 `.<X3.B.J J ",
"+.%.d.(.9  .- ] ].q.' %.f.E.2 0XbXcXgXzXiXsXhXgXsXsXfXgXfXfXhXvXlX(.j X.* h i.9.[ Y.r.~.M  .- Z =Xa.",
").6.r.1.m.@.n 6.8X>X%.e.r.%.{ 0XzXMXmXmXmXmXmXmXmXmXmXmXmXmXmXvXaX6.+.%.q P s.d.D.e.2.+.o.@.0 :.h.p.",
"M Z H , (.<XQ.{ / A.M ....4 (.eXcXMXmXmXmXmXmXmXmXmXmXmXmXmXmXvXaX2 (.:XI V B C.l v H < }.>X}.{ h :.",
"B d J t 4 o.N g +.I.1 _ q.( 9 %XvXnXmXmXmXmXmXmXmXmXmXmXmXmXMXvXaXM 8 z f 8 F.K.n t J N 8  . .j N.A.",
"^.x i G M.%.g +.:X'.T.1.q.$.o.#XbXbXmXmXnXgXvXvXvXvXgXbXmXmXnXvXlX+.{ #.e m.&X+X:.u J &.m.&.3 O.:X].",
"b.3 z ; `.|.5.]  .{ { N / 1 ].qXnXvXmXmXcXk.J.J.J.J.k.%XmXmXbXbXhX> `.:X>.{ M.{ M a z 8 =X=X4.o.o.Z.",
"n P !.B.] ] 3 n U. .6 S.}.+.N  XnXbXMXmXzXF.OXoXoXOXM.yXmXmXbXnXkX@.k ] 3 g ;. .8 D./.F r r > 0 6.@.",
"D W x.P.2 M M j 4.@.} |.1X(.3 ^.nXbXnXmXxXk.K.G.G.G.k.rXmXmXvXnXlXE.: j 2 +.:X3.n.`.,X<.= z n 4 6.4.",
"l.S f S }.2X<X8 < 0 M +.] } }.wXmXnXnXmXnXpXuXuXyXpXrXcXmXMXbXmXsX|  X3X4XM 4 M 4 O. .] .XeX6X3 : ' ",
"^ q.$...U.T.3./ F x , G H  .T.XXbXbXbXmXmXmXmXmXmXmXmXmXmXnXbXbX6Xf /.0X.Xd F  .2 2.X.M .X5X[.N H -.",
"] >Xf.1.- - 8 4.Q u d E u.2.9 : +XoX+X+X$X$X$X%X%X$XrX$XrX%X+XJ.;XJ = 8 M P T _ ~ f.d.;.= 4 [ 3.t.E ",
"5 _ 5 2 N ;.A.I.R x O t - 3 ] 3.S.[.,X/.V.>.V.K.J.[.~.{.,X/.C.P O , B o.X.l.W X.5 ( 5 = +.T.B.A.a.i ",
"B 3 I.S.+.T.+.S.P.I 3 d L.H.@.4.@.R.!.,.: h P.V.O.4.@.J.U.J , m >.m.S U.#.B.P.4.0 C U.m.@.!.+.B.<.,."
};
