/* XPM */
static char *hummerleft1677765778[] = {
/* columns rows colors chars-per-pixel */
"50 50 240 2 ",
"   c #000000",
".  c #18181C",
"X  c #353535",
"o  c #585655",
"O  c #534E4B",
"+  c #675F5E",
"@  c #785B5B",
"#  c #7A655E",
"$  c #62615F",
"%  c #695E62",
"&  c #795C66",
"*  c #6D6B6A",
"=  c #696664",
"-  c #746B64",
";  c #746D6A",
":  c #7C6C6A",
">  c #796566",
",  c #6D716B",
"<  c #67706D",
"1  c #737365",
"2  c #7C7164",
"3  c #73736B",
"4  c #7B746C",
"5  c #7C7A6D",
"6  c #737B66",
"7  c #6E6E72",
"8  c #776D72",
"9  c #747372",
"0  c #7B7572",
"q  c #7D7A73",
"w  c #757579",
"e  c #7C7C7A",
"r  c #767978",
"t  c #6F7374",
"y  c #8E5D5D",
"u  c #98645C",
"i  c #8A6258",
"p  c #AA685D",
"a  c #B96C5D",
"s  c #B77559",
"d  c #8F5B66",
"f  c #A25F68",
"g  c #8A6B65",
"h  c #866867",
"j  c #986C66",
"k  c #81756B",
"l  c #8D746A",
"z  c #847B6D",
"x  c #8B7D6E",
"c  c #857565",
"v  c #9B746A",
"b  c #937B6D",
"n  c #9C7A6B",
"m  c #977368",
"M  c #826871",
"N  c #837573",
"B  c #897571",
"V  c #837C73",
"C  c #8B7D74",
"Z  c #827C7A",
"A  c #8C7C7A",
"S  c #927D73",
"D  c #987876",
"F  c #A86C65",
"G  c #A37A6C",
"H  c #A77568",
"J  c #B47465",
"K  c #B77868",
"L  c #A87A76",
"P  c #B87B76",
"I  c #B56C6F",
"U  c #CA685C",
"Y  c #E6795A",
"T  c #C7696A",
"R  c #C77867",
"E  c #D77965",
"W  c #CA7177",
"Q  c #E17762",
"!  c #E4777D",
"~  c #7D8379",
"^  c #7B826B",
"/  c #8C826D",
"(  c #87836C",
")  c #94866D",
"_  c #9D966F",
"`  c #848376",
"'  c #8C8374",
"]  c #85827D",
"[  c #8C847A",
"{  c #8D8A7B",
"}  c #898976",
"|  c #928574",
" . c #948A74",
".. c #9B8C74",
"X. c #93867B",
"o. c #9A867A",
"O. c #948A7B",
"+. c #9B8C7C",
"@. c #9A8475",
"#. c #9C9275",
"$. c #9C927C",
"%. c #9A977D",
"&. c #A7856D",
"*. c #BB866A",
"=. c #A6966A",
"-. c #A38373",
";. c #A28D75",
":. c #A38C7B",
">. c #AA8579",
",. c #B88679",
"<. c #A29476",
"1. c #AC9C74",
"2. c #A3927B",
"3. c #A9947D",
"4. c #A4997D",
"5. c #AC9C7C",
"6. c #A79674",
"7. c #B59D7E",
"8. c #B69778",
"9. c #ACA17C",
"0. c #A4A27E",
"q. c #B5A67C",
"w. c #B9A878",
"e. c #E58759",
"r. c #C6896D",
"t. c #D7846A",
"y. c #C78676",
"u. c #D48A7A",
"i. c #CB9379",
"p. c #D3976F",
"a. c #E59077",
"s. c #C2AD7B",
"d. c #C5A67B",
"f. c #C7B47B",
"g. c #D4B172",
"h. c #EAA57C",
"j. c #7C7D81",
"k. c #847F82",
"l. c #967E81",
"z. c #BD7C82",
"x. c #E07988",
"c. c #7E9093",
"v. c #848484",
"b. c #8B8482",
"n. c #8B8A84",
"m. c #85868A",
"M. c #8B8A8B",
"N. c #87888A",
"B. c #938C82",
"V. c #9B8D83",
"C. c #958786",
"Z. c #959383",
"A. c #9C9384",
"S. c #9D948B",
"D. c #9A9789",
"F. c #928F94",
"G. c #8B9598",
"H. c #939395",
"J. c #95999D",
"K. c #9A9897",
"L. c #8D8C92",
"P. c #A58883",
"I. c #B68885",
"U. c #A49384",
"Y. c #AB9582",
"T. c #A59A83",
"R. c #AB9B84",
"E. c #A49B8B",
"W. c #AC9D8C",
"Q. c #A6958B",
"!. c #B39D84",
"~. c #B79A87",
"^. c #A39B92",
"/. c #A89B96",
"(. c #ACA28D",
"). c #A9A682",
"_. c #B4A384",
"`. c #BBA484",
"'. c #B4A38B",
"]. c #B9A989",
"[. c #BCB18D",
"{. c #ABA499",
"}. c #BAAB93",
"|. c #B6A696",
" X c #BAB397",
".X c #9C9EA2",
"XX c #9FA0A5",
"oX c #A9A6A5",
"OX c #B5ACA5",
"+X c #B9B2A8",
"@X c #B4B4B5",
"#X c #BBBBBC",
"$X c #BAB7B3",
"%X c #ACB2AF",
"&X c #C89084",
"*X c #C5AA88",
"=X c #CBB08C",
"-X c #C7B788",
";X c #D2BB8F",
":X c #C4AE94",
">X c #C9B595",
",X c #D3B095",
"<X c #C89FA3",
"1X c #C6B9A7",
"2X c #D5BDA6",
"3X c #C5BBB6",
"4X c #BEC0BD",
"5X c #D6C28E",
"6X c #D5C394",
"7X c #CFC4AE",
"8X c #D6C2A7",
"9X c #C8C1B7",
"0X c #D6C7B2",
"qX c #E7D1B8",
"wX c #BCBBC0",
"eX c #BDC2C3",
"rX c #C3C3C5",
"tX c #C5C7C9",
"yX c #CBCBCB",
"uX c #C7C8C9",
"iX c #D1CECD",
"pX c #D3D3D4",
"aX c #D9D5D4",
"sX c #DBDBDC",
"dX c #D6D7D8",
"fX c #D3D2D2",
"gX c #E1DCD9",
"hX c #E4E3DE",
"jX c #DDDEE0",
"kX c #DFE1E2",
"lX c #E3E4E3",
"zX c #E6E6E8",
"xX c #ECECEC",
"cX c #E8E9E5",
"vX c #F4E9EA",
"bX c #F6F1EF",
"nX c #F3F3F3",
"mX c #FFFFFE",
"MX c #F8F7F9",
"NX c #EFF0EF",
/* pixels */
"A.q.;X(.v.+.e o.a.E -.).6X).[ o.e o.a.u.G R t.~.v.Z.r D &Xu.v T t.I.A Z.~ S x.I.+.8.&XP B +.Z B.:X|.",
"$.#.=.' (.!.A.-.,.W S #.=.O.^.!.S.A.P ,.b s s ' ^.8.P.L P &XD G p g K.~.>.>.P y.n H I d Q.~.$.V.W.~.",
"z ' 4.1 [ Y.2.0 w b.- ' <., [ R.2.N N C.t g K : A W H 5 ` l.= Z F & v.I.I N } &.i l K & S !.2.5 x V.",
"D. .q.+.e { ~ A W.E.{ ..q.$.w [ 4 } {.oXn.n r...w A 8 / }.{.n.S r.@.r A & S q.8.D o.>.D 0 { 0 x _.R.",
"T.x C c ,.y.m ..4.3.A.x x k E.!.[ X.Q.S.C.V ' 5 E.(.{ o.R.Y.A.( ' z E._.{ o.3.A.Z.z / q W.'.[ X.+.T.",
"e [ +.B U U U S B.X.0 ] O.V 5.7.2.S j l > C O.V 3.5.3.C | / 0 [ +.V R.7.U.{ +.[ q Z O.z !.7.2.X.+.X.",
"[ |.8XW.# g * @.w.:.Z |.2X!.; 4 < b Q U g ~.8X!.4 2 = ' *X;.0 |.2XW.; 4 < o.d.2.V }.2XW.- 2 ; 0 _.8.",
"C.V.3.+.n.A.Z.C v b k K L b.[ 2.B.X.&.) A 1.!.B.k.W.Z.[ G j l >.Y.O.X.W.D.V ) | q 3.5...[ W.K.; h v ",
"e #./ ' 1X=X;.* j m > a u ` 1X:X;.1 / } 4 _ ' Z {.8X:X3 g u : F l ` `.8X:X2 V ' 3 #./ V 2XqX3X0 h G ",
"z g.g.1.[ | t v t.j i e.p.6.} S 8 { s._ 2 s.q.X.N C Z Z.y.p i R !. .x C V +.]...k w.q...n.A.B.A R R ",
"| s.=.) - c M.Y.p.@.c p.&._ - c M.E.f.<.( q.1.) # 2 [ ^.d.&.h *.<.@.- c ] Y.u.;.( w...C - 2 q V.t.R ",
"5 6 9 9 2.!.3.D.).$., , w e <.7.2.U.).$.= 2 | ` A.q.:.S.T.%.= 4 C N V.q.<.l.L V.* 4 0 w 2.8.5.U.,.L ",
"{ #.s.).0 | ; [  X9.x #.s.(.0 | ; [ }.9.( E.6X(.x | : ] '.q.z (.:X^.0 | : B I.Y.}  .-XE.0  .4 [ I.P ",
"R.5.s.#.b.V.Z T.5X-X4.9.w.4.n.B.Z U.;X-X4.>Xw.%.n.A.q B.;X-X4.:X`.+.] B.~ H x.*X0.q.1.+.n.A.] :.a.u.",
"~ [ ..3 W.=X!.| ) 4.( }  .4 W.=X!.' / #.0 | | 3 '.=XR.' | 2.V { ' : W.=X,.B N +.c n v ; '.:X_.C m :.",
"Z c 5.( 4 | ' 4 | U.4 ( 1.( 0 X.E.k X.:.4 N 2.V 4 ' | N / +.3 z U.0 4 S j w c.H.: d K ` 4 @.' c O.D.",
"^.o.w.6.F./.S.|.2X7X1X+X7X3X$X$XoX+X7X7X1X|.+X1X@XOXF.{.>X X|.{.1XOX/.Q.D oXeX3XOXP y.A.' +.z +.*X].",
"k.0 ) +XcXmXMXnXNXxXcXkXhXxXdXdXtXtXuXtXtXuXrXpXNXH.O = = % o e xXhXw o = o $ = o G.<Xl.+X].+.' o.| ",
"V A.+XJ.NXnXNXxXxXxXNXMXMXzXyXyXuXlXnXnXNXnXbXnXnXxXlXcXzXzXlXxXnXNXlXzXzXcXzXzXyXeXI h %XC k ' T.;.",
"b.}.8X%XNXNXnXMXMXmXmXmXmXsXpXkXyXxXmXmXmXmXmXmXmXmXmXmXmXmXmXmXmXmXmXmXmXmXmXmXMXdXr J./.' q X.!.3.",
"q o.oXoXmXmXmXmXmXmXmXmXmXsXuXiXnXmXmXmXmXmXmXmXMXmXmXmXmXmXmXmXmXmXmXmXmXmXmXmXmXmX9 N.+X>X}.e q O.",
"V 1.|.%XmXMXcXxXxXMXmXmXmXyXrXdXxXmXmXmXmXmXmXmXmXmXmXmXmXmXmXmXmXmXmXmXmXmXmXmXmXMX0 N.+X|.x o.v K ",
" .g.[.$XmXtXm.F.m.lXmXmXmXyXwXdXbXmXmXmXmXmXmXmXmXmXmXmXmXmXmXmXmXmXmXmXmXmXmXmXmXvX+ N.S.-   O R R ",
"5 / F.#XmXeXL..XG.zXmXmXmXdXyXdXNXxXnXmXmXmXmXmXmXmXmXmXmXmXmXmXmXmXmXmXmXmXmXmXmXMX; M.oX-   - R P ",
"` V {.#XmXrXF..XJ.xXmXmXmXdXfXdXxX#XpXMXmXmXmXmXmXmXmXmXmXmXmXmXmXmXmXmXmXmXmXmXmXmX0 J.j..   # ,.L ",
"Z._.6X@XmXeXH..XJ.xXmXmXmXiXtXpXnXmXmXmXmXmXmXmXmXmXmXmXmXmXmXmXmXmXmXmXmXmXmXmXmXvX= /.r .   = :X|.",
"C.+. X#XmXeXF.XXJ.xXmXmXmXyXrXdXnXmXmXmXmXmXmXmXmXmXmXmXmXmXmXmXmXmXmXmXmXmXmXmXmXmXc.M..XX   - ).'.",
"9 / (.4XmXwXj.L.j.lXmXmXmXfXrXdXnXmXmXmXmXmXmXmXmXmXmXmXmXmXmXmXmXmXmXmXmXmXmXmXMXvX= m.MXe   o x +.",
"V...}.#XmXsX@X@X%XxXmXmXmXsXpXpXnXmXmXmXmXmXmXmXmXmXmXmXmXmXmXmXmXmXmXmXmXmXmXmXmXbX- m.rXZ   = _.~.",
"T.Z {.@XmXmXmXmXmXmXmXmXmXpXtXpXxXmXmXmXmXmXmXmXmXmXmXmXmXmXmXmXmXmXmXmXmXmXmXmXmXmXw m.+X`.A.O.$.U.",
"e [ OX#XMXmXmXmXmXmXmXmXmXiXwXsXlXMXmXmXmXmXmXmXmXmXmXmXmXmXmXmXmXmXmXmXmXmXmXmXmXnX* G.+X_.<.X.A.' ",
"[ }.0XoXxXxXzXxXNXnXMXmXmXpX#XjX4XxXmXmXmXmXmXmXMXmXmXmXmXmXmXmXMXmXmXmXmXmXmXmXmXsXA C.J.; - N !.8.",
"B.4.}.H.bXMXnXbXxXcXvXzXcXzXuXaXpXpXsXsXdXdXfXjXMX@Xe n.M.M.e oXdXwXK.v.b.N.v.v.; G.P @ %XW.^.8 g m ",
"e <./ +XaXhXhXgXhXhXaXiXaXlXhXsX#X3X#X4X9XuX3XiXzXK.= 7 3 9 * M.yXH.N.e e e b.k.e /.3XoX1XqX3X8 # G ",
"z w.s.1.A z V &.t.H h I *.:.[ A./.:.i.G 2 T W -.[ ' V D.i.H g R U ,.M.K.l.L r.H & U r.$.[ V.n.l.R E ",
"} w.<./ ; 2 q Y.p...l ,.G / 4 B H.OXt.H g K G / 3 2 V (.i.p h K *.n - : 4 >.t.&.k r.v x 2 z e P.t.R ",
"9 4 4 4 $.`.Y.A.0.<.3 ^ 5 e 2.`.OXOXJ F = 3 ^ r 4.w.Y.K.>.H % h } } 9.q.o.L I ..< 6 q 9 '.=X2.A.*.K ",
"X.#.f.(.0 X.1 / [.9.V #.-XT.4 | 3 C &XK h $.f.).N @.- [ &XJ g ,.;X(.z  .7 l u.8.} #.*X^.0 @.; S i.,.",
"T.5.q._ b.V.V U.5X-X4.1.q.#.{ +.q ;.a.u.I 6.w.0.X.$.z Z.=XE K &Xw.%.X.$.w L a.d.%.q.1.| O.+.r :.h.a.",
"] S H > W.=X~.[ C $.e O...4 '.=X'.` b >.B  . .3 ].=XW.[ b -.h D  .9 '.*X,.A N B.z m G t '.=X'.[ l :.",
"Z g a j r X.' 4 o.$.4 / 9.( 0 O.' V } $.0 ) q.c 9 O.| 0 { :.> h :.z 9 b j w c.S.k u K ` 4 | / V O.D.",
"/.D a J n.$.k  .].*XR.=.q.#.{ V.k +.*X~.U.#.q.<.O.V.4 +.*X7.P f :.O.{ D y M.%XoX>.F J Z.n.Z.k | *X].",
"] 4 n # _.:X3.X.o.[ ' C | 4 _.`.2.X.O.| V q / z ].*X3.| O.| B h S 3 _.*X-.k.N.[ 0 g m 8 &X&XY.[ [ Z.",
"N L ~.B.' C 4 N Y.| 7 A.'.+.x ' k ' Y...4 B.|.B.x x 4 | R.| r Z.}.+.C ' 4 z ;.| 9 D.'.I u d : ~ Y.:.",
"l.W x.z.4 x r q 2...{ }.>XW.0 C r +.!...[ ].>X(.9 x q O.7...V }.2XW.; k 9 O.*X;.b.].,X>.- m N z 4.:.",
"Z D j D '.>X>X4 3 0 Z O.| O.W.>X:X4 4 C 9 O.' [ T.>X:X0 4 ` 9 O.' ' |.2X1X` z V 9 o.S ` |.0X2X4 ; ` ",
"5 9.#.O.U.!.:.S F v # J H | R.'.2.C G n ; J s / T.'.2.' n j > J p j /.9X|.h j | 1 1. .x |.3XoXB H *.",
"' -Xf.1.; - 9 2.Q p h Q p.1.3 - w 2.t.v h e.e.*.* - 4 D.y.p h E Y J * 0 C L T n } f.*X;.- q ` 2.e.E ",
"1 ) 6 3 C +.A.U.R H @ u - 4 ' $.A.U.y.G @ u i 3 ' ..A.K.*.F @ u @ # N O.+.L I +.1 ( , - O.R.Z.A.r.s ",
"` 4 P.S.+.Y.+.A.I.>.4 M P.F.o.8.+.S.~.&.; l I.M.| 3.+.K.Y.K : B P.b.o.P.@.V.I.Y.4 A Y.n.+.!.o.A.I.*."
};
