/* XPM */
static char *hummerup1677765804[] = {
/* columns rows colors chars-per-pixel */
"50 50 247 2 ",
"   c #010001",
".  c #262626",
"X  c #41413F",
"o  c #5A5857",
"O  c #564C49",
"+  c #775D5C",
"@  c #7E4A4E",
"#  c #7C635E",
"$  c #76675E",
"%  c #63625D",
"&  c #785C67",
"*  c #656365",
"=  c #6D6D6C",
"-  c #6D6A66",
";  c #736B65",
":  c #746C6B",
">  c #7C6C6B",
",  c #796764",
"<  c #6D716A",
"1  c #737465",
"2  c #7C7365",
"3  c #74726C",
"4  c #7C746C",
"5  c #7C7A6C",
"6  c #737A68",
"7  c #6C6D72",
"8  c #786972",
"9  c #6F7272",
"0  c #737473",
"q  c #7B7572",
"w  c #7C7A73",
"e  c #767579",
"r  c #7B7B7A",
"t  c #757A77",
"y  c #98595E",
"u  c #83595A",
"i  c #8D635B",
"p  c #97635E",
"a  c #9B705F",
"s  c #AB685B",
"d  c #B4715C",
"f  c #8D5B63",
"g  c #8B6C65",
"h  c #846C6A",
"j  c #876967",
"k  c #966B66",
"l  c #82756B",
"z  c #8D746B",
"x  c #847B6D",
"c  c #8B7D6E",
"v  c #827665",
"b  c #95746A",
"n  c #9B746A",
"m  c #99786A",
"M  c #836C70",
"N  c #837573",
"B  c #837C73",
"V  c #8B7E74",
"C  c #827C7A",
"Z  c #897E7A",
"A  c #8A7575",
"S  c #937D73",
"D  c #987876",
"F  c #956C70",
"G  c #A86C67",
"H  c #BA6A67",
"J  c #A77769",
"K  c #B67766",
"L  c #A47571",
"P  c #A47B73",
"I  c #A97C79",
"U  c #B77A75",
"Y  c #A96D74",
"T  c #B15D6A",
"R  c #C86B5D",
"E  c #EA7657",
"W  c #C9686B",
"Q  c #C77867",
"!  c #D87A65",
"~  c #CF6F76",
"^  c #E17670",
"/  c #7D8278",
"(  c #8C836C",
")  c #89846A",
"_  c #95876D",
"`  c #9C966F",
"'  c #848275",
"]  c #8B8274",
"[  c #84827C",
"{  c #8C837B",
"}  c #8C8A7C",
"|  c #8B8A76",
" . c #928474",
".. c #948B74",
"X. c #9B8C74",
"o. c #93867B",
"O. c #9A857B",
"+. c #958B7B",
"@. c #9B8B7C",
"#. c #9A8375",
"$. c #9C9275",
"%. c #9C927C",
"&. c #99967C",
"*. c #8B9072",
"=. c #A7856A",
"-. c #BC866A",
";. c #A6966B",
":. c #A38373",
">. c #A38C75",
",. c #AB817B",
"<. c #A38B7B",
"1. c #A88779",
"2. c #BD847B",
"3. c #B78677",
"4. c #A39475",
"5. c #AA9B74",
"6. c #A3927C",
"7. c #AA957D",
"8. c #A4997C",
"9. c #AB9C7D",
"0. c #B19D73",
"q. c #B59D7E",
"w. c #B79578",
"e. c #B09C67",
"r. c #AAA17B",
"t. c #B4A47C",
"y. c #BBA777",
"u. c #E3865A",
"i. c #C7886C",
"p. c #D4846A",
"a. c #DB856A",
"s. c #D79968",
"d. c #CA8876",
"f. c #D48678",
"g. c #D09676",
"h. c #E49178",
"j. c #E58C75",
"k. c #C4AB79",
"l. c #C7B37A",
"z. c #D4B671",
"x. c #EAA57C",
"c. c #DBC177",
"v. c #7C7E82",
"b. c #857F82",
"n. c #947A84",
"m. c #B77C82",
"M. c #D67C85",
"N. c #E97486",
"B. c #7F8584",
"V. c #7D9192",
"C. c #848484",
"Z. c #8B8484",
"A. c #8C8A84",
"S. c #8D8C8C",
"D. c #85888A",
"F. c #948C83",
"G. c #9A8D82",
"H. c #938988",
"J. c #959282",
"K. c #9C9384",
"L. c #9C948A",
"P. c #999789",
"I. c #8C8E92",
"U. c #868E90",
"Y. c #8A9194",
"T. c #989696",
"R. c #968B93",
"E. c #A38C81",
"W. c #A68885",
"Q. c #B78784",
"!. c #A49384",
"~. c #AA9483",
"^. c #AC9B84",
"/. c #A3998C",
"(. c #AC9D8B",
"). c #A69786",
"_. c #B39D85",
"`. c #B79986",
"'. c #A59B92",
"]. c #A69B97",
"[. c #B99E93",
"{. c #AAA18C",
"}. c #AAA584",
"|. c #B4A384",
" X c #B4A985",
".X c #B4A38C",
"XX c #BDA98C",
"oX c #BBA587",
"OX c #A8A398",
"+X c #B4A493",
"@X c #BAAB93",
"#X c #B5AA9C",
"$X c #B8A797",
"%X c #BBB787",
"&X c #9D9EA2",
"*X c #A19FA2",
"=X c #9FA1A0",
"-X c #A3A3A3",
";X c #AAA9A7",
":X c #B3ACA8",
">X c #B6B1AB",
",X c #B4B3B4",
"<X c #BBBBBC",
"1X c #B8B9B8",
"2X c #ABB4B4",
"3X c #C89085",
"4X c #C3AC8C",
"5X c #C6AA87",
"6X c #C9B488",
"7X c #C5AD97",
"8X c #C9B494",
"9X c #D2B997",
"0X c #D2AD8A",
"qX c #C7B9A6",
"wX c #C6BDB5",
"eX c #D0AFAA",
"rX c #E78D8D",
"tX c #D3C191",
"yX c #D5C48C",
"uX c #D5C0A6",
"iX c #CBC2B8",
"pX c #E6CEB6",
"aX c #BEBEC0",
"sX c #B8C4C3",
"dX c #C3C3C3",
"fX c #CBCBCB",
"gX c #C8C7C9",
"hX c #CECED2",
"jX c #D3D3D3",
"kX c #D6D6D9",
"lX c #DBDBDB",
"zX c #D8D8D7",
"xX c #D4CECB",
"cX c #E7DACD",
"vX c #DEE0DF",
"bX c #E4E0DD",
"nX c #DEDFE1",
"mX c #DFE0E4",
"MX c #E3E3E3",
"NX c #ECECEC",
"BX c #E8E8E8",
"VX c #F6EFEF",
"CX c #F0F0EE",
"ZX c #F4F4F4",
"AX c #FFFFFF",
"SX c #FBF7F7",
"DX c #EEEFF1",
/* pixels */
"K.t.9X.X[ +.w D j.! :.}.tX XZ @.v.O.h.f.L Q s.w.A.J.t D rXd.L Q a.Q.C F./ D 3X3X#.d.3XU V O.B F.7X$X",
"$.$.;.V OX|.K.1.U 2.S $.;.+.'.|.K.@.3.2.n G d c /.`.G.I U 3.F n s j '.(.1.W.U 2.n J H j ~.`.K.G./._.",
"B ] 8.1 { ^.6.q q Z.; ] 4.3 { ^.6.q N H.9 k K : Z H Y x [ D 7 C K , C.Q.H A | J i g Y 8 S ^.6.x c G.",
"P...t.%.r } / ] (./.F...r.%.q C.4 ] >X1X;X$X`.'.].*X].P.#X>X2X].3X:.r Z & S t.w.S  .3.D w { q V |.|.",
").c V v 3.d.k #.8.7.G.c c 4 )._.{ >XT.;X,X,X,X1X,X,X,X1X,X;X&X,XT.;X).{.} +.4.~.J.x ( w (..X{  .%.!.",
"C { @.x R R R #.%.{ q [ +.B q.q.4.xXBXBXSXAXAXAXAXAXAXAXAXAXAXNXNXlX+Xq.6.o.@.Z q Z +.x _.|.6.o.@.o.",
"] $XqX[.# g - #.oX4.C $X9X.X: 4 7 lXSXNXAXAXvXdXgXfXgXgXhXAXAXNXZXSX{ 2 7 +.5X4.Z @XuX(., 4 : 4 |.w.",
"H.K.7.@.A.K.J.V m m > K ,.Z.{ @.F.bXZXBXAXAX2Xv.Y.Y.I.S.U.CXAXDXZXSXT.).L.Z  .] 5 6.9.X.] {.T.: h m ",
"r $.c ] qX8XX.- F b , d g { qX8X>.MXDXNXAXAX,XI.-X&X&X&XT.DXAXZXNXSXqXuX4X: B ..4 $.( x uXpXwXq j n ",
"x z.z.5.o.] 9 n ! n i u.s.5.| S 0 BXNXCXAXAX;Xv.T.T.T.I.B.DXAXSXNXZX'.V B %. XX.4 y.t.@.A.K.S.D Q ! ",
"| k.;._ ; v A.~.g.#.z s.=._ , v Z.BXNXZXAXAXBXzXnXMXMXnXlXSXAXAXNXNXF.2 { E.d.@.) t.X.c ; 2 w G.p.Q ",
"5 2 0 0 6.q.7./.}.$.- < e / 6.q.6.MXBXSXAXAXAXAXAXAXAXAXAXAXAXAXNXNX#Xt.>.W.I E.< 2 e e 4.w.9.!.I I ",
"| $.l.{.4 o.= { %X}.c $.l.{.q  ., lXNXAXAXAXAXAXAXAXAXAXAXAXAXAXZXMXOX{ : A Q.7.| $.y.{.q +.4 ] 3XU ",
"^.9.y.$.Z.%.[ ~.yX6X6.}.y.%.Z.F.C zXNXAXAXAXAXAXAXAXAXAXAXAXAXAXSXlX>XF.C I ^ 5X).t.5.G.A.G.[ 6.h.f.",
"C  .X.1 (.8X_.] _ 8.x | X.5 (.6X|.BXNXzXkXzXlXkXjXjXlXlXhXjXlXvXNXNXwX0X2.B M G.v n m 0 +X4XoX] b <.",
"r x 9.c 3  . .4  .!.4 ) 5.' 4 o.o.MXgX1X<XgXhXdXsXdXhXgXsXaXgXjXfXzX-Xm k e V.T.> k K B 4 #.] 2 o.P.",
"'.@.y.4.{ @.x +.oXoX).4.r.4.Z.G.F.zXkXvXlXjXjXkXkXkXkXkXkXkXjXmXjXjX>XO.# H.2X;XE.H d %.{ +.l @.4XXX",
"C.q ( v (.XX6.o.X.+.] B _ 5 qXT.:X1XjXwXMXBXNXDXDXZXNXNXCXBXDXgXfXdX:X7XI { C.{ A h k 2 |.oX6.]  .+.",
"B G.+XH.] V 4 c t.$.0 K.+XG.;X(.4 wXjXBXSXAXAXAXAXAXdXZXAXAXAXBXnXgX#XS w B >. .3 P.#X+.S ] l ] 8.@.",
"A.XX9X(.: B 3 ' r.;.+.XX9X(.: { C.sXlXAXAXAXAXAXAXAXgXSXAXAXAXAXCXgXT. .; @.5X4.] @X9X(.3 Z w +.|.w.",
"r o.V B @XuX>Xw 1 w w A.c { ^.8XqX<XlXAXAXAXAXAXAXAXZXAXAXAXAXAXDXfXwXqXqXB [ N q }  .] ).9X7Xq q +.",
"N 0.;._ +XiX#Xb J #.$ -.=.` ^._.!.dXlXAXAXAXAXAXAXAXAXAXAXAXAXAXDXfXwXwX#Xj k  .4 5.$.] ~.|.9.c n J ",
"*.z.z.0., v ' 1.a.m i E s.y.2 $ w gXzXAXAXAXAXAXAXAXAXAXAXAXAXAXDXgXH.4 B P ~ =.) z.l.<.2 $ 5 9.! Q ",
"5 ..2 2 z _ { E.d.J , p # 4 ( >./.dXxXAXAXAXAXAXAXAXAXAXAXAXAXAXNXdX'.] X.I U :.1 ( 2 4 V >.&.~.Q U ",
"B B { { +.7.} #.U J > h b Z { 6.+.fXlXAXAXAXAXAXAXAXAXAXAXAXAXAXNXhX:XK.X.I U D q q  .{  .7.X.%.,.,.",
"L._.c.k.q o.0 n j.f.P  X6X XC { [ BXSXSXAXAXAXAXAXAXAXAXAXAXAXAXZXZXOX| t F M.[.%.~.6X Xw { = { 8X@X",
"F.@.e.) /.|.K.,.3.2.m &.4.) /.|.{.&X<XAXAXAXAXAXAXAXAXAXAXAXAXAXMX-X>X`.:.I U _.} o.4.( '.].G.E.^..X",
"0 ( 5.2 o.|.6.8 8 Z.3 *.4.5 o._.{.o b.AXAXAXAXAXAXAXAXAXAXAXAXAXzXO '.3.G h ] +.> B X.4 o.).!.x c +.",
"F.X.y.4.e Z l B {.OXO.J 3.D t { ] = I.AXAXAXAXAXAXAXAXAXAXAXAXAXlX* S.A j ( %X Xo.o.q.$.r { l ( |.`.",
"!.V V x /.+X .o.<.8.<.y y f (.|.G.= S.AXAXAXAXAXAXAXAXAXAXAXAXAXlX* :X X$...5.7.K.( V B /.|. .{ %.!.",
"C Z @.C ^._.8.V Y k 8 A Y j 7.|.(.= I.AXAXAXAXAXAXAXAXAXAXAXAXAXlX* $Xt.5...X.V q [ K.C ~._.7.o.K.{ ",
"{ @X9X.X: 1 = j W H M 3XrXU ; 5 t * C.AXAXAXAXAXAXAXAXAXAXAXAXAXzXo Z.3 - _ l.>.q +X9X^.$ 4 - 5 q.w.",
"F.8.y.%.Z 6.P.h i z F Y 3.K.] !.OXC.-XAXAXAXAXAXAXAXAXAXAXAXAXAXBX0 T.H.n.F J n A U 3.+.{ +XT.: i m ",
"r %.) { 4X9X@Xh h B 8 k z { XX9X8XfXjXAXAXAXAXAXAXAXAXAXAXAXAXAXZXBXwXxXeX2 k A ; s a ' qXpXiX> # L ",
"w y.k.5.Z x c :.p.J , W 2.<.' x F.T.dXAXAXAXAXAXAXAXAXAXAXAXAXAXZXBX;XR.D D i.J + R i.%.Z %.A.H.Q Q ",
"] y.4.( : 2 w ~.g.=.z 3.m c 4 2 S.C.-XAXAXAXAXAXAXAXAXAXAXAXAXAXlXb.} > N ,.p.J l -.D c 2 x t W.a.Q ",
"0 2 2 q %.oX~.K.r.$.1 / ) / 6.oX{.= C.AXAXAXAXAXAXAXAXAXAXAXAXAXzXo oX XO.P K X.< 5 5 0 .X6X!.G.-.K ",
"+.%.l.{.q  .; ] XXr.x %.l.P.4  .B e I.AXAXAXAXAXAXAXAXAXAXAXAXAXlX* | +.7 z f.w.[ K.y.'.N  .; S g.2.",
"}.9.y.$.A.@.B 8.tX6X%.t.t.4.{ <.A.: S.AXAXAXAXSXAXAXAXAXAXAXAXAXlX* {.X.q I j.k.&.t.5.O.} @.t 7.x.h.",
"r S J # {.8X_.{ ( %.B ..X.4 (.6X.Xv.S.AXAXAXAXAXAXAXAXAXAXAXAXAXlX* wX0XU Z C H.v m J 9 +X6X.X{ z <.",
"N j H k q o.( 4 o.K.4 ( r.c q o.] C S.AXAXAXAXAXAXAXAXAXAXAXAXAXlX* T.b k e V.T.N p K ] 4 ..] x o.P.",
"'.L d K A.G.l +.oX4X^.;.t.$.A.@.l [ r AXAXAXAXAXAXAXAXAXAXAXAXAXdX% ].O.u H.2X;XE.s K J.A.J.4 o.4XoX",
"C.4 m , .XXX8. .#.o.| x _ 4 |.5X8.I.U.DXAXAXSXSXAXSXAXSXVXAXAXBXsXB.@X5X,.{ D.{ B z k : 3X3X7.o...J.",
"N I `.G.] | l N 7. .9 L.+X+.c ] q iXm.o.9 B.: , C., r q - C e B.m.eX+.V 5 l >. .3 P.[.Y y y > w ~.@.",
"D ~ N.m.6 x B w 7.X.{ @X9X{.4 V q >Xu b.B.e t v.C.R.I.B.v.e v.U.+ W.9 l : +.5X$.Z..X0X3.< z 5 5 8.1.",
"b.D F D .X9X7Xq < q C +.] { .X8X7X[ ;X-X-X;XjXSX-XU.I.:XOX>X&X;X2X].#XqXqXB x B w F.S Z $XpXqXN < [ ",
"/ r.` ..~.^.<.S G n , H J ..^.(.8.V J b : K (.*X. . . r S P , d s k ].iX#Xh G S 1 8...B #XwX#XZ J -.",
") 6Xl.8.: ; 3 7.! s j ! s.0.1 ; 3 !.p.J 2 j.              z j ! E K - N B P W _ / z.k.>.; 5 [ <.u.p.",
"1 ) 2 6 B <.K.!.Q J + p ; 5 ' %.K.E.i.m $ G o O * $ - 3 O P + i + + C o.X.m.Y O.1 ) < ; +.^.G.K.i.d ",
"] v !.R.%.~.+.K.Q.,.4 j W.R.@.w.@.L.`.,.> z 1.S.+.w.X.T.Q.K > z W.Z.D ~.X.G.Q.7.4 Z ~.A.@.`.+.K.2.-."
};
