/* XPM */
static char *hummerright1677765794[] = {
/* columns rows colors chars-per-pixel */
"50 50 241 2 ",
"   c #010101",
".  c #242324",
"X  c #585656",
"o  c #4E4C4B",
"O  c #775D5C",
"+  c #685C5C",
"@  c #7E625E",
"#  c #76675E",
"$  c #79725D",
"%  c #715D66",
"&  c #5F6160",
"*  c #6D6C6B",
"=  c #696665",
"-  c #7D6464",
";  c #746B65",
":  c #736D6B",
">  c #7B6C6A",
",  c #796766",
"<  c #6C716B",
"1  c #7C7464",
"2  c #73736B",
"3  c #7C756C",
"4  c #7C7A6D",
"5  c #737566",
"6  c #776C72",
"7  c #757473",
"8  c #7B7572",
"9  c #7D7A73",
"0  c #757579",
"q  c #7C7B7B",
"w  c #757879",
"e  c #6E7174",
"r  c #8C5A5B",
"t  c #98645C",
"y  c #8A6258",
"u  c #AA665C",
"i  c #B96C5D",
"p  c #B77559",
"a  c #905763",
"s  c #A25F68",
"d  c #8A6B66",
"f  c #876968",
"g  c #986B66",
"h  c #827565",
"j  c #81756B",
"k  c #8D7569",
"l  c #837B6D",
"z  c #8C7D6D",
"x  c #96746B",
"c  c #9B746A",
"v  c #927A6C",
"b  c #9C7A6B",
"n  c #9B7164",
"m  c #826871",
"M  c #827673",
"N  c #8A7572",
"B  c #837C73",
"V  c #8B7D74",
"C  c #827C7A",
"Z  c #8A7C7A",
"A  c #937D72",
"S  c #987877",
"D  c #AB6C63",
"F  c #A66B67",
"G  c #A77669",
"H  c #B67667",
"J  c #A87A77",
"K  c #B77A76",
"L  c #B76B6C",
"P  c #C66C5D",
"I  c #E6795A",
"U  c #C77767",
"Y  c #D87B66",
"T  c #CB6C6E",
"R  c #E17762",
"E  c #7D8376",
"W  c #7A826B",
"Q  c #8B826C",
"!  c #88836A",
"~  c #95866C",
"^  c #8C8274",
"/  c #85827C",
"(  c #8C847B",
")  c #8D8A7B",
"_  c #878776",
"`  c #928574",
"'  c #948A74",
"]  c #9B8C74",
"[  c #93867B",
"{  c #99867A",
"}  c #948B7B",
"|  c #9B8C7C",
" . c #9B8576",
".. c #9D9375",
"X. c #9C927B",
"o. c #9A957C",
"O. c #9B976F",
"+. c #AA866C",
"@. c #BA866B",
"#. c #A6966B",
"$. c #A28D75",
"%. c #A38B7A",
"&. c #A88478",
"*. c #B88679",
"=. c #A39375",
"-. c #AB9C75",
";. c #A3937B",
":. c #A9947C",
">. c #A4997C",
",. c #AC9C7D",
"<. c #A59875",
"1. c #B59D7D",
"2. c #B69878",
"3. c #ADA17B",
"4. c #A8A179",
"5. c #B5A67B",
"6. c #BAA57C",
"7. c #B9A877",
"8. c #E58759",
"9. c #C4896C",
"0. c #D6846A",
"q. c #C58979",
"w. c #D48879",
"e. c #CB9479",
"r. c #D4956E",
"t. c #E58A7A",
"y. c #E59474",
"u. c #C3AA7B",
"i. c #C4B27D",
"p. c #CAB577",
"a. c #D4B472",
"s. c #EAA57C",
"d. c #7D7D81",
"f. c #817F80",
"g. c #947E81",
"h. c #B07E81",
"j. c #E77683",
"k. c #D67E8A",
"l. c #7B8483",
"z. c #7E9193",
"x. c #848383",
"c. c #8C8483",
"v. c #8D8A84",
"b. c #888A8A",
"n. c #938582",
"m. c #938C82",
"M. c #9A8D83",
"N. c #968A89",
"B. c #959284",
"V. c #9C9384",
"C. c #9D948B",
"Z. c #9B9887",
"A. c #8D8E92",
"S. c #858F90",
"D. c #8E9194",
"F. c #939395",
"G. c #9D9A95",
"H. c #9A9796",
"J. c #958E95",
"K. c #A58982",
"L. c #B68884",
"P. c #A49384",
"I. c #AA9582",
"U. c #A49A84",
"Y. c #AB9B83",
"T. c #A39B8B",
"R. c #AC9D8B",
"E. c #A6938B",
"W. c #B39D85",
"Q. c #B29E8B",
"!. c #B89887",
"~. c #A39A92",
"^. c #A79C96",
"/. c #B89A91",
"(. c #ABA18D",
"). c #A8A585",
"_. c #B4A383",
"`. c #BBA484",
"'. c #B4A38B",
"]. c #BBA68C",
"[. c #BDA98B",
"{. c #B7AA83",
"}. c #ABA39A",
"|. c #A8A494",
" X c #B4A493",
".X c #B9AA92",
"XX c #B6A797",
"oX c #B7B18F",
"OX c #9E9EA2",
"+X c #9FA0A4",
"@X c #A2A3A4",
"#X c #AAA8A6",
"$X c #B2AAA4",
"%X c #B5B1AB",
"&X c #ADB4B7",
"*X c #BBBBBB",
"=X c #B5B5B4",
"-X c #AFB0B0",
";X c #C39987",
":X c #CB938D",
">X c #C3AB8C",
",X c #C6A986",
"<X c #C9B489",
"1X c #C4AE93",
"2X c #C9AC9E",
"3X c #C9B595",
"4X c #D2B89A",
"5X c #D5B08E",
"6X c #C8B8A7",
"7X c #D7BAA4",
"8X c #C6BCB6",
"9X c #D3A8A1",
"0X c #E3B2A3",
"qX c #D3C191",
"wX c #D5C28D",
"eX c #D7C2A4",
"rX c #C6C1BB",
"tX c #E6CEB6",
"yX c #BDBEC1",
"uX c #C4C4C5",
"iX c #CBCBCB",
"pX c #C9C7C6",
"aX c #D3D1CE",
"sX c #CECED0",
"dX c #D3D3D4",
"fX c #D6D6D9",
"gX c #DCDCDC",
"hX c #DAD7D4",
"jX c #CED0D0",
"kX c #E4E4DF",
"lX c #DEDEE0",
"zX c #E4E4E3",
"xX c #ECECEC",
"cX c #E8E8E8",
"vX c #EFEFF1",
"bX c #F1EFF0",
"nX c #EDF2F3",
"mX c #F4F3F3",
"MX c #FFFFFF",
"NX c #FAF7F8",
"BX c #EFEFED",
/* pixels */
"V.5.4X)./ | q S t.Y &.).qX'./ | q { :X0.G U r.1.c.B.q S :X:XJ P 0.L./ m.E S :X:XJ 2.w.h.V %.8 m..XXX",
"X...#.^ |.W.X.&.K *.v ..#.' T.W.V.P.K q.x D p V G.2.{ &.K U S b u f ~.Q.%.&.K *.n G H a I.!.V.P.R.!.",
"l ^ >.2 ( Y.>.8 8 c.; ^ >.< ( W.=.M M N.e g p > Z L L l C g.* M D - x.L.L N _ G y k J % ` I.X.B ^ | ",
"Z.' 5.| q ) q ( R.T.} ] 3.X.8 x.8 / XX}.v. .9.] q Z 6 ^ oXXXb.A @.&.w Z m k {.2.A S *.S 7 [ 8 z _.R.",
"P.V V h @.q.c  .>.I.X.l z 3 I.W.^ [ E.C.n.B ^ 9 R.).( { Y.I.V.l _ l E._.) } :.V.m.l ! 9 R.].( [ | U.",
"q ( X.N P P P S } [ 8 x.} l W.1.;.A G d - Z } l I.,.:.^ ` Q 7 ( | B Y.1.P.[ | ( 8 V } l W.W.;.[ | [ ",
"( .X7XR.@ d , ` `.=.C XX7X(.2 3 < v R i f /.eXR.: 3 = ^ `.$.8 .X7XR.2 3 * } u.%.B ].eX(.; 3 ; 3 _.2.",
"m.M.>.| v.V.B.V b x 3 H J [ x.%.N.( #.b Z -.1.m./ R.N._ +.g N *.Y.{ [ T.C.V ~ ^ q :.3.{ ( R.H.: f b ",
"q ..z ^ 6X1X$.* g x - u k V 4X3X$.2 ' _ 3 O.Q C }.eX1X2 d t - D z Z '.eX1X> B ' 2 ..z B eXtX8X7 f G ",
"l a.a.-.[ Q 7 c 0.g y 8.r.-._ V 6 ( i.O.3 u.5.( M ` C B.q.u r U ,.' z Q B | '.] j 7.6.| v.V.N.S U U ",
"_ u.#.~ ; h b.I.r. .k r.+.~ ; h v.T.p...l 7.#.' ; 1 Z ~.u.+.h @.=. .; 1 / E.e.$.! 5.] V ; $ q M.0.U ",
"4 1 7 7 :.W.:.T.).o.< 5 0 q =.1.:.C.(.o.= 1 ' _ X.1.:.C.Y.o.= 2 ( M X.1.:.J J M.< 1 7 w =.1.<.P.J J ",
") ..i.Y.9 ` : ( oX3.l ..i.(.8 [ : / oX5.l (.4X(.l } 2 C  X3.! (.1XG.3 ` > N h.:.) ..{.R.8 ` 3 ( ;XK ",
"Y.3.7...v.M.C >.wX<X>.3.7.>.c.M.B V.5X<X>.3X7.>.m.| B M.5X<XU.oX`.| c.B.B J j.,X>.5.-.| m.B./ :.t.w.",
"/ [ ' 3 R.3XW.^ ~ >.! ) ' 8 R.<XW.^ ` o.3 ` ` : '.>XY.^ A >.^ ) ` : |.,X*.V j M.h c b 7  X>X`.V x %.",
"q h ,.! 2 ` A 3 ' P.7 Q -.! 3 [ ^ j ` X.8 l P.B 3 ` [ M Q | 2 l $X~.2 S g 7 z.H.m d H B 3 { ^ 3 } Z.",
"~.] 5.#./ M.j { `.,XU.<.3...n.| 3 } ,X].E.] :.M.( } 3 | >XW.I.] $XH.) { f c.&X#XK.D P o.( { 3 | >X].",
"x.4 Q h Q.>X%.Z | } V B ' B '.<XR.` { ' ^ 9 ^ 1 '.].:.[ | [ ( j z G..X`.&.Z b.V N d x 5 '.[.=.^ ` { ",
"Z M. XN.^ [ ^.8X~.v.b.b./ / 8 b.@XiXc.7 w q q < #XgXpXrXpXuX*X8XyX*XdXgXgXaXhXhXgXkXkXhXhXrXG.` U.$.",
"v.[.3XR.; -XO :Xl.* q C l./ 0 OXyXjXF.8 C x.C * *XNXhXiXjXdXfXdXdXaXdXsXxXzXcXcXcXxXmXNXNXgXH.~.W.:.",
"q [ V V  X8XZ n.nXMXMXMXMXMXMXMXMXMXMXMXMXMXMXMXMXNXMXMXMXMXMXMXzX*XgX*XgXMXMXmXbXxXxXcXxXzX#XG.9 m.",
"M -.#.~ }.8Xl.w MXMXMXMXMXMXMXMXMXMXMXMXMXMXMXMXMXMXMXMXMXMXMXMXNXgXfX*XgXMXMXMXMXMXMXMXMXmX-X}.G G ",
"' a.a.7.; @Xw C MXMXMXMXMXMXMXMXMXMXMXMXMXMXMXMXMXMXMXMXMXMXMXMXMXcXfXuXgXMXMXMXMXMXMXMXMXMX*XXXY U ",
"4 ' =   C.aX0 6 MXMXMXMXMXMXMXMXMXNXMXMXMXMXMXMXMXMXMXMXMXMXMXMXMXxXsXiXzXMXMXMXzX-X*X*XxXMX-X^.U H ",
"_ B +   @XMXw = NXMXMXMXMXMXMXMXMXMXMXMXMXMXMXMXMXMXMXMXMXMXMXMXMXxXfXuXgXMXMXMXsXq A.d.iXMX=XG.&.&.",
"C.,.!   o -Xf.b.MXMXMXMXMXMXMXMXMXMXMXMXMXMXMXMXMXMXMXMXMXMXMXMXMXxXgXyXdXMXMXMXlXD.+XA.dXMX-X}.3XXX",
"m.] $   . A.J.> NXMXMXMXMXMXMXMXMXMXMXMXMXMXMXMXMXMXMXMXMXMXMXMXMXxXdXuXdXMXMXMXlXD.OXA.dXMX-X$XR.'.",
"7 Q 1   . D.A.8 MXMXMXMXMXMXMXMXMXMXMXMXMXMXMXMXMXMXMXMXMXMXNXpXuXxXfXsXgXMXMXMXlXF.OXA.sXMX=X~.z { ",
"| ] h   7 =XC C MXMXMXMXMXMXMXMXMXMXMXMXMXMXMXMXMXMXMXMXMXMXMXxXxXxXfXiXgXMXMXMXlXD.+XA.dXMX-XC._.!.",
"U.V o   C.rXw , NXMXMXMXMXMXMXMXMXMXMXMXMXMXMXMXMXMXMXMXMXMXMXMXMXxXfXyXfXMXMXMXsXd.D.x.fXMX-XC.X.P.",
"C ( B.=  X8X0 q MXMXMXMXMXMXMXMXMXMXMXMXMXMXMXMXMXMXMXMXMXMXMXMXMXzXgX*XfXMXMXMXmXlXcXcXNXMX=X~.B.} ",
"/ [.4X'.; @Xq q MXMXMXMXMXMXMXMXMXMXMXMXMXMXMXMXMXMXMXMXMXMXMXMXMXcXdXuXzXMXMXMXMXMXMXMXMXMX+X^.W.2.",
"m.>.6.V.^ %XS.d.vXMXMXMXMXMXMXMXMXMXMXMXMXMXMXMXMXMXMXMXMXMXMXMXcXiXlXdXzXMXMXMXMXMXNXmXvXcX-XH.d g ",
"q ..Q ) .X*Xr h.jXgXvXvXxXvXbXxXbXNXNXxXmXbXbXnXmXmXmXmXmXmXmXmXgXiXiXiXxXNXNXxXxXxXxXvXmXlXH.N.O G ",
"l i.u.<.V @XS 2Xl.X = = & = X x.xXcX* X & & = o #XmXiXuXpXpXpXpXiXiXdXfXbXlXzXzXxXbXNXNXMXgX&XN.9.Y ",
"_ 5.O.~ > , c.XX<X X^.2X/.C.) C.%X6X:XL.M.:XE.R.|.%X%X*X7X:X#X9X2X#X$X%X%X8X0X2X^.4X X~.m.m.B N.0.U ",
"2 3 1 7 ..`.I.U.4...* W 4 q =.`.U.P.L D = 5 W 4 >.6.>.T.&.D % - ' G.4.5.M.J H  .< 2 4 7 ].<XP.M.@.H ",
"} ] i.R.9 ` ; ^ oX3.B X.i.T.j ` 2 V ;XH m ..<X(.l ` ; ( ;XH f *.5X|.l ' 6 f w.2._ >.7.~.8 ' : A e.*.",
"T.,.7.=.v.| M I.wX<Xo.5.5.<.n.| 9  .y.w.D 2.7.>.m.| l B.5XY H q.7.o.o.=.0 J t.u.>.{.-.{ n.| 9 P.s.y.",
"/ A G , |.<XQ.^ ! P.l ' ] 7 Q.<X'.( v $.N ` ' 2 '.<XQ.( N &.f S } 2 ).,XL.V C { 4 x b *  X<X'.^ x %.",
"C m H t w ` ^ j [ P.3 ~ 4.l 9 } V B ^ | w ~ 7.l 7 } ` 8 ) X.- f %.^ 0 v d w S.H.3 t H ^ 7 ' ^ B } B.",
"~.G i G v.M.j ' ,X].Y.#.3.=.) M.j | >X`.;...3.<.} M.3 | >Xe.J s %.' ( S r v.&X#XK.u H B.v.o.3  .[.].",
"x.j v y _.1X:.( [ ` ( l ` 3 _.`.>.[ } ` B 4 Q l [.`.:.` } ` N f V 2 _.,XJ c.c./ M f x 8 ;X:X:.[ [ m.",
"M J !.N.^ ^ j B :.` e C.'.| z ^ j ( I.] 8 N. Xm.z Q 3 ` Y.` w B.].| V ^ 4 h =.` 2 Z./.F a a 1 q Y.X.",
"S k.j.K 2 ! C B -.] v..X4XR.8 V 9 } W.] ^ [.4XR.7 z 3 } 1.] V .X4X(.: j : } ,X$.c.'.5X*.# k j 8 >.%.",
"f.S g S (.5X1X7 < 7 C } ^ } R.3X1X3 3 V 7 ) ^ ( R.3X1X8 2 _ 7 } ) ( XX7X6X_ l q 8 n.V ^ .XtX6Xj ; / ",
"W 4.O.) P.W.%.` F c @ i G ~ Y.'.=.V G b = H p Q Y.'.=./ c g - D u g ^.rXXXf g ` 5 -...B XX8X$XV G @.",
"^ <Xp.;.: ; 7 %.R D d Y r.-.2 ; 0 U.0.c f 8.8.@.* : 3 Z.e.u d Y I H : 7 B J T b _ p.6.$.; 4 / %.8.Y ",
"5 ' 1 2 V ] V.P.U G O t : 3 ^ X.V.P.9.G # t f ; B | V.G.*.u O t O # M } ] J K { 5 ! ; : } Y.M.C.9.p ",
"B 3 E.N.o.I.m.P.L.J 3 f K.J.{ 2.} C./.+.> f %.N.[ 2.| G.I.H > N K.g.S P.{ M.L.P.8 V I.v.| !.] B.*.@."
};
