/* XPM */
static char *_e650ccf56854a51b163c7d4a131643drPJl9YsHDi9KgPgI[] = {
/* columns rows colors chars-per-pixel */
"50 50 214 2 ",
"   c #0C000A",
".  c #0A0109",
"X  c #160107",
"o  c #14010B",
"O  c #1B010C",
"+  c #1D060A",
"@  c #1A0512",
"#  c #22030D",
"$  c #230B0D",
"%  c #2B060D",
"&  c #39040D",
"*  c #2A110E",
"=  c #26110F",
"-  c #331C0F",
";  c #250111",
":  c #2C0114",
">  c #2B0119",
",  c #320216",
"<  c #3A031A",
"1  c #340618",
"2  c #331C11",
"3  c #2E1C10",
"4  c #37240F",
"5  c #0B1D2D",
"6  c #041A2E",
"7  c #0B1D32",
"8  c #041D3C",
"9  c #071D3A",
"0  c #161523",
"q  c #3D0221",
"w  c #10202F",
"e  c #0B243A",
"r  c #052A3D",
"t  c #0B2A3C",
"y  c #0B2335",
"u  c #122434",
"i  c #1D2736",
"p  c #152937",
"a  c #142639",
"s  c #142A3B",
"d  c #192B3A",
"f  c #1A2838",
"g  c #0F212D",
"h  c #282635",
"j  c #352431",
"k  c #243636",
"l  c #4C060F",
"z  c #44030D",
"x  c #43041C",
"c  c #67090E",
"v  c #79090E",
"b  c #720914",
"n  c #432C12",
"m  c #483513",
"M  c #523D13",
"N  c #412C0F",
"B  c #4C0422",
"V  c #4B0526",
"C  c #530525",
"Z  c #5B0529",
"A  c #550528",
"S  c #571F2C",
"D  c #64062E",
"F  c #68062F",
"G  c #691D27",
"H  c #781B22",
"J  c #6B0732",
"K  c #6A0831",
"L  c #740636",
"P  c #7B0637",
"I  c #7B0936",
"U  c #76073A",
"Y  c #7A0739",
"T  c #75083B",
"R  c #7B083A",
"E  c #750937",
"W  c #740925",
"Q  c #4E212C",
"!  c #40222E",
"~  c #58202B",
"^  c #442230",
"/  c #3A4736",
"(  c #584413",
")  c #624C15",
"_  c #6C5818",
"`  c #725E19",
"'  c #7B661A",
"]  c #414834",
"[  c #4A5338",
"{  c #596036",
"}  c #717334",
"|  c #1A3446",
" . c #153045",
".. c #223B52",
"X. c #28465D",
"o. c #264256",
"O. c #2C4C65",
"+. c #2E506B",
"@. c #32536E",
"#. c #355564",
"$. c #395B76",
"%. c #496475",
"&. c #870C0F",
"*. c #9C0D13",
"=. c #9A171C",
"-. c #99171A",
";. c #910E10",
":. c #AB0D1E",
">. c #AD0E11",
",. c #BB0F16",
"<. c #B20E15",
"1. c #A81519",
"2. c #BA1214",
"3. c #B6101B",
"4. c #BA1218",
"5. c #AB0D0E",
"6. c #9B0C29",
"7. c #960C29",
"8. c #8A1920",
"9. c #861720",
"0. c #850933",
"q. c #890A31",
"w. c #80073B",
"e. c #82093C",
"r. c #940C32",
"t. c #AA0E22",
"y. c #A30D26",
"u. c #B00F21",
"i. c #CA0F0E",
"p. c #D20E0E",
"a. c #C5100F",
"s. c #CB110E",
"d. c #D0100E",
"f. c #C50F12",
"g. c #C90F12",
"h. c #D10F11",
"j. c #C61012",
"k. c #CA1112",
"l. c #D21112",
"z. c #DC1111",
"x. c #826B1B",
"c. c #907A1C",
"v. c #9E861E",
"b. c #9D881D",
"n. c #A9951F",
"m. c #B29B1F",
"M. c #868431",
"N. c #A38E21",
"B. c #B59C21",
"V. c #BA9E23",
"C. c #AB9422",
"Z. c #BAA627",
"A. c #BDAE31",
"S. c #C6AC23",
"D. c #CEB425",
"F. c #CBBA2C",
"G. c #D4BB25",
"H. c #DBC226",
"J. c #E1C625",
"K. c #E9CE26",
"L. c #E4CA28",
"P. c #ECD227",
"I. c #EBD329",
"U. c #ECD829",
"Y. c #FDDE27",
"T. c #F5D929",
"R. c #FEDE29",
"E. c #F5D927",
"W. c #FFEA26",
"Q. c #FEE12A",
"!. c #FEE42A",
"~. c #FFED2B",
"^. c #FFEB2B",
"/. c #FEE727",
"(. c #FFF02A",
"). c #3F6886",
"_. c #436C8B",
"`. c #406985",
"'. c #4C7B9E",
"]. c #49779D",
"[. c #4E7690",
"{. c #4E7CA1",
"}. c #517DA2",
"|. c #527FA8",
" X c #5F8496",
".X c #6B8D9B",
"XX c #5282A6",
"oX c #5483AA",
"OX c #5C8AAB",
"+X c #6E9AAE",
"@X c #78A7BC",
"#X c #77A9C4",
"$X c #97ABB4",
"%X c #83B5C7",
"&X c #89BDD2",
"*X c #AEBFC7",
"=X c #8EC6D9",
"-X c #8CC0D5",
";X c #93C5D6",
":X c #93C6D9",
">X c #95CADC",
",X c #99CDDE",
"<X c #99D1DF",
"1X c #B0C8D1",
"2X c #99CDE1",
"3X c #9BD2E2",
"4X c #9BD4E6",
"5X c #ABD6E4",
"6X c #C1DEEC",
"7X c #CCE7EF",
"8X c #D6EAF1",
"9X c #FDFDFD",
"0X c #F3FAFB",
"qX c #E6F2F5",
/* pixels */
"R.R.R.R.R.R.R.Y.R.R.R.Y.R.R.Q.Y.R.R.R.R.R.R.Y.R.R.R.R.Y.R.R.R.R.R.R.R.R.R.R.R.R.R.R.R.R.R.R.R.R.R.R.",
"R.R.R.Y.R.Q.R.R.R.R.R.R.R.R.R.R.R.R.R.Q.R.R.R.Y.R.R.R.R.Y.Q.R.R.R.R.R.R.R.R.R.R.R.R.R.R.Q.R.Y.R.Q.R.",
"R.R.R.R.Y.R.R.R.R.Y.Q.R.Q.R.Y.R.R.Y.R.R.R.R.R.T.Y.R.R.R.R.R.R.R.R.Q.R.R.Q.Y.Q.R.R.R.R.R.R.R.R.R.R.R.",
"R.R.Q.R.R.R.Q.R.R.R.R.R.R.Q.Y.R.R.R.T.R.Q.Q.!.^.!.^.Q.Q.R.T.R.R.R.R.R.R.R.R.R.R.R.R.R.Q.R.Y.R.Q.R.Y.",
"R.R.R.R.R.R.R.Q.R.R.R.R.R.R.R.R.Q.~.~.^.T.L.G.G.D.D.G.P.Q.~.~.Q.T.Q.Q.R.Y.Q.R.Q.R.R.R.R.R.R.R.R.R.R.",
"R.Y.Q.R.R.R.R.Y.R.R.R.R.R.E.^.~.L.B.' M 2 $ O O O O # * n _ B.T.~.T.R.R.R.R.R.R.R.R.Q.R.R.Y.R.R.R.R.",
"R.R.R.R.Q.R.R.R.R.R.R.T.!.^.S.) $ o   o O O O O O O O @ o .   2 b.!.!.T.R.R.R.R.Q.R.R.R.R.Q.R.Y.Q.R.",
"R.R.R.R.Y.R.R.R.R.R.R.~.G.( o   O ; O o o o O O # O   o O ; # o . M P.Q.R.Y.R.R.R.R.Y.R.R.R.R.R.Y.R.",
"R.Q.R.R.R.R.Y.Q.R.R.~.v.+   + # o o # l v *.>.<.>.5.&.c & o   O #   4 I.Q.E.R.Y.Y.R.R.R.R.R.Y.Q.R.R.",
"Y.R.R.R.R.R.R.R.R.^.' . O # #   % v 2.l.l.l.k.k.k.g.s.l.j.*.l o o #   ( !.R.R.R.R.R.R.R.R.R.R.R.R.R.",
"R.R.R.R.Y.R.Q.E.~.' . + # o o b f.l.k.j.j.a.j.j.f.f.j.j.j.l.l.*.% o #   b.~.R.Y.R.R.R.Q.R.R.R.R.R.Q.",
"R.R.R.Q.R.R.E.~.N.. # O X z <.z.h.g.p.k.s.s.j.j.k.j.j.f.j.j.g.l.<.; O O 2 E.Q.R.R.Q.R.R.Y.Q.R.R.Y.R.",
"R.R.R.R.R.R.~.H.+ @ @ @ 1 -.1.=.=.=.=.1.<.j.s.p.f.j.f.j.j.j.j.j.l.W o O . n.^.R.R.R.R.R.R.Q.R.R.R.R.",
"Y.R.R.T.!.Q.A.] 7 d a s s s r r t t t t f h Q 8.j.p.j.k.j.j.j.j.k.y.> + o M ^.R.R.R.R.R.R.R.R.R.R.R.",
"R.R.T.^.F./ 8 r d s d d s s a p p a f d p t r r h 8.p.f.j.g.j.f.k.u.V X O @ H.!.R.R.Q.R.R.R.R.Q.R.Q.",
"R.R./.Z.e e d u 7 6 6 7 y p p s s s u 7 5 5 w u r  .G s.j.k.j.j.k.3.K O #   n.~.R.R.R.Y.R.R.R.R.R.R.",
"R.!.F.t u f 5 o.%..X$X*X1X1X%X%X%X%X@X+X.X_.o.w i a r H d.j.j.j.k.3.Y ; O o ' ^.T.R.R.R.R.R.R.R.Y.R.",
"R./.[ 8 s p +X8X9X9X9X9X9X9X7X>X3X2X<X3X4X4X,X[. .u p a <.g.j.j.g.f.w.< o o n Q.R.T.Y.Q.R.R.R.R.R.R.",
"/.F.y s 5  X0X9X9X9X0X9X9X9X7X=X,X;X,X;X>X;X3X#X_.a f r G p.j.j.k.,.e.V X O = U.^.R.R.T.R.R.R.R.R.Q.",
"/.M.9 p | ;X9X9X9X9X9X0XqX7X,X>X>X>X>X,X>X>X3X#X}.O.w t j s.a.j.k.j.e.D O O O C.L.T.^.~.Q.R.Y.R.R.R.",
"^.{ e 7 #.3X5XqX8X6X5X,X>X=X>X>X>X>X>X>X>X>X<X@XXX$.u s h 2.g.f.f.f.0.K @ # O o O 2 M c.L.^.!.Q.R.Y.",
"Q.] e 7 $.4X>X>X:X=X:X>X>X,X>X>X>X>X>X>X>X,X;XoXXX).u t i 2.d.j.f.a.w.E ; O O O # O o   + ) H.!.Y.R.",
"T./ e g @.2X,X>X,X>X>X>X>X>X>X>X;X>X>X>X3X=XOX].XX).u t i 2.s.j.a.k.0.R , X # O   o o o O . 3 U.Q.Y.",
"R./ y u +.#X,X,X,X2X>X>X:X>X>X>X,X<X,X:X@X}.{.{.oX).p p h j.j.j.j.k.0.R < O O # v &.b l O ; . n.^.Y.",
"!.[ e u @.XXOX@X%X-X>X>X>X>X>X;X&X#X+XXX].{.{.{.oX$.7 t j k.f.f.k.j.0.e.B o o l z.l.l.l.&.+   ` ^.T.",
"^.} 8 p ..oX].].'.}.oXOXOXOXOXXX{.].{.'.}.{.{.}.oXo.u t ^ l.j.j.j.s.0.R A o o z k.i.s.k.k.&   n Q.R.",
"^.A.9 s u +.oXXX{.{.{.'.{.].{.{.XX}.}.{.}.{.{.oX).t a r G p.j.j.j.k.q.e.D o O & 3.t.t.,.l.c . = K.R.",
"T.!.[ 8 s u o._.}.oX}.}.{.}.}.'.'.'.'.}.XXXXoX). .u f t =.k.j.j.j.j.0.R D X O ; T T T T r.b o o G.^.",
"R.!.H.k t s u u ..$._.'.XXoXoXXXoXoXXXXX'.`.X.u u f r j g.k.j.g.j.k.q.e.D O O > U I R R R A @ o B.~.",
"Y.R.~.F.u s s p u w a | ..X.O.+.+.O.X... .u u u f r i 1.s.j.j.j.k.a.0.U D O O ; Y R Y R R D + . b.(.",
"R.R.Q.J.+ 0 s r r t a u u w u u w u u u p a s r r j 1.h.j.k.j.j.f.j.q.R D O O ; T Y R P e.D o   ' (.",
"R.T.^.G.O O # H ^ h t  .r r t r t r r r e t d ^ 8.k.s.j.j.j.j.j.g.g.0.I F O O # I Y P P R D O   _ ~.",
"R.T.^.D.o O & s.p.2.1.9.G ~ S Q Q Q S G H =.4.k.p.k.j.j.j.f.k.j.j.j.w.R F O O ; Y Y Y Y R D O o ( !.",
"Q.R.!.S.o O & j.j.k.s.p.p.p.p.h.h.h.p.p.h.h.g.j.a.j.j.j.j.j.j.j.k.,.R R D O O ; I R Y I e.K O o n Q.",
"R.R.^.Z.  o x l.j.j.j.j.f.f.k.f.j.f.f.f.j.j.j.j.j.j.j.j.g.j.j.j.s.4.Y w.D O O ; E R Y Y e.J O o 2 T.",
"R.T.^.B.o O x k.j.j.j.j.j.j.j.k.j.j.j.k.j.j.j.k.j.j.j.j.j.j.j.j.s.:.T w.D O O ; Y Y Y I R J O o * K.",
"R.T.^.B.o o q 4.k.j.k.j.j.j.j.j.j.j.g.j.f.j.f.j.j.j.j.f.k.j.j.g.k.6.T R K O O ; I R Y P R K O O $ L.",
"R.R.^.m.  O q t.k.j.j.j.j.j.j.j.k.f.j.j.k.j.k.k.j.j.j.k.k.f.f.j.s.q.I w.D O O ; Y R Y Y R L @ O # J.",
"R.R.^.B.o O < r.s.k.j.g.g.j.j.j.j.j.j.g.j.j.j.f.j.k.j.f.j.j.j.k.,.Y I I D O o : Y Y R R U L O O $ G.",
"R.T.^.V.  O < R 4.k.j.j.j.f.j.k.k.j.j.j.j.j.j.k.j.j.j.j.k.f.j.s.6.T Y R D o O : I Y R R R J O O $ G.",
"R.T.^.S.X O < U 6.s.j.j.j.k.j.j.j.j.k.g.j.j.j.f.k.j.j.j.j.j.a.j.R Y Y e.D X O : Y Y R I R K O O $ L.",
"R.T.^.S.o O > R I j.k.a.j.j.j.j.j.k.j.f.j.k.k.j.j.j.k.j.j.j.k.7.Y Y Y e.C O O : I I R R e.K O O * K.",
"Q.R./.D.o O # R T 6.k.j.j.j.j.j.j.j.j.k.j.j.j.j.j.j.j.a.j.l.t.T Y U R e.Z X O : Y R Y U R D O @ - U.",
"R.R.!.H.O O O L R T :.p.j.j.j.j.j.k.j.j.j.j.j.j.k.j.j.s.s.y.T I U R Y e.C X O : R R I I e.Z o o 4 R.",
"R.R.Q.L.$ O @ D R Y U y.k.k.k.j.j.f.j.j.j.j.j.j.j.a.s.4.7.Y U I R R Y e.C X O > Y R Y Y e.V o o m !.",
"R.R.R.T.2 O o Z e.Y R T 0.:.j.s.s.k.k.p.l.k.l.k.j.3.7.I U R R R R R I e.C o o , R Y Y E e.B X   _ ^.",
"R.R.R.Q.m o X V e.Y R R Y T I 7.6.t.:.:.t.y.6.q.I Y T Y R U R I E Y Y e.B o O 1 w.I Y I Y , O   c.~.",
"R.R.R.^.( o o B e.Y R Y Y R U T T T T T T T T T I R Y Y R Y R Y I Y I e.B o o , R I Y R L O + o Z.^.",
"R.R.T.(.x.  O < w.Y Y I I I R R I R R R R R w.R I Y I R R I R R Y I T e.B o o < e.Y T e.C o O = I.R.",
"R.R.E.~.N.o O , w.Y Y Y I U R R R U R R R R R I R Y I U R U R R U R I e.< O o < R Y I L ; +   ) ^.R."
};
