/* XPM */
static char *ad2deae9e6434d91cef7c831a3c0ced9d4WioSM7LdxTLIjs[] = {
/* columns rows colors chars-per-pixel */
"50 50 253 2 ",
"   c #15142D",
".  c #19172F",
"X  c #151533",
"o  c #191633",
"O  c #14163C",
"+  c #1A163E",
"@  c #1B1B3C",
"#  c #1A1835",
"$  c #140E37",
"%  c #211C3C",
"&  c #1A1644",
"*  c #171A45",
"=  c #1C1B44",
"-  c #1B1C4B",
";  c #171749",
":  c #1C1D53",
">  c #1D1D59",
",  c #141953",
"<  c #241D44",
"1  c #221D4C",
"2  c #2E1F49",
"3  c #221C54",
"4  c #231D5A",
"5  c #2B1F57",
"6  c #301F49",
"7  c #1E214C",
"8  c #1D2245",
"9  c #1E2154",
"0  c #1D235B",
"q  c #1A2556",
"w  c #222246",
"e  c #23244C",
"r  c #29244C",
"t  c #222356",
"y  c #2C2354",
"u  c #22235B",
"i  c #2B235C",
"p  c #252A5C",
"a  c #2A2A58",
"s  c #3C2A5D",
"d  c #352756",
"f  c #2D3357",
"g  c #1E1F60",
"h  c #221A62",
"j  c #241C6A",
"k  c #281E76",
"l  c #1E2664",
"z  c #1F2C7A",
"x  c #242562",
"c  c #2B2563",
"v  c #242A63",
"b  c #2A2A64",
"n  c #2C256A",
"m  c #252C6B",
"M  c #2B2C6C",
"N  c #24266B",
"B  c #322C65",
"V  c #332C6C",
"C  c #3A2B66",
"Z  c #2C316C",
"A  c #283067",
"S  c #3A326D",
"D  c #34346A",
"F  c #252B72",
"G  c #2C2D73",
"H  c #2F2E79",
"J  c #2C2476",
"K  c #332D73",
"L  c #392D73",
"P  c #332E7A",
"I  c #392E7C",
"U  c #2C3274",
"Y  c #2D347A",
"T  c #253072",
"R  c #353375",
"E  c #3C3475",
"W  c #33327C",
"Q  c #3A337D",
"!  c #333A7E",
"~  c #373A79",
"^  c #412E5F",
"/  c #432C62",
"(  c #4A2D6D",
")  c #4B326C",
"_  c #4A3767",
"`  c #52376A",
"'  c #43347B",
"]  c #493678",
"[  c #563879",
"{  c #502F6F",
"}  c #643B7B",
"|  c #713976",
" . c #38417A",
".. c #4E4375",
"X. c #75467D",
"o. c #342987",
"O. c #343482",
"+. c #3C3483",
"@. c #3A3B84",
"#. c #3B3D8B",
"$. c #353986",
"%. c #3A2C9A",
"&. c #3A3995",
"*. c #2A3784",
"=. c #3929AD",
"-. c #433C83",
";. c #4C3B83",
":. c #443D8D",
">. c #4B3D8C",
",. c #453586",
"<. c #533A85",
"1. c #5B3C84",
"2. c #5C3D8B",
"3. c #573C8A",
"4. c #4B3D92",
"5. c #433D94",
"6. c #543F94",
"7. c #633C84",
"8. c #673E89",
"9. c #673C95",
"0. c #723F8A",
"q. c #4637B5",
"w. c #4337A5",
"e. c #394189",
"r. c #3B4594",
"t. c #3B4799",
"y. c #3D4DA4",
"u. c #4B428D",
"i. c #45448B",
"p. c #57438C",
"a. c #434293",
"s. c #4B4295",
"d. c #444995",
"f. c #4B449A",
"g. c #444C99",
"h. c #4B4B9C",
"j. c #49469A",
"k. c #53459D",
"l. c #534A9C",
"z. c #574896",
"x. c #47509C",
"c. c #57559E",
"v. c #634284",
"b. c #6B458A",
"n. c #764688",
"m. c #6A449D",
"M. c #674797",
"N. c #774C95",
"B. c #68529E",
"V. c #78539D",
"C. c #7D508B",
"Z. c #4847A6",
"A. c #554CA3",
"S. c #5A4DAC",
"D. c #5748A6",
"F. c #4A54A7",
"G. c #5B53AC",
"H. c #5756A8",
"J. c #5A59B7",
"K. c #4B53B7",
"L. c #6B4BA4",
"P. c #634BA3",
"I. c #724DA5",
"U. c #784CA5",
"Y. c #695CAE",
"T. c #6555A9",
"R. c #7755A9",
"E. c #685BB5",
"W. c #7B5BB4",
"Q. c #775AB8",
"!. c #634CB9",
"~. c #5665B8",
"^. c #5C63AE",
"/. c #6967B8",
"(. c #7C65BB",
"). c #7867B8",
"_. c #756FB0",
"`. c #4E39C9",
"'. c #5C47D0",
"]. c #6A58C8",
"[. c #6E57CD",
"{. c #5C68C3",
"}. c #7669C3",
"|. c #7B68D5",
" X c #7173C9",
".X c #7854FB",
"XX c #6A4CEA",
"oX c #87569B",
"OX c #885394",
"+X c #8357A8",
"@X c #815EBA",
"#X c #885AB5",
"$X c #945CB6",
"%X c #925EA7",
"&X c #8D63AC",
"*X c #8666BA",
"=X c #9966B9",
"-X c #9C74BC",
";X c #8F6EB5",
":X c #A66BB8",
">X c #B178BA",
",X c #826CC4",
"<X c #8D6BC3",
"1X c #8968C5",
"2X c #9C6DC3",
"3X c #966BC7",
"4X c #8D74CB",
"5X c #8975C6",
"6X c #9775C8",
"7X c #9978D4",
"8X c #8F71D2",
"9X c #A776C7",
"0X c #B47ACA",
"qX c #AB7DD3",
"wX c #A379D7",
"eX c #B47DD3",
"rX c #A66FC2",
"tX c #8C71E7",
"yX c #825CF0",
"uX c #B681B9",
"iX c #9885D8",
"pX c #8D8DD1",
"aX c #AC82C9",
"sX c #A784DB",
"dX c #BB8BD4",
"fX c #BC8CDC",
"gX c #B586D8",
"hX c #B78FD6",
"jX c #9D8BEF",
"kX c #A987E4",
"lX c #BA8AE6",
"zX c #B894E8",
"xX c #AE99EE",
"cX c #B8AAE8",
"vX c #ADA4FB",
"bX c #ACA5E8",
"nX c #C689DA",
"mX c #C898D9",
"MX c #CE98D3",
"NX c #E19ADE",
"BX c #D8A7DA",
"VX c #E6A0DF",
"CX c #C798E7",
"ZX c #CD96EC",
"AX c #D5A8F7",
"SX c #C6BAFC",
"DX c #D5A9ED",
"FX c #E4B2E5",
"GX c #ECBBFA",
"HX c #E8CCF6",
"JX c #DEE1FF",
"KX c #EBE5FD",
"LX c #D5C6FF",
/* pixels */
"+ = & 3 3 , 3 3 4 4 4 i i 3 - : & - - t 7 7 - * , 7 : > : : : > 7 9 t t y b c i u i c c 5 : & & - 1 ",
"- - : > h > 4 4 4 3 3 4 t 3 1 - ; ; - - 7 - - * , 9 q : q > 0 0 t > 9 t b V B B i h c c 4 3 - = 1 1 ",
"3 4 4 4 h h h 3 3 3 - 3 3 - & - * - - - - - ; - 9 9 9 9 t u u u 0 t t i c V R R c c c n 5 : 1 w - 1 ",
"4 h j j h h h h 4 : ; - - - & - - - - ; , - - - 9 9 7 q x p x x x u x N V V K K n c c c x 3 1 r & & ",
"k k k k j j h h u > - : - ; - - q 9 - - - 9 9 9 t 9 9 q x x v x x x N R K K n K c c c n i 1 1 t = = ",
"o.o.o.o.o.k k j x u , : : : : t t 9 t : 9 9 9 t u t 9 p p b x p 0 u b R R n n n i i c c i 3 1 1 + + ",
"%.%.%.%.,.o.k k M x > > > : t x t t > > 9 t t t p t 9 t p x x p 0 > x R L c x n u 4 c n u 3 - 1 O $ ",
"%.%.%.%.%.o.J k K N g > l 0 x v 0 t t t t 0 > t p t 9 u x b x t 9 : u V V x c V 4 4 h c 5 : - < + & ",
"q.=.=.q.w.%.+.J n M t 9 p u : 4 l q l q q q q A q q 0 0 0 v l v u : > p u 4 u n p m n x u u q * O O ",
"`.`.`.`.w.&.O.H x v 0 : p u : l q l l m  .A q A p A v A Z Z M x u 4 0 x x u t p t x b x x t : ; O O ",
"XXXXXX`.q.&.O.Y v m v 0 p l x M m T A A  . .A A A l q A M U N x u u u p u 0 : > t u x u t t : * O O ",
".XyX.X'.q.w.O.H U U M v m m U ~  .Y l l T A l m A l 0 0 0 x x x x p x b x u > : 3 t u u u > 7 * * = ",
"yXyX.X'.'.K.$.O.W $.R m U U W r.e.! T l m l q l v m m Z N x v b b b b b b b p t 9 t t u u 9 7 7 = & ",
"tXtX|.[.[.!.Z.5.+.i.Q R ~ Q +.a.$.! Y U Y m l l l m Y ! U b x x p b p u p b x > t 9 > u 9 : - 7 & = ",
"DXSXxX|.|.].K.G.f.A.l.z.c.l.4.6.r.e.Y Y ! U l l l F U U Z m x x c x u 0 u x u , a 9 9 u u 7 = 7 - & ",
"KXKXSXiXtX|.!.E.G.Y.Y./.)./.c.k.H.d.Y T $.Y F T Y Y U G Z M M Z Z D b u b b x : a t t u t 7 - 1 & & ",
"JXJXLXzXwXwX8XR.}.*XT.4X8X*XsXR.Y.z.e.$.*.*.o.W t.t.r.e. .m M R m Z F x M ~ R x V S S i 5 y y 1 + + ",
"cXSXcXkXlXwXwX2X1XW.R.-X3X*XzXzXpXT.a.t.t.r.&.r.*.^./.t.T Y ~ Z i.i.e.~ R R K x 5 i i y 5 3 - & & @ ",
",X7XwXxXAXZXdXmXgX-XuXzXsXwXCXLXkX1XS.y.y.y.r.r.z ~./.g.R e.i.Q c.x.i.~ R K n h y y a i i 3 3 5 @ @ ",
"jXiX7XlXGXAXMXFXBXuXBXmXrX=X2XlXzX6X].K.K.y.t.t.e.t.t.e.@.r.i.i.l.i.+.W K K M B S B d i i 4 c ' & < ",
"HXxX3XgXFXFXBXFXGXBXFXFX0XgXqXnXgX7X8X X{.K.y.y.t.$.Y $.r.@.#.s.u.i.W R L L L L V i y c 4 3 5 S 1 1 ",
"AXjX6XfXDXFXFXFXnX>XBXmXgXzXfXdX9X6X4X|.{.K.y.y.e.r.t.e.#.#.#.i.u.i.] K L ' E C n B V C i 3 3 3 1 1 ",
"[.@X7XCXgXnXZXdX-X;XmXAXAXZXZXmXaX6X,X X{.F.y.y.e.y.F.d.a.h.j.&.u.z.u.I L ;.u.C L Q -.E B 5 1 - < - ",
"!.!.wXkX#X$XeX3X<XW.-XCXgXaXdXmXCX6X(./.~.K.F.~.x.t.d.g.F.F.l.j.-.z.p.' ] z.z.] ,.u.p.E c y y = 1 1 ",
"3.z.Y.,X*XW.W.<X,X,XW.1XwXwX6XsX2XgXsX(.~.{.{.~.~.y./././. XD.!.s.z.z...Q p.m.9.L.,.5X5XV B & w 3 5 ",
"-.>.l.P.P.L.W.8XsX4XW.3XqXlXwXwX-XiX5X^.~.~.{.~.t.F. X^.pXSXiXH.M.>.u.p.u.p.I.W.@Xm.).T.i B ; y 5 5 ",
"H P ,.>.6.P.@XwX7X4X2XwXkXeXqXqX-X6X_.H.^./.~.^.^. XbXpXbXKXbXB.M.z.B.p.] p.L.L.#X@X9.] 5 c y y 5 6 ",
"F H @.4.6.L.@X3X1X;XwXgXlXfXgXrX-X6X*X_._. X/././.). X_._.sX;XT.I.R.R.L.p.<.<.;.$X3X2.] C S f t d d ",
"F Y @.>.6.P.I.Q.1X@X2XqXfXCXhX&X-X6X-X;X6X5X5X5X8X8X8X,X4X7XwXsX$X+X+X%XV.[ [ <.$XeX9.7.] S s y ^ ^ ",
"J H Q +.4.P.Q.}.1X#X<X2X-X9XaX;X9XsX6X<X<X*X<XwX7X7X3X$X3X6X7X$X$X:X:X%XoX;X&X} $XeXN.2.] / s d ^ ( ",
"K Q +.+.s.T.Q.).T.}.7X6XU.&XaX-X5X-X*X).(.(.*X3XlXlX0X0XeXdXeX$X:X0XuX:X>XnX>X| =X-Xm.8.{ ) ^ ^ ( ( ",
":.:.u.:.a.l.A.Z.Q.Q.7X6XR.2XhX9XP.T.c.Y.(.).(.7XeXrX$X>X0XnXZXnXnX%X>XNXVX>XOX| $X$XN.N.[ } { } [ [ ",
"W O.+.:.6.4.Z.D.S.E.,X,XQ.*XiXsXT.H.H.H.H./.}.3XrX9X:XrXnXAXZXnX2X+X$XeX9X&XC.{ N.V.M.8.7.b.C.X.N.} ",
"@.O.+.4.6.D.S.S.D.D.P.Q.(.7XsXiX).E.H.F.g.c.E.*X9X0XrXrXeXnX0X:X#X9.9.+XoXN.N.} b.V.8.8.7.b.OXX.[ ` ",
"O.I +.4.k.6.D.D.k.k.Y.E.Y.).*X XY.H.h.h.h.l.T.Q.=X:X:X=XrX0X:X$X+X9.7.7.[ 7.v.v.OX+Xn.b.b.n.oXOX_ ^ ",
"J L o.4.P.D.q.D.c.P.Y.Y.k.z.H.T.:.s.g.h.A.c.P.Y.R.#X$X$X=XrX$X$XU.9.9.<.[ [ v.b.N.oX0.9.8.n.OXOX_ ^ ",
"n K +.z.D.S.S.S.T.k.s.l.D.S.A.5.i.r.h.H.H.l.k.k.#X#XR.+X$X#XU.9.9.m.9.<.<.3.v.b.OX%X+XoXoXN.OXn.` ` ",
"> x R u.z.k.D.G.G.Z.k.Z.f.h.A.h.h.d.j.h.f.s.s.l.W.R.I.I.R.R.m.9.m.U.m.,.<.1.7.b.OX:X-X-X-X&XoX8.` / ",
"q q Z E I +.f.H.G.D.S.H.#.O.a.x.g.d.a.j.s.s.f.l.R.R.m.m.I.I.9.I.U.#X!.3.3.2.[ 0.n.oXoXR.V.N.C.[ ^ ^ ",
"q p Z V M P a.J.].Z.Z.h.&.r.e.r.x.g.h.h.f.:.:.s.W.).Y.L.L.P.m.R.9.#XU.2.M.b.8.0.n.OXb.1.[ 1.N.} ` ` ",
"4 M ~ W H r.H.J.f.}.+.O.g.*.e.T e.#.e.r.:.4.4.4.6.6.6.6.3.b.B.R.M.M.m.b.7.2.<.] .._ ` ../ / ) ) ` ` ",
"> V i.-.W a.J./.jXvXG.+.#.N T l $.e.#.#.+.+.,.,.6.k.P.m.z.V.R.#XM.M.M.7.[ [ ( C d d d ^ d s / ^ d ^ ",
"c b R #.a.H./.K.vXvX/.#.W N Y ! $.! O.O.@.Q I I ,.D.T.k.3.3.p.2.p.p.1.[ ( / d y w < < < < 6 d r r 6 ",
"B c M Q a.D.S.&././.a.W Y G e.e.M G G R W W P R 6.E.).P.,.>.<.[ ] [ { ( C d r w w w = @ o % w % % w ",
"3 c ' -.P o.&.&.Q #.W U U M U R N x n M M G R L :.H.T.z.-.;.u.i.C / S s d r w r 8 @ w w X # % o # # ",
"i B ~ -.K G P J H H H M N x x u x x x N m n v N j +.-.S b V S C a r y y r w r f 8 O = w @ o o   X X ",
"V i V E L K n > U x m b p p p 9 u u p x p u 0 t n V S b b a p p e w w w 7 7 f f  .e & w @ o o o . # ",
"5 5 S ' B p x u x , 0 0 9 t 9 7 9 4 4 t 4 t 9 0 > 4 t i a a t 7 8 @ = < 8 q p D _...- & o $ o @ . . ",
"3 t t u b Z M v 9 q 9 : u 9 - q 0 t 9 : - 7 7 - : t p t 7 7 - 8 8 8 e 8 * e 8 f D f #           . . ",
"3 4 u u b M m x - t 9 9 p t - 9 t 9 t : 9 - 7 7 : t a 9 7 7 7 7 8 * e * O 8 8 a 7 @ X     .     . X "
};
