/* XPM */
static char *parkacpoliceman1677765828[] = {
/* columns rows colors chars-per-pixel */
"50 50 251 2 ",
"   c #010101",
".  c #0A0B0D",
"X  c #080807",
"o  c #0D0D12",
"O  c #0F1212",
"+  c #121315",
"@  c #17191D",
"#  c #161719",
"$  c #13120D",
"%  c #291F1A",
"&  c #1B1F21",
"*  c #1D2327",
"=  c #22292C",
"-  c #242426",
";  c #252C32",
":  c #2B3439",
">  c #383736",
",  c #332F26",
"<  c #463A3A",
"1  c #4B423A",
"2  c #323D44",
"3  c #363D47",
"4  c #2D3542",
"5  c #39434A",
"6  c #3D4B53",
"7  c #394551",
"8  c #494B48",
"9  c #564C46",
"0  c #424D55",
"q  c #44535C",
"w  c #49555C",
"e  c #595751",
"r  c #6E5856",
"t  c #69645A",
"y  c #78655E",
"u  c #7A755F",
"i  c #4B5B66",
"p  c #545863",
"a  c #715D64",
"s  c #4E616D",
"d  c #53626B",
"f  c #5A6E7B",
"g  c #556977",
"h  c #5D727C",
"j  c #4E6471",
"k  c #6E6A64",
"l  c #6D6D6C",
"z  c #686564",
"x  c #7C6563",
"c  c #746C65",
"v  c #746D6A",
"b  c #7B6D6B",
"n  c #776965",
"m  c #6D726B",
"M  c #737365",
"N  c #7C7365",
"B  c #74726C",
"V  c #7C756C",
"C  c #7C7B6D",
"Z  c #75786C",
"A  c #636D73",
"S  c #757473",
"D  c #7C7573",
"F  c #7C7A73",
"G  c #7D7B7A",
"H  c #757876",
"J  c #776D72",
"K  c #865959",
"L  c #965B5E",
"P  c #96655B",
"I  c #886C5C",
"U  c #AB695D",
"Y  c #B86A5B",
"T  c #B6765B",
"R  c #AE715F",
"E  c #8E5964",
"W  c #AC5D6A",
"Q  c #826463",
"!  c #846D6A",
"~  c #8B6B6B",
"^  c #886866",
"/  c #986C66",
"(  c #827366",
")  c #82756D",
"_  c #8C736A",
"`  c #847B6D",
"'  c #8B7C6D",
"]  c #897866",
"[  c #9C746B",
"{  c #97786A",
"}  c #816971",
"|  c #837672",
" . c #8B7574",
".. c #837C73",
"X. c #8B7D73",
"o. c #837D7A",
"O. c #8A7B7A",
"+. c #937B73",
"@. c #997A74",
"#. c #986E70",
"$. c #A76C65",
"%. c #B96B67",
"&. c #A4746C",
"*. c #A57B6C",
"=. c #A97668",
"-. c #B77768",
";. c #A77876",
":. c #B97B77",
">. c #B26D71",
",. c #CD6C5D",
"<. c #E77858",
"1. c #CA696A",
"2. c #C77867",
"3. c #D97866",
"4. c #CE7175",
"5. c #E47C61",
"6. c #7E8277",
"7. c #7C846C",
"8. c #8D826D",
"9. c #89836A",
"0. c #91846D",
"q. c #98886D",
"w. c #848175",
"e. c #8C8274",
"r. c #86827C",
"t. c #8C847B",
"y. c #8D8A7C",
"u. c #898A74",
"i. c #928474",
"p. c #938975",
"a. c #9C8C74",
"s. c #93857A",
"d. c #9A857A",
"f. c #948A7C",
"g. c #9B8C7B",
"h. c #9B8573",
"j. c #9D9373",
"k. c #9D937B",
"l. c #989477",
"z. c #9C926A",
"x. c #A8896B",
"c. c #BC8669",
"v. c #A8976B",
"b. c #A48473",
"n. c #A38D76",
"m. c #A38C7C",
"M. c #AA857A",
"N. c #B88578",
"B. c #A29375",
"V. c #A4927B",
"C. c #A9947C",
"Z. c #AA9A7D",
"A. c #A89977",
"S. c #B39D7D",
"D. c #B79779",
"F. c #B29C6A",
"G. c #AAA17A",
"H. c #B5A37C",
"J. c #BAA979",
"K. c #E58658",
"L. c #D4846A",
"P. c #D7886B",
"I. c #C58775",
"U. c #D48778",
"Y. c #C9967A",
"T. c #D89878",
"R. c #CA8F6B",
"E. c #E48D74",
"W. c #C3AA7B",
"Q. c #C9B47A",
"!. c #D5BC70",
"~. c #E9A47D",
"^. c #DCC277",
"/. c #5D7684",
"(. c #637C8C",
"). c #657A89",
"_. c #637E93",
"`. c #937C81",
"'. c #D67A87",
"]. c #E67683",
"[. c #65818E",
"{. c #698697",
"}. c #7D9096",
"|. c #728996",
" X c #6C8EA1",
".X c #708EA2",
"XX c #6E92A4",
"oX c #7495A9",
"OX c #7697A9",
"+X c #7A9DB0",
"@X c #8B8583",
"#X c #8E8A83",
"$X c #878886",
"%X c #948C83",
"&X c #9A8E83",
"*X c #948785",
"=X c #969383",
"-X c #9C9384",
";X c #9D948B",
":X c #9B9886",
">X c #9A9594",
",X c #958D92",
"<X c #A38C84",
"1X c #A78884",
"2X c #B68784",
"3X c #A49484",
"4X c #AA9481",
"5X c #A59A83",
"6X c #AB9B83",
"7X c #A39B8B",
"8X c #AB9D8B",
"9X c #A6958C",
"0X c #B39D84",
"qX c #B09E8B",
"wX c #BA9B88",
"eX c #A49B92",
"rX c #B69E94",
"tX c #9FA091",
"yX c #ABA28C",
"uX c #AAA487",
"iX c #B3A385",
"pX c #BAA383",
"aX c #B3A38B",
"sX c #BBA58C",
"dX c #BAAB88",
"fX c #ACA49A",
"gX c #B4A594",
"hX c #BAAA94",
"jX c #B6A896",
"kX c #BAB58A",
"lX c #85A8BD",
"zX c #ABAEAF",
"xX c #819EB0",
"cX c #CB8E83",
"vX c #C3AB8B",
"bX c #C6AA87",
"nX c #C9B488",
"mX c #D2BC8F",
"MX c #C3AE94",
"NX c #CAAF91",
"BX c #CAB595",
"VX c #D3BA97",
"CX c #D5A88C",
"ZX c #C7B8A6",
"AX c #CBBCAE",
"SX c #E68D89",
"DX c #D7C28E",
"FX c #D5C2A5",
"GX c #CBC3B6",
"HX c #E7D1B7",
"JX c #AEB8C1",
/* pixels */
"5XG.mXyXr.g.H @.E.3.;.uXDXdXo.&XG d.T.U.[ 2.E.0X$Xl.F `.SXU.&.-.3.N.$X%X6.@.cXcXd.D.U.`.| m.D %XMXjX",
"k.k.v.e.eXiX-XM.N.N.+.l.v.u.eX6X-X<X:.I.{ R T 9.>X2XM.`.:.N.[ &.U ! >X8Xn.M.:.N.#.=.1./ 4X0X-X&X8X0X",
"` e.A.B t.6XV.D D `.v e.A.m O.0XV.D o.*XS / -.b w.>.=.9...*Xl o.%.x $X2X%. .w.*.y _ >.a X.0XB... .g.",
"-Xp.iXk.G y.6.e.8X7Xy.a.Z.l.D $XD t.fXfX$X{ R.q.F O.} p.kXfX$X+.N.b.H O.} +.H.D.[ h.N.@.D y.D X.pXiX",
"3XX.X.( N.N./ h.5XC.-X` ' V 4XiXt.d.9X;X*X..w.V 9XaXy.d.6X4X-X9.e.C 4XaXy.g.C.3X-X..e.V 7XsXr.p.g.7X",
"o.t.g.| ,.,.,.@.%Xi.D e.g...Z.S.k. .$._ b +.g...Z.Z.V.e.i.X.H O.g.` 6XS.V.@Xg.e.D X.f...0XS.B.f.g.t.",
"e.jXFX8Xy ~ z d.pXB. .gXAX0Xv V l ' 5.Y ^ wXFX6Xc B k i.pXn.V hXAX6XB V l g.W.m...jXFX6Xc V c D pXD.",
"*X-XC.g.y.:X=XX.[ { ) -.M.@Xr.V.%Xd.x.q.O.A.S.%Xr.8X-Xe.b./ _ M.0Xp.i.7X;XO.0.u.F A.S.p.o.yX>Xv ! [ ",
"G B.0.9.ZXNXg.k ~ { x Y ] ..ZXNXn.M u.u.Z j.8.o.fXFXMXZ ^ P x $.] w.aXFXNXb F i.B z.9.) AXHXAXD Q ;.",
"` Q.!.A.s.8.S [ L.$.I K.P.A.t.' B p.W.B.N W.H.s.D X.o.:XI.U K 2.S.g.X.e.` l.dXa.N J.bXg.y.-X,XO.2.2.",
"8.Q.v.q.c ( $X4XT.b._ R.x.z.c ] @X7XQ.B.C J.A.0.c ( t.;XY.x.( c.n.i.n N r.4XcXh.C J.a...y N F <XL.2.",
"V M S J m.0XC.eXuXk.M e w l B.0X3X7X5Xl.c N p.w.k.S.V.9X7X-Xk N X...g.S.V.;.;.&Xm N S H B.S.A.3XM.;.",
"y.k.W.yXC s.v t.kXM h [.}.j e p.v t.hXG.w.uXVXuX` i.b r.gXG.7.yXMX;XD p.B  .2XC.r.l.W.7XD d.B e.I.N.",
"6XG.J.l.$Xg.G Z.0.lX+X X{.6 q V ..V.DXnXA.BXJ.k.#X&X..&XmXQ.6XhXsXg.@X%Xw.;.].bXG.G.G.f.*X&X6.V.E.U.",
"w.e.a.V 8XNX0Xt.8 g s 5 X * s MXqX' e.k.F e.i.v 8XNX6Xe.0.V.` y.i.v 8XbXN.X.} g.N { *.l gXvXpX+.{ 1X",
"G ` Z.9.V i.e.V 9       = 5 & e N M ' N t ` V...B i.t...i.g.V ` V.D V @./ H }.>Xb P -.o.D p.e.V f.:X",
"9Xp.H.B.t.g...p.B.= = ; = + 6 6 3 3 d [._.A +.g.t.g.F &XbXpX3Xa.C.d.t.@.Q *XJXfX<X$.2.p.w.g.V g.vXsX",
"@XV 8.N 8XvXV.s.( @ X     # * = + = i i /./.i p 0XsXC.g.g.p.w.| ..v uXbXM.r.$Xr. .! / n aXvXB.e.i.a.",
"o.&XfX&Xe.X.) ..$           7 s w 5 3 0 q 3 - 0 |.t V e.C.g.D &XgXs.' +...X.x.0.S =XjX%Xi.X.V t.4Xg.",
"%XsXmX8Xv ` S ..z.] ` 9 + O |.OX[.[.w 3 q /. X- 2 xXA p.pXa.o.sXmXyXc ..v d.vXV.e.sXVX6Xv e.D f.pXC.",
"G @XX.X.gXAXZXD M C 6.y.# g ).* w w 6 g 7 i {..XO . {..Xt f.D y.y.w.gXGXZXo.w.o.D t.i.w.6XBXMXD V %X",
"C F.v.8.gXGXjX_ *.@.Q T X f OX#   : i [.oX6 q i q 5   6 oX: ! M.$./ rXGXjX~ / @.F F.B.e.5XwXZ.' [ -.",
"u.!.!.F.v ( o.*.L.[ / <.X # .XoX+   7 {.7 * 2 8 6 * 5 @   6 w R 5.>.l V w.&.1.x.9.!.Q.g.N N C C.L.-.",
"` 0.V N _ q.y.<XR.x.x L X   6 +X/..   + - i : . * s +X.Xq # - 0 9 ^ b +.a.1X:.b.M 9.B v +.a.k.3X2.-.",
"o...y.t.f.V.f.d.:.=.! b 1     g lXf   o i + + i [.0 /._.2 q : . 9 t.o.3Xp.;.>.*XF V X.t.i.V.a.g.N.;.",
"=XiX^.W.F t.S [ E.U.;.dXnX1   + h +Xs X   i XX{.[.;   X : OXXXi I fXB y.H [ '.wXf.5XnXdXG t.B t.BXjX",
"*Xp.F.0.;XaXk.M.:.N.+.l.v.9.>   . {.+X&   q XXg 6 6     4 _.{.XX/.9 :X0Xb.M.:.0Xf.y.z.' 7X8X&X&XuXqX",
"S 0.A.( s.0X4Xb D s.M u.j.Z e.,   @ = i 5   3 oX/.}.j O     6  X X_.e :.W ~ u.f.N ..n.V t.9XV.) ` g.",
"&Xa.J.B.H O.( w.fXyXs.&.N.@.H t.-     (.f =   g oX/.{.{.;     : [.XX Xp K 9.kXiXs.d.H.a.G @XV e.pXqX",
"9XX.X.) 7XaXp.s.n.C.1XL L E 9XaXi.9   - - X     2 {.{./.+Xw     O g  XoXh u v.C.-XX.8.| 5XaXi.i.k.4X",
"o.o.&X..5X0X-X+.>.^ J  .;.^ A.iXk.@.<     < >     @ g |.f i 6 o     7 [.oXoXA e H w.&Xo.5X0XV.d.g.t.",
"t.hXVXqXv V m Q 1.%.} cXSX:.c S l ;.3.K a vXVXc X     7 f (.oX(.2     O g /.q : 9 r.r.m.y B c D 0XD.",
"%XA.H.k.X.3X;X! P _ #.>.N.&XO.3X;XX.P / ) :.:.M.F 1     $ 0 _..X.X).*     X O q /.f ; N t.gX>Xv Q [ ",
"G k.0.t.hXVXsX( b ..J / _ t.gXVXMXN ( @.v #.^  .hXVXu +     - j oXg 3 +       X *     w.ZXHXGXb Q &.",
"w.J.W.A...' ..*.L.=.Q 1.I.g.e.` ` m.I.*.b 1.4.b...` ) -X9       ;   @ s f 5       % P a.r.-X$X*X2.2.",
"e.J.z.8.v N o.4XT.b.) N.+.8.N N G 4XP.&.Q -.{ 0.M N o.yXY.L ,       @ /.6 *  X> e c.&.` N ` F <XL.2.",
"H N C B n.pX4X:XG.j.M 7.` F V.pX4X3X-.$.a Z 7.S C.H.4XyXM.$.a 9 %   O X   # ^ n.m Z Z S qXNX3X-Xc.-.",
"s.l.W.yXD f.c e.kXG...V.Q.uXV i.B X.cX-.! l.Q.uXC q.c t.wX-.^ N.mX8     > ! 4.D.r.k.W.7XV h.v ' T.I.",
"5X6XJ.j.@Xg.` Z.DXMXk.G.J.B.t.g.F n.E.U.$.C.J.A.*Xg...=XCXP.%.Y.W.j.8 r H ;.E.W.G.H.S.p.@Xm.C m.~.T.",
"r.X.=.x yXNXqXt.9.k...p.a.B qXNXyXe.+.n. .p.j.m aXnXsXy. .b.! #.i.l uXCXN.O.o.%XV { { B yXNXaXt.] m.",
"o.! %./ S i.8.V f.3X) 8.H...D p.e...e.k.S 0.H.` S s.i...y.k.b Q m...S { P ).}.>Xb P -...V p.e.` f.=X",
"eX*.Y $.$X&X` s.sXsX5Xv.G.z.t.&XV g.vXpX3XB.H.j.%X&XV g.vXY.;.W 4Xp.t.@.K ,XzXfXM.$.-.f.$X=XV g.vXsX",
"@XV { x aXMXV.s.d.s.o...0.B iXvXV.d.p.s.r.` 9.) pXpXC.p.g.p. .^  .B iXbXN.s.$Xt.| ! / b wXcXC.p.d.%X",
"| ;.wX&Xe.9.V ..A.p.S ;XhXp.' e.V p.5Xp.D =XgX%XX.' V i.4Xp.H -XsXg.` e.F ..n.i.S :XgX&.L L b F 5Xg.",
"@.'.].`.S ' F ..V.a.y.hXVX8Xb X.G g.pXn.e.hXVXqXB X.F g.S.j...gXVX8Xv C M g.vXa.t.gXCXM.z _ | ..Z.m.",
"`. ./ @.yXmXMXV B F o.f.i.t.8XBXhXV C ..S p.e.r.8XNXMXV V w.S f.y.r.jXAXZXt.` ..S s.p.X.jXHXAXD m r.",
"o.G.B.p.3X8XB.0.$.#.! Y *.e.8XaXB. .*.{ v R T { 3XaXB.r.{ [ x $.U _ 8XGXjX( $.+.M A.z...fXGXgXX.R c.",
"e.Q.Q.A.c c D C.3.$.^ 5.R.D.M c H V.P.=.b 5.K.x.m c V :XI.U Q 3.<.%.z V F ;.1.h.u.Q.bXq.c F o.m.K.L.",
"M q.M Z X.n.-X3X2.&.x P n B w.B.-X&XI.&.r P Q c ..k.3XtXN.$.y P y a F f.g.;.>.m.M 9.M c p.6X=X-XR.Y ",
"o.V 4X,Xl.4X%X-XN.;.V ~ 1X,Xd.S.g.;XwXM.V _ M.&Xd.C.g.;X4X-.x  .2X`.@.3Xa.<X2XC.V O.3X$Xg.wXs.-XN.N."
};
