/* XPM */
static char *policeman1677765835[] = {
/* columns rows colors chars-per-pixel */
"50 50 256 2 ",
"   c #0A0214",
".  c #02022B",
"X  c #050328",
"o  c #160429",
"O  c #020133",
"+  c #02013C",
"@  c #060938",
"#  c #170534",
"$  c #141233",
"%  c #291332",
"&  c #321C2A",
"*  c #472936",
"=  c #583618",
"-  c #5C442D",
";  c #6D5131",
":  c #010243",
">  c #050847",
",  c #130D47",
"<  c #09184A",
"1  c #151846",
"2  c #061854",
"3  c #0E1555",
"4  c #2C1B4A",
"5  c #07284C",
"6  c #082559",
"7  c #162957",
"8  c #07365C",
"9  c #173559",
"0  c #162E4B",
"q  c #252A59",
"w  c #33304D",
"e  c #183662",
"r  c #123266",
"t  c #2E3969",
"y  c #101D63",
"u  c #4D3553",
"i  c #7B314A",
"p  c #194555",
"a  c #334652",
"s  c #174769",
"d  c #124E6E",
"f  c #274872",
"g  c #275A75",
"h  c #2B4F6E",
"j  c #34697A",
"k  c #2D687C",
"l  c #504D57",
"z  c #6A5257",
"x  c #6B675A",
"c  c #79675D",
"v  c #6A725F",
"b  c #70725C",
"n  c #565767",
"m  c #515371",
"M  c #69586C",
"N  c #745768",
"B  c #634864",
"V  c #4E6872",
"C  c #6C6B66",
"Z  c #736C65",
"A  c #7C6B63",
"S  c #736C6B",
"D  c #796868",
"F  c #6B7369",
"G  c #747364",
"H  c #7C7264",
"J  c #7B7C66",
"K  c #74736C",
"L  c #7C736C",
"P  c #7C7A6C",
"I  c #757A6A",
"U  c #6B6A76",
"Y  c #776A74",
"T  c #7C7473",
"R  c #7C7B73",
"E  c #7A747B",
"W  c #777877",
"Q  c #677773",
"!  c #486954",
"~  c #8B3A36",
"^  c #87585B",
"/  c #965A5A",
"(  c #894F49",
")  c #AE5D57",
"_  c #88695C",
"`  c #976858",
"'  c #8E704F",
"]  c #A5685A",
"[  c #B76B5A",
"{  c #A6765A",
"}  c #B77758",
"|  c #885C64",
" . c #846364",
".. c #826C64",
"X. c #876968",
"o. c #956A67",
"O. c #83736C",
"+. c #8C736B",
"@. c #837B6C",
"#. c #8C7C6C",
"$. c #867764",
"%. c #9D756B",
"&. c #9A7C6C",
"*. c #967869",
"=. c #886B74",
"-. c #9D6B72",
";. c #837473",
":. c #847C73",
">. c #8B7D73",
",. c #847C7B",
"<. c #8B7D7B",
"1. c #877577",
"2. c #967976",
"3. c #A86A66",
"4. c #B56B68",
"5. c #A77766",
"6. c #B77769",
"7. c #A97875",
"8. c #B67977",
"9. c #B56C74",
"0. c #CF735D",
"q. c #E8785D",
"w. c #C77867",
"e. c #D1716E",
"r. c #E57A71",
"t. c #9D7223",
"y. c #7A836D",
"u. c #7B8477",
"i. c #638E7A",
"p. c #788C59",
"a. c #D7BA38",
"s. c #B28952",
"d. c #85826D",
"f. c #8C826C",
"g. c #8A8768",
"h. c #93846D",
"j. c #998769",
"k. c #9A956E",
"l. c #858374",
"z. c #8B8374",
"x. c #8B8A75",
"c. c #8C837B",
"v. c #8C8C7C",
"b. c #858479",
"n. c #938473",
"m. c #938C73",
"M. c #9C8B74",
"N. c #93857B",
"B. c #938A7B",
"V. c #9B8C7B",
"C. c #9A857A",
"Z. c #9C927B",
"A. c #989478",
"S. c #849177",
"D. c #A48868",
"F. c #B78565",
"G. c #A7946A",
"H. c #A68778",
"J. c #B88677",
"K. c #A39275",
"L. c #A4937B",
"P. c #AB9A7C",
"I. c #A89876",
"U. c #B39D7C",
"Y. c #B69779",
"T. c #B29869",
"R. c #9CA276",
"E. c #ADA17C",
"W. c #B5A27C",
"Q. c #BAA778",
"!. c #BDA46C",
"~. c #80804C",
"^. c #E68C59",
"/. c #C7856A",
"(. c #D78569",
"). c #C88976",
"_. c #D19074",
"`. c #E38B79",
"'. c #E6906D",
"]. c #C5A975",
"[. c #C6B279",
"{. c #D2B673",
"}. c #D6A64E",
"|. c #396689",
" X c #336F8C",
".X c #225280",
"XX c #477B8A",
"oX c #757686",
"OX c #8C7F84",
"+X c #977B84",
"@X c #A87B85",
"#X c #CD7D88",
"$X c #398386",
"%X c #488892",
"&X c #7D8B8A",
"*X c #76A4BC",
"=X c #8B8481",
"-X c #8A8988",
";X c #928483",
":X c #948B83",
">X c #9B8C83",
",X c #9C8E8B",
"<X c #958889",
"1X c #9B9484",
"2X c #9D948C",
"3X c #989786",
"4X c #989694",
"5X c #8E8E8D",
"6X c #A28D84",
"7X c #A68A86",
"8X c #B68883",
"9X c #A39483",
"0X c #AA9583",
"qX c #A39A84",
"wX c #AC9C84",
"eX c #A4948B",
"rX c #A39B8B",
"tX c #AC9B8B",
"yX c #AA958C",
"uX c #B29B8C",
"iX c #B59A85",
"pX c #A59992",
"aX c #B39A93",
"sX c #A28B93",
"dX c #96AB92",
"fX c #ACA38C",
"gX c #AAA587",
"hX c #B3A48C",
"jX c #B8A687",
"kX c #B8B386",
"lX c #AAA395",
"zX c #B8A795",
"xX c #BAB598",
"cX c #AAA4A4",
"vX c #BEB5A5",
"bX c #ACB4B3",
"nX c #C59786",
"mX c #D18B85",
"MX c #EF9387",
"NX c #C5A889",
"BX c #C9B588",
"VX c #C5AB96",
"CX c #C9B697",
"ZX c #D6BA98",
"AX c #D1B689",
"SX c #F5AE90",
"DX c #C6BAA6",
"FX c #CDB8B3",
"GX c #EDBCAD",
"HX c #DAC19A",
"JX c #D1C28C",
"KX c #D5C2B7",
"LX c #FCC9A3",
"PX c #EED0B1",
"IX c #FDF1BA",
"UX c #F0E4E4",
/* pixels */
"qXE.JXgXc.>X1.n.`.r.5.gXJXzX<.C.u.H.`.).%.w.'.iXu.3XW 2.mXmX5.w.r.eXR :Xu.C.mXmXH.Y.`.@X2.C.R ;XxXaX",
"m.A.K.l.3XhX6XN.J.8.h.k.E.d.3XgX9XeXJ.mX2.3.} g.pX0X7.H.w.8X%.%.[ X.2XiXJ.H.H.8X*.*.9.| yXiX3XpXgXiX",
"@.z.Z.G x.tX6X+.T <XC d.K.c v.aXK.L T ;XU 3.6.G 2.8.9.:.c.c.Y oX[ D -X8.9.o.x.6. .*.7.N z.U.A.$.#.L.",
"3XB.iXV.y.x.R l.rXtX:XA.W.V.W ;XW b.lXlXS.j./.j.T >.D x.kXlX:X<.F.B.oX+XD OXE.T.2.D.H.1.L n.u.>.iXiX",
"rX:.>.+.8X(.%.C.L.9X1X@.$.O.rXE.N.>XeXsX<X<.d.T rXzX>.;XP.P.1X>.&.L rXfXB.B.L.qX9X$.d.R uXjXN.;XL.qX",
"2.c.Z._ 4.e.3.%.>XN.E c.M.#.9XQ.K.2.` +.D Y Q Y W 2.7X<.N.>.;.,.6XR qXjXL.n.>Xc.E l.V.R rXjXC.x.<XN.",
"l.zXHXuXc X.D N.Q.K.>.aXHXlXS H Q 2.q.[ =.r j k g 5 n >XjXA.L zXZXhXA T C :XjXH.,.zXHXtXD G S L jXY.",
"-X2XL.B.v.1X1X>.%.>.O.7.J.<.-X>X:Xm.H.5.S d R.j f  X8 e l 2.o.H.tXv.f.yX2Xz.h.h.@.P.P.C.>.fX2XY ..%.",
"T A.#.R CXCX:XZ o.*. .3.$.R DXBXK.C y.x.Q p V a r t s 8 : 1  .o.$.>.fXHXVXG T N.H A.@.:.FXPXvXY _ %.",
"@.{.{.I.#.N.T +.(.o._ ^.^.I.d.z.Y m.AXk.R l p.! q 5 , 3 2 O ^ e.wXM.@.N.>.v.kXk.J Q.Q.h.:X2X5Xz.w.w.",
"x.kXT.f.c $.<X0X].D._ /.F.B.A A -XlX[.N > d d d 8 $ @ @ . c.+.F.K.c.Z A c.0XmXM.z.gXk.O.A ..l.6X).w.",
"H H L W C.W.1XpXrXL.b y.F W K.jX0X1XqX&Xn e w w i MX=   & k.Z H +.,.1XW.L.@X-.3XG G T oXL.W.L.0X8.7.",
"x.k.[.3XP V.C z.zXU.z.k.kXfX;.z.Y x.xXP.=X  nXMXB GX; ] ; jXd.tXCX9XI x.C 2.8X0Xz.k.VX3XP c.I >.mX8.",
"3XW.].Z.;X;Xl.0XHX[.qXP.].Z.;X>XR qXAXBXY yXLXPXKXGX`.LXz AXk.xXhXV.>.:Xu.7.r.NXgX!.T.A.:X1Xb.9X`._.",
"=Xc.M.G rXCXhX2.n.I.>.:Xj.b hXBX).g.x.' _ LX/.{ PXSXSXu + 1Xf.c.N.D aXNXJ.&.O.,XO.*.2.C lXNXjXf.*.H.",
"R O.P.d.H h.b.L z.Z.P @.0Xl.G C.u.p.z t.% X ^ ~ [ 0.* + + @ U =X1XI K 7.=.Q &X4X=./ 8.:.P C.:.O.v.3X",
"pXm.Q.K.<.eX+.-XjXNXwXK.].k.m.1XO.V.C . 6 : q `.'.B 6 r l s.a.= ;.>Xc.6X^ <XbXcXL.[ } B.OXV.$.>XNXzX",
"b.T z.H hXQ.G.:XB.B.c.u.c.J wXNXwXf.n 3 t 5 |.UXcXt 2 & a.}.-   -XS fXiXH.<.-X,.1.o.+.K hXjXK.<.n.B.",
"OX>XhX>X:.z.$.W W.A.H 1XaXV.x.#.L v.l > f 0 d *X.X2 r 7 $ . X q hX>Xd.f.L #.L.h.T >XzXV.d.f.H x.P.K.",
"v.hXZXwXC R P ,.U.P.V.jXCXfXD OXR v.z 1 f 9 7 5 6 ! %X3 f d : 4 CXiXZ >.Z B.CXK.=XkXCXlXD c.:.B.uXY.",
"T n.#.L zXKXVXO.b ,.1.c.y.c.eXCXxXO.u 3 7 f q e d V w : g g < 1 b.>.zXKXFXR ;.R E z.:.;.tXZXVXY K x.",
":.U.G.h.lXKXcX+.j.#.c 6.F.M.qXU.>XU O @ @ 9 a XX|.@ @ : h g + 4 3._ lXFXzX..-.&.H U.K.>.L.jX0X>.%.7.",
"g.{.{.E.x @.O.K.(.5.' q.^.Q.G D ;.V < 7 O h a %X X X9 > h e . q q.7.x O.d.%.e.D.g.{.[.V.c b J Y.e.w.",
"R h...H d.h.C.6X).C.N / c K z.D.qXU e : + |.p g  X X0 < 7 > . q X.| L >.V.H.9.>XI f.G P h.A.2X0X/.6.",
"d.;.f.z.M.K.N.H.8.J...L >.2.N.L.N.U 6 : , 7 0 l a 6 < 7 f 9 6 O +X>X;.1XB.7.8.=XW L n.z.N.L.C.A.H.8.",
"<XjXJXjXT 5XY *.`.).5.jXBXgXb.<.E n 4 & % $ ~.; ; 4 & X g g r O >XuXT v.y.-.r.aX1XwXBXzXT =XS B.CXzX",
"5Xg.T.j.3XjX1X@X8.J.&.M.G.g.qXiXrXU LXz @ w n - * o o O g d 2 @ E y.yXiXC.7.8.aX>Xf.j.f.2XlX>X1XtXuX",
"T d.E.H l.I.L.O.=.c.F x.Z.J v.0XZ.U 5.l X # @ 9 @ @ : + < @ > @ 1XC c.J.4._ g.1XL >.Z.G B.L.V.#.g.C.",
"2XM.].>XR B.O.>.gXhXC.7./.*.E ;X..b.M 4 m 2 e $Xg 3 X N SXMX^ F Y.C.W >.| z.kXgXm.M.U.V.R x.O.<.hXiX",
"1Xl.+.;.2XhXB.c.H.L.sX^ / _ yXhXj.C.l t OX8 y 9 s e . B IXIX] K #.L 4XhX1XA.G.0X3X>.>.:.1XjXn.N.L.0X",
";.=XV.O.tXiXZ.#.9. .Q 1.7.| eXU.eX2.l u E 8 r @ O k s + ^ / % 5X:X,.1XW.E.k.D.>.T OX>X,.yXU.L.C.B.B.",
"-XhXHXhXA G F X.e.9.o.#XMX8.S I v +X^ w M g XX@ 1 %X X> X . -XzXHXuXS G x h.AXZ.@.zXZXyXC H Z L U.iX",
"-XZ.jXk.c.eXeXL ` _ 2.7.8.,Xc.A.4Xc.B w n g  X> < %X|.> X , D 7./.2.l.<XOX-.5.X.>.9.J.:Xz.fX4XK  .%.",
":.B.d.d.jXZXjX..D l.Y o.o.=XzXAXNX_ z w U p XX> 1 %X|.> X , L %./ o.DXKXFX| _ o.D 3._ u.DXPXFXD D 7.",
"y.Q.].I.P :.:.7.).F.^ 4./.V.z.#.P V.B u U d g @ 5 %X|.> O > ..0.0.7.R <X<X2.).5.c e.w.Z.:.:X-X;Xw.0.",
"f.jXD.h.S H @.eX_.D.O.7.5.d.P G u.0XJ.%.oXf j : 3 %Xk > + , ..6.} #.D L D J.(.D.../.&.R A @.R pX(.w.",
"L P L R 1XW.P.9XgXA.W R y.u.V.jX9XyX6.] M 5  X3 , g 9 @ @ , M  .m.u.qXNXN.7.4.m.C S y.W hXBXqXV./.} ",
"B.m.BXqXT C.Z x.kXU.#.k.BXfX..h.Y 2._.8.oX8 |.< 2 |.e 3 > X X.mXAXlXp.h.Z +.(.Y.S.L.[.6X1.f.D h.].).",
"rXgX].C.<.6X:.1XJXBXA.E.!.Z.B.1Xy.7X'._.N 7 0 : 3 f 2 2 > Y 5._.].Z.x.9XT 8.`.NXR.kXI.,XOXA.T eXMX_.",
",.:.{ c aXBXtXn.n.>XR x.m.T uXNXhXd.c.4 u 4 # O @ @ % # X S X.=.n.S fXNX8XOX;.:X>.` &.Z uXVXhXh.+.L.",
"1._ 6.` L x.#.A z.eXH g.E.y.O.v.b.-Xw B z % % o 4 M u o % # oX&X2Xz.Z 2.o.oX&X4X=.` F.u.Y ,X1.P B.2X",
"pX7.[ 5.-X3X@.7XjXjXW.G.E.A.>X9X5Xn $ 4 $ O O + N u % % # + V n C eXv.C.^ 5XbXcX7X[ 6.v.v.3XJ M.NXjX",
"-XT h.c lXVXK.N.B.;X,.#.f.I tXNX0XpXm @ + > , > . O O . O > oX5X4XT fXjXJ.c.=Xc.T $.-.D nXnXK.N.B.B.",
";.C.nXC.,.>.J W Y.H.Y sXzXB.#.z.K V.9Xv.-X4X&Xm q q t m 2X2XR >XjX<Xy.d.O.P M.j.Y A.iX7.| / X.R qX1X",
"2.e.#X#XL @.P O.I.M.S.zXCXaXL >.@.>XwXM.n.jXDXlX&XdX4X-XU.j.l.vXZXuXZ >.S B.VXK.;XhXAX7Xc +.1.R L.H.",
"1.-.-.OXtXZXCXO.G W u.n.n.N.pXCXVXK #.R W v.l.z.cXvXzXI A <.Q c.z.<.cXDXDXz.+.R L C.<.R zXPXDX..C OX",
"y.R.m.u.1XiX1X#.3.%._ 6.5.h.gXfXV.z.` 7.D 5.} $.6XuX9X:.5.o.D 5.] o.yXKXcXX.-.j.W I.M.:.cXFXdX<.{ F.",
"f.JX[.I.c Z I P.e.3._ e.(.I.v D E iX/.5.X.^.^.H.F Z P 3XnX] X.q.q.5.x W @.-.e.j.y.AX].M.x O.b.L.^.(.",
"F f.L K :.Z.1X9X6.5.c _ D L l.Z.1X0X/.7.x ` c D >.L.:XlXJ.] z ` ^ c :.B.H.H.9.C.G #.G S M.fX2X1X/.} ",
"<.$.1X,XV.wXM.eX8X8.L X.eXsXN.J.V.2XiXH.A +.8X<XN.I.C.4XY.7.D 2.7X;X+X0Xn.>X8XL.@.<.rX=XV.U.N.>XJ.J."
};
