/* XPM */
static char *policecarr1677860241[] = {
/* columns rows colors chars-per-pixel */
"50 50 242 2 ",
"   c #0D050D",
".  c #0E0B15",
"X  c #150A16",
"o  c #130C15",
"O  c #17141A",
"+  c #19141D",
"@  c #181923",
"#  c #1C1B24",
"$  c #221D26",
"%  c #1D2227",
"&  c #1D222E",
"*  c #1D2A34",
"=  c #26242B",
"-  c #352A2E",
";  c #262A34",
":  c #2B333B",
">  c #36353A",
",  c #4A3837",
"<  c #643C3E",
"1  c #4A433D",
"2  c #283941",
"3  c #363B45",
"4  c #453E42",
"5  c #3B454A",
"6  c #324B50",
"7  c #3F5D62",
"8  c #464549",
"9  c #4C4A4D",
"0  c #594B49",
"q  c #57534C",
"w  c #494D53",
"e  c #544F52",
"r  c #4B555D",
"t  c #555152",
"y  c #5D5553",
"u  c #5A5858",
"i  c #5D5C5C",
"p  c #664C4B",
"a  c #68584E",
"s  c #695A57",
"d  c #635D5A",
"f  c #735554",
"g  c #66635B",
"h  c #6B635C",
"j  c #75685C",
"k  c #485B60",
"l  c #575C65",
"z  c #645F62",
"x  c #4A676B",
"c  c #5C656C",
"v  c #546A78",
"b  c #58737D",
"n  c #646363",
"m  c #6B6563",
"M  c #6D6A66",
"N  c #68656A",
"B  c #6E6A6B",
"V  c #746C64",
"C  c #7B6866",
"Z  c #7B6D64",
"A  c #726D6C",
"S  c #757164",
"D  c #7D7264",
"F  c #75716B",
"G  c #7B746C",
"H  c #7E796D",
"J  c #656D74",
"K  c #6B6E72",
"L  c #736F71",
"P  c #6B787B",
"I  c #747373",
"U  c #7B7572",
"Y  c #7B7979",
"T  c #855B5B",
"R  c #8C6159",
"E  c #A76A5A",
"W  c #B86C5C",
"Q  c #BB735C",
"!  c #836D66",
"~  c #896B66",
"^  c #976A66",
"/  c #847266",
"(  c #877665",
")  c #84746C",
"_  c #8C736B",
"`  c #857B6D",
"'  c #8A7C6D",
"]  c #9A746A",
"[  c #96796D",
"{  c #8B7673",
"}  c #847C73",
"|  c #857A77",
" . c #8B7D73",
".. c #8A7D79",
"X. c #977774",
"o. c #937B73",
"O. c #9B7C73",
"+. c #A46E65",
"@. c #B56C65",
"#. c #A47264",
"$. c #A2746B",
"%. c #AB746B",
"&. c #A77868",
"*. c #AA7B6C",
"=. c #B77665",
"-. c #B37B6C",
";. c #BB7B6B",
":. c #A67B75",
">. c #B87A75",
",. c #C26B5A",
"<. c #C6775C",
"1. c #C57768",
"2. c #C5797A",
"3. c #76807E",
"4. c #8B816E",
"5. c #93826E",
"6. c #9A8A6C",
"7. c #878377",
"8. c #8C8274",
"9. c #8D847A",
"0. c #938574",
"q. c #9B8474",
"w. c #958974",
"e. c #9B8B75",
"r. c #92867A",
"t. c #9B847C",
"y. c #948A7B",
"u. c #9C8C7B",
"i. c #9D9175",
"p. c #9D927C",
"a. c #AB836D",
"s. c #B9836B",
"d. c #A4966D",
"f. c #AC8375",
"g. c #A28C74",
"h. c #A3847A",
"j. c #A28D7B",
"k. c #A98878",
"l. c #B28274",
"z. c #BB8473",
"x. c #BC8C73",
"c. c #B3847B",
"v. c #B68879",
"b. c #A29375",
"n. c #AB9277",
"m. c #A59975",
"M. c #AB9C74",
"N. c #A3937C",
"B. c #A9957D",
"V. c #A59A7B",
"C. c #AB9C7B",
"Z. c #B5957A",
"A. c #B6A36E",
"S. c #AEA27A",
"D. c #B5A375",
"F. c #B2A37B",
"G. c #C58469",
"H. c #C58776",
"J. c #CC8D7A",
"K. c #667C84",
"L. c #787A81",
"P. c #907E81",
"I. c #C87F83",
"U. c #768286",
"Y. c #70878F",
"T. c #70A1AA",
"R. c #848585",
"E. c #88898A",
"W. c #958C82",
"Q. c #9B8D82",
"!. c #978A88",
"~. c #9C9283",
"^. c #95948B",
"/. c #9C948B",
"(. c #848891",
"). c #859497",
"_. c #9A9897",
"`. c #A68B85",
"'. c #B78C84",
"]. c #A39482",
"[. c #AA9681",
"{. c #A69983",
"}. c #AC9A83",
"|. c #A3948C",
" X c #A49A8D",
".X c #AB9C8B",
"XX c #B79387",
"oX c #B19E85",
"OX c #B39E8A",
"+X c #A69D95",
"@X c #BD9C97",
"#X c #9DA196",
"$X c #AEA28A",
"%X c #B3A483",
"&X c #BBAD84",
"*X c #B3A28B",
"=X c #BAA889",
"-X c #BCB18D",
";X c #AAA195",
":X c #ACA49D",
">X c #B3A492",
",X c #B6A896",
"<X c #B9AA94",
"1X c #BCAC99",
"2X c #BEB199",
"3X c #929DA6",
"4X c #9AB2B5",
"5X c #AAA7A6",
"6X c #B7ABA4",
"7X c #B8B2AA",
"8X c #A0AAB2",
"9X c #AAB9BA",
"0X c #B8BAB6",
"qX c #C7938C",
"wX c #C39A88",
"eX c #C3AF91",
"rX c #C5B7A8",
"tX c #C6BDB5",
"yX c #BFC1BC",
"uX c #CDC0AF",
"iX c #C8C3B9",
"pX c #D1C8BC",
"aX c #E0C2BC",
"sX c #A4BCC1",
"dX c #90C7D2",
"fX c #BCD9DA",
"gX c #CAC9C4",
"hX c #D3CDC4",
"jX c #D4CEC7",
"kX c #D8D4CB",
"lX c #DAD8D2",
"zX c #E2D9CB",
"xX c #E2DCD4",
"cX c #EBE4D8",
"vX c #ECE5DA",
"bX c #F1E7DD",
"nX c #F2EADE",
"mX c #ECECE2",
"MX c #F5EDE2",
"NX c #F9EFE3",
"BX c #F7F2E7",
"VX c #FAF1E4",
/* pixels */
"0.F.&X-XU ` G *.1.,._ F.&Xr.} 8.} ] 1.=.;.G.G.wXI 0._ C @.1.p 1.1.v.) | ` :.>.c.a.s.s.:.C ( U V }.u.",
"i.V.m.N.>XN.N.'.v.c._ V.m.8.+XN.p.j.z.l.z.-.Q j.~.j.XX] >.v.p >.@.[ @XQ.k.v.>.l.:.] >.^ Q.j.]. .oXOX",
"7.V.V.~..XN.].{ /.`.F p.m.G ~.].7.t.t.W.W.&.;.5.o.:.'.C ].|.8 :.%._ h./.$.:.}.f.[ $.z.~ r.[.~.D [.}.",
" Xi.e.$XB I B Q.p.].7.e.w.H F B g | +X/.;X0.a.[.A N A r.}.;Xm o.$.O.M I n u.V.n.h.0.h.X.F m I Z N.[.",
"y.' ' q.x.x.:.[.N.N.8.5.5.h 8.N.W.9.|.Q.`.o.5.0..X[.8.7.].].V w.[ D {.].[.j.N.N.0.w.' 0.~.N.` V u.j.",
"} 4./ j ,.=.1.t.u.8.U D ' Z e.u.u.o.~ / {  ./ Z {.[.}.U r. .F ' ` F }.N.{.q.8.} 8.| ) / j.N.p.n  .` ",
"7.oX*X=XT f m OXN.u.I }.%X0.G q g ~ 1.W $.v.}.}.m m s  .N.y.m }..Xj.} q d u.N.p.u.}.*X~.M h s V i.q.",
"Y >X}.2X6Xq.N.c.>.l.C 1.:.{ ].N.r.i.m.i.u.&XS.>X X[.OX..Z.%.z G.[..X1X}.N.N.N.N.9.m.C.].u.<X X) ] %.",
"i j a h }.N.w.n V h s p a g  X}.u.V g S M j a y |.OX*XB g s i p d y b.>X1XA d S h a u j ;XrX:Xd s ~ ",
"e A.A.D.7./ F v.-.&.-.<.G.( y.` H 7.F.d.S S.V.p.U  .9. Xa.%.s %.N.y.' 0.8.u.[.i.p.M.M.0.9.Q./.o.=.W ",
"m M.M.M.8.' Q.eXZ.d.a.G.Z.4.4.5.} y.F.S.H F.C.e.8.' {.+Xn.Z.q a.e.w.8.0.t.[.f.N.i.S.m.r.'  .9.) ;.,.",
"e u N m e.q.{.2X%X$Xi 9 n n 0.e.0.p.p.S.q q 9 B i.w.e.:X*X.XF 9 u i q.w.g.'.%.+Xh u N F 0.e.b.' c.%.",
"w.D.M.rXw.5. .~.=X&XH m.F.y.9.8.8. XeX&XF.-X-X2Xy.4.8.H =XF.g -X*X;X~.9.o.`.qX=X{.b.M. X7.0.4.! J.;.",
"w.C.m.}.` ` 9.%X&XF.4.S.S.9...9.7.i.-X%XF.F.S.m.}  .7.9.}.S.q 2X}.u.W.8.| >.I.=X$Xm.m.u.} 8.9./ s.@.",
"} S S ) }.}.}.N.{.$Xm 4.D M {.N.N.p.p.=X9.h j G p.C.%X7.N.$Xt 7.U U OXn.f.Q.W..X{ j j V p.B.}.9.k.XX",
"U u.b.N.r.w.}.p.}.V.h e.m.` 9.' w.r.{.}.].].{.0...r.e.W.=XkXu ' w.{ o.' O.|.5X|.O.+.W ` |  .0.j }.V.",
"/.w.b.V.y.9.t.N.j.[ s - 4 e s P.9.w.V.B..Xu.u.N.W.Q.u.r.B.<XiX~.^.7.9.d 8 i 3.} o.>.@.0.} u.y.G N.}.",
"7.V  .| oX}.p.t.uX6X!.+X+X+Xf $.( 6XuXrXuXtXuXU 7XuXtX0XrXrXD 7X^.6XuX_.5X5X5X_.7XrXT / u.N.8.g w.0.",
"U {..X.XN.N.u.6XT.BXMXMXmXmXtX5X+XtXjXjXjXjXxXhXiXlXlXgXU.K kX3.7.cXcXMXcXnXBXMXVXdXf .Xy.e.i.Z B.e.",
"V [.*X%X8 B < cXbXbXmXlXbX5XL 2 2 : 3 2 3 3 lXxX3 2 2 6 E.i k 6 5 rXMXMXNXNXBXcXnXNXdX0X, m G h q.g.",
"M {.0.].2X>XtX0X:XgXvXmXjXU P._.5X+X/._._.(.0X7X5 J P kX= * 2 x 5 > cXnXNXMXMXVXNXBXBXaXv.=X}.G w.e.",
"i m.6.e.2X7XhXY.= P.P.K L P K Y +X0XhXjXiXgX0XtX7XzXVXY & ; * 6 5 = cXnXnXMXnXMXMXVXVXNXrX*XC.( :.#.",
"q A.A.d.0 m L.v $ K.3 * @ * & & w r gXpXgXpXpXjXcXVXMX8 6 * * 6 x + 6XnXnXnXnXMXnXMXNXVX/.1 F ) %.W ",
"S m.8.6.Q.^.K.v # J ; O @ & & & 5 L.gXjXjXjXjXbXMXMXnXY #X2 * 2 x - 8 vXnXnXnXcXiXlXnXNXrXN.%X0.-.@.",
"g S ( ' u.^.l v # K.; + X @ & & P 9Xe 3 e > > xXvXnXxXg _.2 * 2 k % - cXvXnXnX).c (.pXnXrXq.9.) [ ] ",
"8.S.A.&X0.E.b v # J - X . X & ; (.xXw 3X8XJ 3 9X_.0X_.I #X; @ 2 5 + u cXcXnXxX).U.7XiXMX0XW.} Z oX}.",
"} %Xb.e.<X~.P v $ c ; X . . . # +XlX8 Y.l N : ).E.gX3._._.@ . : : O tXvXvXnXcX9X3XlXnXnXrX/.u.9.B.}.",
"M 8.6.7.~.R.Y.v # J $ X . X X + U.sX8 ; = = ; U.9XnXnXkX4 @ X ; # - kXvXcXvXbXvXnXnXnXMXrX/.N.s a } ",
"u.g.M.N._.E.U.K.@ J l r r l k r 3XsX8XsX4X4XsX9XgXlXlXtX= # X ; $ q zXxXxXcXvXcXbXnXmX7X`.!.p.D B.B.",
"{.u.B.y.2X*Xu Y.7 k K.L.c P w 8 5 8 3 5 5 8 J (.z 9 w R.l $ + : : 5XcXbXMXMXMXcXvXcX3.^.j.}.W.G [.oX",
"..W.*XQ.oX{.r.fX3XY.x ).Y.U.> 3 o o X X + X K I X O + # $ X 3XP.L cXvXvXjX#XMXjX).T.q /.p.0.w.D OXe.",
"Y ,XOX>X.XQ.r.{ C !.(.L.P P P E.N | 4 = e L U | N u 4 4 , z 9 4 E.7XyXE.L.5X6X/. ., -X,X` 8.~.G g.f.",
"} %X%X%X+X>X>X( -.+.- . $ +   OX.X`.&.$.O.c.%.'.~.oX.X..h.rX+X=.H.:.`.  O $ X < E E ;.].r.>X+XC ] E ",
"n S.C.p.eX*X*X:.l.h.f T X.s j >X{.q.f.a.! >.>.[.,X>X}. .k.wXL 2.Q _ wXR.P.! R ] ~ ;.H.{.$X<X6XC a.=.",
"9 S.F.oX*Xq.e.z.s.*.] @.f.! [ 0.{.O.x.&.C @.@.v.<X0.N.|.q.#.s @.,.+.`.7X:.[ -.#.%.Q W $X.X6XA _ -.,.",
"t M.6.i.r.8..XOXx.a.:.>.[ ) ) 8.0._ s.&.C %.^ 6.} r.*X Xv.;.q ;.=.] | | { :.Q &.O.-.~ ' H u.|.{ 1.,.",
"V {.4.W.8.i.}.$Xi.i.8.p.y.} 0.N.u.O.+.$.q.].4.~.0.b.[.^.q.+.8 *.OXy.i.i.t.h.+.N.~.~.4.7.y.B.u./ #.E ",
"7.=XD.*Xy.u.w.4.b.b.H F.F.4.` j...X.;.>.'.%Xm.$X .w.7.G v.=.d qX-XN.N.e...O.z.b.{.V.C.~.} N.9.Z H.Q ",
"p.b.D.b.6Xp.$X<XV.-X8.S.F.` .X[.].[.H.J.qXb.S.S.{.].>XY g.H.0 J.%Xm.eXN.`.qX;.eXS.m.j.r.|.].N./ G.J.",
"7.`.$.] >X{.V.0.N.e.S C.V.H .XoXy.0.t.k.}.}.N.~.].}.{.} u.h.s :.8.U <XC.O.W.E.W.o.] =.7.~.oX[...h.B.",
"7.O.$.*.r.8.0.' y.u.j V.V.F 8.w. .G ` 0.u.N.C.w.} 0.0.A 0.0.e $.u.8.0.o.~ | R.Q.t.$.@. .) r.' m 8.u.",
"!.O.+.-. Xu.0.}.[.C.r.w.d.D y.0.8.w.B.C.}.e.i.%X,XN.5. .N.c.A $.N.0.p.0.X./.#X|.t.%.E Q./.y.' j }.>X",
"E.{ { ~ <X}.N.:XQ.` 7.y.i.V w.V.i.y.y.9.y.9.u.0.{.N.%XW.0. ._ _  .m N.k.:.!.E.Y { { %.0.u.[.V.V  . .",
"U '.XXOX.X0.y.y.}.0.U 1X1Xy.r.0.` w.}.w.7.}.<XrXi.w.0. .[.N.Y OX}.t..X0.8.q.B.Q.} >XrXc.^ ^ ` V C.u.",
"G I.I.'.<Xr.9.} {.u.} [.$X9.~.u.r.y.N.u.W.<X}.oXW.p.Q.W.u.N.M .X>X~.:Xu.r.j.[.j.W.].oXh.X.[.!.| i.e.",
"B _ { ) *XN.>Xm a B I N.u.D y..Xp.G y } ..8.`.u.p.oXoXc h G u } ..G 7X.X1X| q F L | r.8.u.rX1Xs g h ",
"t M.}.*X*X}.>XV.@.%.$.=.x.0.e.<Xu.q.qXa.s G.G.F.*X*XV.u.f.-.d W 1.:.XX:X>XO.>.b.w.D.C.OX;X1X:Xo.s.<.",
"i D.C.C.;Xr.Q.wX=.%.] 1.-.[ u. .H a.;.*./ 1.G.a.|.~.Q.Q.f.%.d W W ] XXW.o.:.@.N.p.D.V.u.r.p.Q.' G.<.",
"i w.8.8.{.e.$X<X1.>.^ +.! ) u.e.u.q.-.z.~ #.! o.u.~.}.+XZ.1., ^ ^ ~ h.r.q.'.>.B.w.6.G r.{.$Xu. .G.<.",
"` %X=X7Xp.N.p.*XqX;.j ;.XXW.o.g.r. Xk.;.h.J.J.rXw.g.q./.wX=.u >.H.`.O.Q.e.XX>.Z.y.*X*X~. .B.8.0.H.<."
};
