/* XPM */
static char *policemanright1677941111[] = {
/* columns rows colors chars-per-pixel */
"50 50 256 2 ",
"   c #190C2D",
".  c #080739",
"X  c #160B38",
"o  c #181538",
"O  c #0D0D34",
"+  c #25193C",
"@  c #250D32",
"#  c #3A2C34",
"$  c #2E2835",
"%  c #271416",
"&  c #5D3736",
"*  c #574637",
"=  c #6B542F",
"-  c #090D47",
";  c #100E42",
":  c #0C144C",
">  c #0A1647",
",  c #171547",
"<  c #0B1C52",
"1  c #091651",
"2  c #161E53",
"3  c #291C43",
"4  c #321A4A",
"5  c #16224B",
"6  c #0C2357",
"7  c #142453",
"8  c #172857",
"9  c #18375B",
"0  c #292748",
"q  c #352546",
"w  c #2B2852",
"e  c #243559",
"r  c #393558",
"t  c #2F354F",
"y  c #1A3963",
"u  c #132962",
"i  c #253C66",
"p  c #383967",
"a  c #46354D",
"s  c #513B54",
"d  c #4D3955",
"f  c #473B61",
"g  c #34565D",
"h  c #2E475A",
"j  c #1A4567",
"k  c #1D5469",
"l  c #274868",
"z  c #324865",
"x  c #29556E",
"c  c #274D74",
"v  c #295674",
"b  c #315C7D",
"n  c #385A64",
"m  c #35647A",
"M  c #2C6479",
"N  c #134A5E",
"B  c #494559",
"V  c #564759",
"C  c #4F5453",
"Z  c #644859",
"A  c #70515A",
"S  c #736152",
"D  c #57556A",
"F  c #555E72",
"G  c #4D4967",
"H  c #665768",
"J  c #6B5266",
"K  c #4B6A72",
"L  c #68686E",
"P  c #786668",
"I  c #7D756B",
"U  c #7D7B6C",
"Y  c #75756A",
"T  c #676777",
"R  c #786B73",
"E  c #7D7A73",
"W  c #7A7677",
"Q  c #5E755B",
"!  c #8E5956",
"~  c #876659",
"^  c #966B5A",
"/  c #947D49",
"(  c #AC755D",
")  c #8C6B64",
"_  c #856C6B",
"`  c #8B6D6A",
"'  c #876464",
"]  c #936B63",
"[  c #926E6C",
"{  c #9A6D6D",
"}  c #976864",
"|  c #837567",
" . c #84746C",
".. c #8B746B",
"X. c #837B6C",
"o. c #8B7C6D",
"O. c #877663",
"+. c #93736C",
"@. c #9C746C",
"#. c #957A6C",
"$. c #9B7B6C",
"%. c #967365",
"&. c #956A73",
"*. c #8C7473",
"=. c #847C73",
"-. c #8B7C74",
";. c #847C7A",
":. c #8B7C7A",
">. c #857477",
",. c #9C7673",
"<. c #927D73",
"1. c #9D7C73",
"2. c #947D7A",
"3. c #957676",
"4. c #8D6E74",
"5. c #A66C66",
"6. c #B46C66",
"7. c #A3746B",
"8. c #AB7B6A",
"9. c #A77867",
"0. c #B8776A",
"q. c #AC7C74",
"w. c #A47E7B",
"e. c #A67875",
"r. c #B57A77",
"t. c #B16E73",
"y. c #C8795C",
"u. c #C86F5E",
"i. c #C67968",
"p. c #CA7A7C",
"a. c #C56E66",
"s. c #6D9479",
"d. c #A88E37",
"f. c #85826D",
"g. c #8B836D",
"h. c #8B876C",
"j. c #95846D",
"k. c #9B836F",
"l. c #978C6D",
"z. c #858274",
"x. c #8C8374",
"c. c #8E8A74",
"v. c #85827B",
"b. c #8C837B",
"n. c #8E8A7C",
"m. c #87897A",
"M. c #938474",
"N. c #9A8475",
"B. c #948B74",
"V. c #9B8C75",
"C. c #93847B",
"Z. c #9A857B",
"A. c #948A7B",
"S. c #9B8C7C",
"D. c #9C9275",
"F. c #94917B",
"G. c #9C937C",
"H. c #9C9878",
"J. c #8E9279",
"K. c #A7866B",
"L. c #B88469",
"P. c #A6956B",
"I. c #A38375",
"U. c #A38D76",
"Y. c #A4847C",
"T. c #AB837B",
"R. c #A28D7C",
"E. c #AC8776",
"W. c #B2837A",
"Q. c #B88778",
"!. c #A39474",
"~. c #AB9573",
"^. c #AA9B74",
"/. c #A4937C",
"(. c #AA947C",
"). c #A59B7D",
"_. c #AB9B7D",
"`. c #A49974",
"'. c #B2987B",
"]. c #B49E6F",
"[. c #ADA17B",
"{. c #B8A679",
"}. c #A58D45",
"|. c #CD825E",
" X c #C98568",
".X c #C78677",
"XX c #D28878",
"oX c #CD9573",
"OX c #C2AC75",
"+X c #2E5A81",
"@X c #3C7389",
"#X c #2E6686",
"$X c #456D8A",
"%X c #797A81",
"&X c #696D86",
"*X c #967E84",
"=X c #B07B82",
"-X c #708A9B",
";X c #8C8581",
":X c #8D8B83",
">X c #888786",
",X c #938583",
"<X c #9B8582",
"1X c #938B83",
"2X c #9B8C82",
"3X c #9B8D8B",
"4X c #95888B",
"5X c #9B9283",
"6X c #9D928A",
"7X c #9A9687",
"8X c #989695",
"9X c #879293",
"0X c #A38B82",
"qX c #A78B83",
"wX c #B38682",
"eX c #A39383",
"rX c #A99584",
"tX c #A49A85",
"yX c #AA9B83",
"uX c #A3958A",
"iX c #A59A8A",
"pX c #AC9C8B",
"aX c #AB948A",
"sX c #B29C84",
"dX c #BD9A84",
"fX c #B29D8C",
"gX c #B29485",
"hX c #AB9E94",
"jX c #A59B99",
"kX c #B19F93",
"lX c #9FA194",
"zX c #ACA184",
"xX c #ABA18B",
"cX c #A7A487",
"vX c #B2A28A",
"bX c #B7A787",
"nX c #ADA296",
"mX c #BBAA93",
"MX c #B5A897",
"NX c #B6ACA2",
"BX c #B0ADA6",
"VX c #AAA0A8",
"CX c #C78882",
"ZX c #CC8D84",
"AX c #C3A98C",
"SX c #D0A189",
"DX c #C5B38C",
"FX c #C4AC93",
"GX c #C3B491",
"HX c #D7AC96",
"JX c #C8B4A7",
"KX c #C8B4AD",
"LX c #EAB69B",
"PX c #D7C7AB",
"IX c #EAC9A4",
"UX c #CDC6CE",
/* pixels */
"mXMX2Xb.Z.2.=XCXQ.E.dXCX*Xv.1X;XwXi.i.8.XXZXw.;.7X:X'.oXi.8..XXXY.m.2XC.vXGXzXK.XXXX1.M.2XC.xXDX[.).",
"sXyX6X5XgX0X4.t.K.7.Q.r.T.T.aX<X4.6.7.@.r.Q.w.w.qX6Xl.( 6.7.Q.Q.0XeX).7XB.[.D.k.r.Q.Z.2XpX7Xc./.H.B.",
"eXZ.g.F./.C.' @.%.` 8.B.#.t.=X*X_ 5.>.W ,XC.-.e.q.<. .9.{ W <XC.-.S.aX;XX.V.x.E ,X:.<.Z.tXb.X.G.b.z.",
"yX(.x.z.Z.:.<.I.k.1.~._.C.4.*Xs.N.K.C.1XcXcXb.*.<.-.j.L.$.:XxX8Xb.;.4X:.A.~.V.n.uXuXx.z.B.x.A.(.F.F.",
"eX5X,XC.sXuXz.g.h.A.5X).A.A.iX6X=.1.x.S.yXrXC.C.uX7Xz.z.:.,X3XuX1XC.).7X-.#.g.1XeX).N.7.L.W.+.M.b.eX",
"S.2XM.Z.yXuXv.V.b.:.C.S.V.G.yXG.z.2Xb.-.M.Z.C.C.;.W T T R R +.@.N.V._.G.M.V.b.;.A.S.N.5.a.t.#.S.n.2.",
"~.(.U =.X.X.eXGXfXb.U.sXA.W -.o.yXFXpXx.A./.=.D l v M K z P 6.i.1.E X.=.tXFXrXM.S.'.C._ [ _ yXGXxX:X",
"1...W 6XiXC.S.yX).g.j.j.b.6XaXM.S.yXY.*._ D p j b c K s.x L $.L.b.A.G.4XC.T.w...#.$.M.1XeXA.A.(.uX;X",
"@.] >.BXPXNX:.j.D.X.b.=.z.vXFXiXx.#.{ ' 0 : 6 y y y n K g Y m.m.U V.bXMX-.%.5.) %.@. .A.bXvXM.N.G.-.",
"i.0.M.4XuX2XB.'.[.x.D._.A.C.S.x.A.(.0.S 3 - 1 : 5 e C Q C L A.{.B.;.b.A.~. X|.^ 9.0.$.;.C.M.`.OX{.h.",
"i..X0Xx.o. .o.D.H.x.U.Q.0Xb.X.I C.V.K.^ P o O X w 8 N k j e R {.iX:Xo.| V.K.L.O.K.].eX1X-...x.P.[.B.",
"r.W.eXG.!.Z.;.z.X.I 2XqX=XU.!.A.:.M.O.I f.# % & 0.A B r i G v._.eXeX(.V.z.f.f.I /.yX6X5X(.M.v.f.X.U ",
"r..XN.=.n.z.5XzXH.B.aXW.,.=.n.z.eXmXiXc.).! ^ ^ HX,.XXQ.a W yXbXF.;.C.:.tXzXD.B._.bXA.X.A.=.7X{.D.J.",
"XXXXR.b.2XA.A.~.].).dX.X1.:.A.b.S.zXMX`.yX~ OXXXLXKXIXHX0X;.{.bXG.b.2X1XH.{._./.AXDXeXx.2XC./.{._.5X",
"(.N.M.).vXiXX.#.#.-.3X-.<.E.sXeX*.C.m.z.R 4 Z p.LXLX|.L.ZX..}.x.h.(.bXeXf.l.A.b.~.V.A.tXMX2XX.V.M.b.",
"7XA.-.M.2Xz.-.t.^ *.8X>XW 3.w.=.E A.X.Y q X , s 6.u.! S 0 # = S X.b.S.X.h./.x.z.G.A.X.b.V.o.g.`.o.v.",
"vXvXA.o.S.C.N.8.( Z.nXVX,X` 0XA.C.X.= d.}.C 8 6 Z p.p.f - 7 + H M.-.G.V.B.'.D.(.fXyXA.<.0XA.V.^.B.3X",
"0XS.C.V.yXtXo.<.[ ;.>X4X2.Z.(.eX;.W # = }.}.$ 6 c 8XUX$X8 9 8 C -.R.sXyXf.A.m.b.5XG.A.V._.yXx.C.z.;X",
"U.(.c.X.M.M.G.xXS.;.j./.-.o.g.x.2XeXw X o 0 6 N y +X-Xc 9 l 7 V z.-.M.M.G.vX5Xo.D.^.v.X.x.z.G.pX5X>X",
"(.yXA.-.C.=.iXmXpXn.D.fXA.=.-.X.pXxXw ; 9 y 7 K g y u y 9 i 8 V v.v.b.-.tXmXvXA./.~.z.x.z.X.rXmXpX,X",
"A.X.;.fXAXrXC.M.A.;.=.-.n.MXKXkXM.-.w > k c > t n x y e y 8 5 d =.xXmXuXc.c.C.;.;.I -.MXJXhXg.j.V.;.",
"e.7.M.eXzX/.M.V.`.o.#.{ o.nXJXhX%.} w ; x z 1 O 8 m m l 9 O ; , L 2XrX/.U.L.8.~ o.$.<.kXJXhXl.P.~.;.",
"i.i.(.g.X.| B.{.{.l.K.0.7.x.-.Y @.6.w . u l : 8 +X@XK n l - < 7 F W ^ s.~. Xy.^ 9. XN.x.=.| P.OXOXh.",
"0.i.(.5XB.o.X.X.j.X.2.r.w.N.<.I ` } w . 1 8 6 8 #X#Xx l c > - 9 L A.k.x.X.%.] ' I..XU.Z.M.o.X.g.l.X.",
"W.(.S.V.S.C.C.B.=.;.Z.r.w.C.S.;.,X4., < y l 7 < 9 h h $ 8 , - 8 F n.S.C.C.<.*.` q.r.I.C.S.Z.B.A.b.-.",
"kXFX1X=.b.b.pXbX/.5XgXp.,.=.n.-.uX;., 8 x x O @ $ * = S + + q a H W C.m.).bX'.K..XXX1.=.,Xb.zXOX_.3X",
"fXyX5X2XiX7XM.l.M.S.aXW.w.e.rX2Xv.R : < N j . X   # * C 3 o Z dX>.5XyX5Xl.`.V.k.Q.r.2.qXzX5XV.~.B.1X",
"0Xj.x.S.5XA.X.V.M.=.5Xl.@.5.W.x.U ;.0 : 5 w - . . , e , o o V #.W A.rXb.f.D.c.E C.<.<.U./.m.o.P.h.E ",
"sXyXC.-.B.b.V./.V.A.zXzXM.` 2.v.C.V.P ! ZXAXZ o < c M y 8 B r H ;.o.1Xb.1.r.e.Z.pXeX-.o.A.b.S.'.D.4X",
"aXS.M.Z.tX7X-.M.b.F.tX^.B.G.pX5X-.x.I } IXIXD ; 9 l 9 u y &Xf G <.k.yX0X] ! } <X/.U.C.A.pX6X:.<.b.5X",
"A.G.M.A.).eXC.3X,X;.<.P.D.H._.1Xb.5X:.s ! A , j x > . y j L B Z 2.2X).2X[ e.3.E *.t.1.B.).eXb.2Xn.:.",
"(.(.=. .X. .eXFXaX-.V.{.l.| X.E aXFXhXR +   < M @X7 < m x D s J :.U =.4.r.ZXr.{ t.6._ E X.X._.DXpX:X",
"7.`  .8XxX1X2XE.q.o.#.8.@.*XuX;X1.0.w.P , O < b @X7 < m v D a H -.7XH.A.0X=Xe.4.[ ^ ..2XaXA.S._.tX:X",
"7.' _ BXPXMXx.%.5._ [ ] [ VXKXkX{ 5.@.P , . 1 +X@X5 < m x F a Z ..sXAXpXC.#.{ _ *._ o.yXAXzXB.l.F.z.",
"i.i.<X4X2Xn.A.0.a.) 9.L.w.*X4X2.8.u.6.P X . 1 b $X5 > c x T V J C.z.j.x.Z.L.6.' 8.Q.Z.<.x.x.`.{.[.h.",
"i..X2Xb.g.X.=.$.8.#.K. Xq.>.=. .%.L.( ~ , . 1 v @X7 1 v x T { q.rXm.X.X.h.9.w...K.oX/.-.X.U h.K.).x.",
"i.L.Z./.bXeXz.x.X.I N.8.w.,X(.G.m.V.) H , . > 9 v 7 2 b 9 H 5.L.qXeXyXA.b.h.z.E H.[.7X/.(.A.v.x.x.X.",
".XoXN.X.M.M.eX'.!.F.'..X@.I l.h.iXAXW._ , - < y b 6 6 x y T q..X2.=.M.o.iX{.D.M._.bXA.=.N.:.7X{.B.A.",
"oXoXqXb.S.,X2X`.[.H.ZXoXe.-.G.A.G.{..X@.J , - < y 1 - 5 e J r.XXT.x.5XS.G.{.`.H.AXmXG.b.eXC.V.].(.uX",
"U.I.B.rXmXeX=.#.$.#.1X2.*XY.dXtX=.M.<._ H X X @ , ; . X 4 a V X.C.tXbXeXz.V.h.z./.D.M./.bXeX+.$.:.b.",
"tXA.-.z.,X>XX.8.^ +.8X9XW ` 1.;.z.1X-XL + @ @ a V w X @ + s d d -Xn.S.2.z.).l.o./.A.*.g.S.=.] 6.+.:.",
"vXsXV.-.5XA.B.8.5.0XlXVX4X` N.n.4XW L D X     + d s X . X o 3 0 H :X7X2XJ.`.P.`.sXsXZ.g.7Xn.7.( ,.3X",
"S.G.C.U.Q.wX4.,.%.4.,X:XC.E.'.tXb.4X,XT w ; O ; ; ; 2 2 , , 0 D A./.pXeXf.l.M.b.2XS.C.!.vXiX) j.=.>X",
"5X5Xv._ } ] e.gXF.s.N.V.X.X.x.v.S.vXuX-X*X%XD p e r G &X>X;.;.F.A.;.M.M.2XpX3X=.<XU.z.=.C.b.S.Q.w.>.",
"R.S.z.M.1.) Y.bXxXC.U.sXA.=.b.=.rXFXkXm.l./.,X9X9X-X8XMXxXM.V.eXS.M.b.<.pXmXxXn.V.V.=.x.x.-.wXp.r.e.",
"b.I -.MXJXMXb.A.A.=.=.<.C.MXJXhXZ.M.,XY -...x.xXNXjXC.Z.A.E =.o.;.pXmXtXC.V.Z.v.E I -.vXAXiX*Xe.e.<.",
"L.8.C.lXNXhXx.!.!.=.<.{ 3.nXNXuX7.5.9._ } $.M.2XrXS.j.( 8.) @.9.M.S.tX5XM.8.5.) { 5.j.F.aXS.x.D.`.s.",
"y. XU.n.M.U B.[.{.h.$.t.7.x.;.I 9.u.u.] 5.Q.5Xz.X.U K.|.y.[ 8.L.(.v.| f.!. Xi.} 5.i.R.z.I  .D.{.{.M.",
"y. X2X5XtXN.E X.g.U Z.t.Y.Z.C.=._ ) ] ' 5.Q.8X5XV.z.X.) ^ ~ 7.Q.0X0XV.x.=.*.] ~ 7.0.eXG.V.-.z.g.c.Y ",
"Q.'.0X2X'.2X:X5XM.X.U.wX0XS./.2.;X=X_ _ 8.wX6XG.(.A.<XY.[  .E.gXuX5X(.C.4X<X_  .q.wXaX5XeXS.4X2Xo.=."
};
