/* XPM */
static char *policecaarred21678102907[] = {
/* columns rows colors chars-per-pixel */
"50 50 246 2 ",
"   c #000001",
".  c #06040B",
"X  c #1C0101",
"o  c #080815",
"O  c #150915",
"+  c #130C15",
"@  c #17141A",
"#  c #19141D",
"$  c #030B2D",
"%  c #171823",
"&  c #1C1B24",
"*  c #221D26",
"=  c #1D2227",
"-  c #1D222E",
";  c #1D2A34",
":  c #27252B",
">  c #352A2E",
",  c #262A34",
"<  c #293237",
"1  c #2C343E",
"2  c #3C393C",
"3  c #453836",
"4  c #5A3637",
"5  c #643C3E",
"6  c #4A433D",
"7  c #232C49",
"8  c #283741",
"9  c #363B45",
"0  c #061F74",
"q  c #2D3A6C",
"w  c #453E42",
"e  c #3B464B",
"r  c #324B50",
"t  c #3F5D62",
"y  c #454649",
"u  c #4C4A4D",
"i  c #594B49",
"p  c #57534C",
"a  c #474D53",
"s  c #544F52",
"d  c #4B555D",
"f  c #565152",
"g  c #5C5553",
"h  c #5A5858",
"j  c #5D5C5C",
"k  c #664C4B",
"l  c #68584E",
"z  c #6A4D53",
"x  c #695A57",
"c  c #635D5A",
"v  c #7B5A56",
"b  c #66635B",
"n  c #6B635C",
"m  c #75685C",
"M  c #485B60",
"N  c #575C64",
"B  c #645F62",
"V  c #4A676B",
"C  c #5C656C",
"Z  c #546A78",
"A  c #58737D",
"S  c #646364",
"D  c #6B6563",
"F  c #6B6868",
"G  c #6E6A6B",
"H  c #746C64",
"J  c #7B6866",
"K  c #7B6D64",
"L  c #726D6C",
"P  c #7D7264",
"I  c #79746A",
"U  c #7B746C",
"Y  c #676E74",
"T  c #736F71",
"R  c #6B787B",
"E  c #747373",
"W  c #7B7572",
"Q  c #7B7979",
"!  c #BA0000",
"~  c #8C0D31",
"^  c #E00000",
"/  c #FD0000",
"(  c #C62A2A",
")  c #AD154E",
"_  c #855B5B",
"`  c #8C6159",
"'  c #A76A5A",
"]  c #B86C5C",
"[  c #BB735C",
"{  c #836D66",
"}  c #896B66",
"|  c #976A66",
" . c #847266",
".. c #877665",
"X. c #84746C",
"o. c #8C736B",
"O. c #857B6D",
"+. c #8A7C6D",
"@. c #9A746A",
"#. c #96796D",
"$. c #847C73",
"%. c #8B7D73",
"&. c #887875",
"*. c #8A7D79",
"=. c #957973",
"-. c #9B7C73",
";. c #A46E65",
":. c #B56C65",
">. c #A47264",
",. c #A2746B",
"<. c #AB746B",
"1. c #A77868",
"2. c #AA7B6C",
"3. c #B77665",
"4. c #B37B6C",
"5. c #BB7B6B",
"6. c #A67B75",
"7. c #B87A75",
"8. c #FD5652",
"9. c #C26B5A",
"0. c #C6775C",
"q. c #C57768",
"w. c #C5797A",
"e. c #76807E",
"r. c #8B816E",
"t. c #93826E",
"y. c #9A8A6C",
"u. c #878377",
"i. c #8C8274",
"p. c #8D847A",
"a. c #938574",
"s. c #9B8474",
"d. c #958974",
"f. c #9B8B75",
"g. c #92867A",
"h. c #9B847C",
"j. c #948A7B",
"k. c #9C8C7B",
"l. c #9D9175",
"z. c #9D927C",
"x. c #AB836D",
"c. c #B9836B",
"v. c #A4966D",
"b. c #BF926C",
"n. c #AC8375",
"m. c #A28C74",
"M. c #A3847A",
"N. c #A28D7B",
"B. c #A98878",
"V. c #B28274",
"C. c #BB8473",
"Z. c #B88A77",
"A. c #B3847B",
"S. c #A29375",
"D. c #AB9277",
"F. c #A59975",
"G. c #AB9C74",
"H. c #A3937C",
"J. c #A9957D",
"K. c #A59A7B",
"L. c #AB9C7B",
"P. c #B5957A",
"I. c #B6A36E",
"U. c #AEA27A",
"Y. c #B5A375",
"T. c #B2A37B",
"R. c #C58469",
"E. c #C58776",
"W. c #CC8D7A",
"Q. c #083DB1",
"!. c #6F7B83",
"~. c #0F59EF",
"^. c #907E81",
"/. c #C87F83",
"(. c #778286",
"). c #70878F",
"_. c #70A1AA",
"`. c #878788",
"'. c #958C82",
"]. c #9B8D82",
"[. c #978A88",
"{. c #9C9283",
"}. c #96948C",
"|. c #9C948C",
" X c #859497",
".X c #9A9997",
"XX c #A68B85",
"oX c #B78C84",
"OX c #A39482",
"+X c #AA9681",
"@X c #A69983",
"#X c #AC9A83",
"$X c #A3948C",
"%X c #A49A8D",
"&X c #AB9C8B",
"*X c #B79387",
"=X c #B19E85",
"-X c #B39E8A",
";X c #A69D95",
":X c #BD9C97",
">X c #9AA59E",
",X c #AEA28A",
"<X c #B3A483",
"1X c #BBAD84",
"2X c #B3A28B",
"3X c #BAA889",
"4X c #BCB18D",
"5X c #ABA299",
"6X c #B3A492",
"7X c #B6A896",
"8X c #B9AA94",
"9X c #BCAC99",
"0X c #BEB199",
"qX c #909FA9",
"wX c #AAA7A5",
"eX c #B7ABA4",
"rX c #B9B2A9",
"tX c #B0B9B7",
"yX c #C7938C",
"uX c #C39A88",
"iX c #C3AF91",
"pX c #C3ABAB",
"aX c #C5B7A8",
"sX c #C6BDB5",
"dX c #BFC1BC",
"fX c #CEC2B1",
"gX c #C9C2B7",
"hX c #E0C2BC",
"jX c #A6BCC1",
"kX c #90C7D2",
"lX c #BCD9DA",
"zX c #CAC9C4",
"xX c #D1CCC5",
"cX c #D9D4CC",
"vX c #DAD8D2",
"bX c #E2D9CB",
"nX c #E2DDD4",
"mX c #EBE5D9",
"MX c #ECE5DA",
"NX c #F0E7DC",
"BX c #F2EADE",
"VX c #ECECE2",
"CX c #F5EDE2",
"ZX c #F9EFE3",
"AX c #F7F2E7",
"SX c #FAF1E4",
/* pixels */
"a.T.1X4XW O.U 2.q.9. .T.1Xd.$.u.$.@.q.3.5.R.R.uXI p.o.J :.q.z 0.q.A.U $.W 6./.n.6.c.c.6.H X.U H #XN.",
"l.K.F.H.6XH.H.oXoXC.o.K.F.u.&XH.z.N.V.V.V.4.[ N.].D.oX@.7.oXz <.:.#.:XN.n.P.A.4.1.@.7.@.XXH.OX%.#X-X",
"u.K.K.{.@XH.OX&.|.XXL H.S.I {.H.i.g.h.'.'.1.5.t.%.6.oXJ XX$Xy 6.3.o.h.|.,.6.#Xx.#.@.C.} g.N.H.I OX#X",
"%Xl.f.,XL E L ].k.@Xu.f.f.U E T S *.;X$X5Xs.x.+XT D L g.,X6XB g.@.6.F E S N.@XD.M.-.M.=.E D E K J.+X",
"j.+.#.s.Z.C.4.$XH.H.u.t.r.m i.H.'.a.$X].XX%.+.d.&X+Xi.i.H.+XH d.#.P @XOXOXN.H.H.d.d.+.j.XXH.$.H k.H.",
"$.i.P m 9.3.5.h.k.i.W P +.m s.k.k.%.| o.=.o. .P +XOX#XW i.u.H O.O.I #XH.+Xf.a.$.%.$.X.P N.S.z.b %.O.",
"u.=X2X3X` z J &XH.k.U +X2Xa.I p c } q.' @.D.=X#XF n n $.OXf.F #X#X].X.p c k.H.f.j.#X2X{.F n c H N.y.",
"Q 2X#X8XrXf.H.V.7.V.J q.6.*.OXJ.d.z.G.l.k.1XL.:X$X#X&Xp.Z.<.B R.+X6X9X#XOXH.N.H.g.K.L.OXz.6X%Xo.,.;.",
"j m l n @XH.d.S D m x k l c %X#Xz.H b P G m g g $X2X-XY c x j z l h H.8X9XL c I n l g n 6XaX;Xc x } ",
"f I.I.U.p. .I Z.4.<.4.0.b...g.O.U u.U.y.P U.G.z.W %.a.;Xx.<.c 3.H.j.+.i.p.f.+Xl.z.G.U.s.p.'.;X%.3.] ",
"b P.G.G.i.+.].iXP.D.x.b.b.r.+.a.u.j.T.U.I T.L.l.i.+.@X;XD.P.p x.k.d.%.a.g.*Xn.S.z.U.F.a.O.%.p.$.q.:.",
"f h F D f.f.@X8X<X@Xj y C D a.f.a.l.K.U.p p u G l.d.f.5X<X,XT y h j s.f.m.oX,.;Xm f F E a.s.l.#.A.<.",
"j.Y.G.aXy.i.%.{.3X1XW G.T.d.p.i.i.%XiX1XU.4X1X0Xd.t.r.e.2XT.b 4X6X5Xz.i.%.XXyX3X{.v.G.%Xu.a.r.{ W.5.",
"d.U.F.#X+.$.p.<X1XT.r.U.U.p.*.p.u.z.4X<XT.1XU.H.$.%.%.p.<XG.p 0X@Xk.'.u.&.7./.3X,XU.K.j.$.i.i. .c.:.",
"Q P H U #X#X<XOX@X<XD r.P L @XH.H.z.z.,Xi.n m I z.#X#Xu.H.,Xp $.X.W -XD.n.].'.&X&.m v L {.H.#Xa.B.=X",
"W f.F.H.a.a.+Xz.#XK.n f.F.I p.r.a.j.K.<XOX{.#Xa.u.a.f.{.3XcXj %.s.%.%.+.-.$XwX$X-.>.0.I $.$.s.m #XL.",
"|.d.l.#Xj.i.g.H.N.-.x : w s x ].p.d.K.J.#Xk.N.z.'.{.f.g.+X7XgXz.}.$.p.c y N !.%.=.<.9.p.$.'.j.U H.#X",
"u.H +.&.-X#XN.h.fXeX[.;X;X;Xz @.X.eXfXaXfXsXsXX.eXfXsXsXrXfXP rX}.0XfX.XwXwXwX.XaXaXv O.f.H.i.n a.a.",
"W @X&X&XH.OXz.eX_.ZXCXCXVXVXsXwX;XsXxXxXxXcXnXxXgXvXvXzXQ Y cXe.u.mXmXBXmXBXSXCXZXkXv %Xf.k.H.H J.f.",
"F +X<X<Xu F 4 mXNXNXCXvXMXwXT 8 8 1 8 9 8 9 xXnX1 8 8 r  Xj t r 9 gXBXSXSXCXAXmXZXCXkXsX3 D I n f.m.",
"F #Xd.H.9X5XgXsXwXzXMXNXcXT ^.;XwX;XS S N u }.}.: Y R cX* ; 8 V 9 2 mXBXBXSXCXSXCXAXAXhXA.3X#XI a.f.",
"j F.y.d.9XaXxX).* `.`.T T T T R wXrX: . o .     w cXSXQ : < ; r e : mXNXBXCXBXZXCXZXSXSXaX6XL.X.6.>.",
"p I.I.G.u D (.Z * R 9 - % ; - ; a N % o $       h SXAXy r ; ; r V # rXBXBXBXBXBXCXCXCXCX{.6 H o.<.] ",
"L F.r.y.k.}.!.Z & Y , # % - - - 9 !.7 0 0 ~ ^ ! m SXBXQ .X8 ; 8 V > y mXBXBXBXmXdXvXCXCXaX#X<Xa.3.:.",
"b P ..+.k.}.V Z & Y , # O % - ; !.tXq ~.~.) / / 8.MXvXb .X< ; 8 M = > mXmXBXBX XS  XfXBXaXj.i.X.t.@.",
"u.U.I.1Xa.`.A Z * Y , # O O - , ).vXq Q.Q.~ / / ( aX.XE >X, % 8 r # g mXmXBXvX X(.rXgXCXaX'.u.J =X#X",
"O.<XS.f.7X|.R Z * Z , O + O + & ;XvX7 $ $ O X X 3 zXe..X.X% + 1 < # sXMXmXNXmXtXqXvXBXCXrX|.k.g.+X+X",
"F r.y.u.OXp.).Z * C * o o # + O ).jX- . o O     g NXBXcXw & + , & > cXMXmXNXBXNXBXBXBXCXaX|.H.c l $.",
"j.S.D.H.|.`.).!.% !.N d d N d d qXtXd a a a a e W vXvXsX: # O , = s bXnXMXMXVXMXMXCXVXwXXX'.z.P J.J.",
"@XH.J.j.0X,Xh ).d M !.!.C R a e e y 9 e e w Y  XB a a ^.C * # 8 < wXmXNXCXCXBXmXNXmXe..Xk.#X'.U +X=X",
"*.'.6Xk.=X+Xg.lXqX!.C  X).(.1 w + o + @ O # T R O + % * * O qX&.G mXmXmXxX.XCXxX X_.i |.z.a.s.U -Xm.",
"Q 7X-X6X+X'.'.&.U `.`.!.R R R `.F ^.3 : s L W &.G h w 3 w D u w [.rXdX`.(.wXeX|.=.3 4X7X+.i.].I m.B.",
"$.<X<X<X;X6X2X..4.' > O * & O -X@XXX2.,.-.A.:.oX{.#X&Xp.M.pX5X3.E.6.].O @ * O 5 ' ' E.N.g.2X;XJ @.;.",
"S U.K.H.iX2X6X6.V.M.v _ o.x m -X+Xs.n.x.} 7.7.XX7X6X#X*.P.*XG w.[ o.:X`.^.} ` @.} 5.C.#X,X7XeXJ 4.3.",
"u T.T.=X6Xf.s.C.c.2.,.:.V.{ #.a.$Xs.c.1.J :.:.P.8Xg.H.{.6.>.c :.q.| oXeX-.#.3.>.,.[ ] &X%XeXL +.4.9.",
"p F.y.l.p.i.&X3XZ.n.M.<.#.X.U i.d.o.c.1.J <.| y.$.d.2X;XP.5.i 5.3.@.&.X.&.2.3.1.6.4.} r.O.'.$Xo.R.9.",
"L @Xt.j.u.l.@X,Xl.l.u.z.j.$.a.H.k.-.' 6.h.z.r.{.a.S.OX}.M.>.y 2.L.j.l.S.h.M.;.H.{.{.+.u.k.H.f. .' ' ",
"u.3XU.2Xp.k.a.r.S.F.W T.T.i.O.N.u.-.4.7.oX2XG.2Xi.s.u.U D.3.g -XiXH.z.f.*.-.C.S.@XL.K.{.$.H.p.{ E.[ ",
"z.H.U.F.eXH.,X8XF.4Xr.U.U.r.&X+XOXXXE.W.oXD.U.G.@XH.6XQ 6.E.i E.T.F.iXK.XXyX7.iXU.K.N.j.|.OXOX .R.W.",
"u.B.1.@.6X#XH.d.H.f.P L.K.W @X=Xk.*.M.N.#X<XK.].{.#X@X$.z.M.l /.i.W 8XL.-.'.`.].-.@.3.u.{.=XJ.*.h.+X",
"p.-.<.6.a.u.a.$.k.j.H K.F.I u.i.$.I +.a.z.H.L.d.u.a.d.L a.a.s ,.k.%.a.=.{ &.`.[.a.,.3.&.W a.+.F i.f.",
"[.@.@.4.&Xk.s.#XJ.#Xp.y.v.P k.d.i.d.J.K.#Xd.S.<X7Xk.a.%.H.A.L ,.N.a.z.g.=.XX>X$XM.<.' j.%Xd.r.n +X3X",
"`.%.=.J 6X#XJ.5X{.O.u.j.l.H f.J.l.j.j.p.j.g.j.a.#XS.=Xj.j.%.X.o.%.F J.D.6.[.`.Q &.=.;.u.k.XXK.H %.u.",
"W oXoX-X,Xj.g.g.#Xa.W 9X9Xj.a.i.+.d.#Xf.u.#X8XaXz.d.d.%.+XN.Q -X#Xf.@Xa.i.s.H.N.$.6XaX/.| | +.H #Xk.",
"U /./.oX7Xj.*.$.@Xk.$.+X,Xi.|.k.j.h.z.k.j.8X#X,Xj.{.].].k.H.F #X6X].7X'.g.OX+XH.'.@X=XM.=.XX].$.l.f.",
"L } &.X.6XH.3XF l F E OXk.I j.=Xz.I g $.*.i.OXk.z.#X2Xj n I h *.*.U eX;X9XX.p L T &.g.u.N.aX9Xn b n ",
"p G.L.6X<X#X-XH.:.<.,.3.c.s.f.7Xl.s.yXx.x R.R.P.2X2X@Xk.n.5.c ] 3.6.*X7X-X-.7.N.d.T.L.-X5X9X5X-.c.0.",
"c Y.L.L.5Xj.].2Xq.<.,.q.x.#.k.%.W x.5.2. .q.R.x.$X{.].{.n.<.c ] 9.;.&X[.g.6.:.H.l.Y.K.f.p.z.'.%.R.0.",
"j d.u.u.#Xf.&XiXq.5.| ;.{ X.f.N.k.s.4.E.} >.K #.k.H.&X%X*Xq.3 | | } M.'.s.A.:.#Xd.y.U p.@X,Xk.%.R.0.",
"O.<X3XrXz.H.k.6XyX4.J 3.*X'.%.m.j.%XM.5.M.W.W.aXa.N.s.|.uX3.f C.E.$X@.].s.:X7.L.k.2X2XOX%.J.i.a.E.0."
};
