/* XPM */
static char *policecarblue21678102907[] = {
/* columns rows colors chars-per-pixel */
"50 50 245 2 ",
"   c #020103",
".  c #08030B",
"X  c #17040D",
"o  c #0A0915",
"O  c #150A16",
"+  c #130C15",
"@  c #17141A",
"#  c #19141D",
"$  c #28060A",
"%  c #030426",
"&  c #181923",
"*  c #1C1B24",
"=  c #221D26",
"-  c #1E2325",
";  c #1D222E",
":  c #1D2A34",
">  c #262329",
",  c #262A35",
"<  c #293237",
"1  c #2C343E",
"2  c #383135",
"3  c #4B0B13",
"4  c #4A3837",
"5  c #672629",
"6  c #4A433D",
"7  c #273841",
"8  c #363B45",
"9  c #1D2777",
"0  c #453E42",
"q  c #3B464B",
"w  c #324B50",
"e  c #3F5D62",
"r  c #454649",
"t  c #4C4A4D",
"y  c #594B49",
"u  c #57534C",
"i  c #494D53",
"p  c #544F52",
"a  c #4B555D",
"s  c #555152",
"d  c #5D5553",
"f  c #5B5958",
"g  c #5D5C5C",
"h  c #664C4B",
"j  c #68584E",
"k  c #695A57",
"l  c #635D5A",
"z  c #735554",
"x  c #66635B",
"c  c #6B635C",
"v  c #75685C",
"b  c #485B60",
"n  c #565C64",
"m  c #645F62",
"M  c #4A676B",
"N  c #5D656C",
"B  c #546A78",
"V  c #58737D",
"C  c #646363",
"Z  c #6B6563",
"A  c #6B6868",
"S  c #6E6A6B",
"D  c #746C64",
"F  c #7B6866",
"G  c #7B6D64",
"H  c #726D6C",
"J  c #7D7264",
"K  c #79746A",
"L  c #7B746C",
"P  c #676E75",
"I  c #736F71",
"U  c #6B787B",
"Y  c #747373",
"T  c #7B7572",
"R  c #7C7978",
"E  c #89232F",
"W  c #D33D49",
"Q  c #855B5B",
"!  c #8C6159",
"~  c #A76A5A",
"^  c #B86C5C",
"/  c #BB735C",
"(  c #836D66",
")  c #896B66",
"_  c #976A66",
"`  c #847266",
"'  c #877665",
"]  c #84746C",
"[  c #8C736B",
"{  c #857B6D",
"}  c #8A7C6D",
"|  c #9A746A",
" . c #96796D",
".. c #847C73",
"X. c #8B7D73",
"o. c #887875",
"O. c #8A7D79",
"+. c #977774",
"@. c #937B73",
"#. c #9B7C73",
"$. c #A46E65",
"%. c #B56C65",
"&. c #A47264",
"*. c #A2746B",
"=. c #AB746B",
"-. c #A77868",
";. c #AA7B6C",
":. c #B77665",
">. c #B37B6C",
",. c #BB7B6B",
"<. c #A67B75",
"1. c #B87A75",
"2. c #C26B5A",
"3. c #C6775C",
"4. c #C57768",
"5. c #C5797A",
"6. c #76807E",
"7. c #8B816E",
"8. c #93826E",
"9. c #9A8A6C",
"0. c #878377",
"q. c #8C8274",
"w. c #8D847A",
"e. c #938574",
"r. c #9B8474",
"t. c #958974",
"y. c #9B8B75",
"u. c #92867A",
"i. c #9B847C",
"p. c #948A7B",
"a. c #9C8C7B",
"s. c #9D9175",
"d. c #9D927C",
"f. c #AB836D",
"g. c #B9836B",
"h. c #A4966D",
"j. c #BF926C",
"k. c #AC8375",
"l. c #A28C74",
"z. c #A3847A",
"x. c #A28D7B",
"c. c #A98878",
"v. c #B28274",
"b. c #BB8473",
"n. c #BC8C73",
"m. c #B3847B",
"M. c #B68879",
"N. c #A29375",
"B. c #AB9277",
"V. c #A59975",
"C. c #AB9C74",
"Z. c #A3937C",
"A. c #A9957D",
"S. c #A59A7B",
"D. c #AB9C7B",
"F. c #B5957A",
"G. c #B6A36E",
"H. c #AEA27A",
"J. c #B5A375",
"K. c #B2A37B",
"L. c #C58469",
"P. c #C58776",
"I. c #CC8D7A",
"U. c #0711A4",
"Y. c #667C84",
"T. c #787A81",
"R. c #000FC0",
"E. c #0015E5",
"W. c #0018F6",
"Q. c #1B30F2",
"!. c #907E81",
"~. c #C87F83",
"^. c #778286",
"/. c #70878F",
"(. c #7294B1",
"). c #77A3B0",
"_. c #878788",
"`. c #958C82",
"'. c #9B8D82",
"]. c #978A88",
"[. c #9C9283",
"{. c #96938B",
"}. c #9C938B",
"|. c #859497",
" X c #9B9896",
".X c #A68B85",
"XX c #B78C84",
"oX c #A39482",
"OX c #AA9681",
"+X c #A69983",
"@X c #AC9A83",
"#X c #A3938C",
"$X c #A49A8D",
"%X c #AB9C8B",
"&X c #B79387",
"*X c #B19E85",
"=X c #B39E8A",
"-X c #A69C94",
";X c #BD9C97",
":X c #9AA59E",
">X c #AEA28A",
",X c #B3A483",
"<X c #BBAD84",
"1X c #B3A28B",
"2X c #BAA889",
"3X c #BCB18D",
"4X c #ABA299",
"5X c #B3A492",
"6X c #B6A896",
"7X c #B9AA94",
"8X c #BCAC99",
"9X c #BEB199",
"0X c #909FA9",
"qX c #AAA7A5",
"wX c #B6ACA4",
"eX c #B9B2A9",
"rX c #A6B7B9",
"tX c #C7938C",
"yX c #C39A88",
"uX c #C3AF91",
"iX c #C3ABAB",
"pX c #C5B7A8",
"aX c #C6BDB5",
"sX c #BFC1BC",
"dX c #CEC2B1",
"fX c #C9C2B7",
"gX c #E0C2BC",
"hX c #B0B4D3",
"jX c #90C7D2",
"kX c #BCD9DA",
"lX c #CAC9C5",
"zX c #D1CCC5",
"xX c #D4D2CC",
"cX c #DCD6CC",
"vX c #D8D7D2",
"bX c #E2D9CB",
"nX c #E2DDD4",
"mX c #EAE4D8",
"MX c #ECE5DA",
"NX c #F1E7DD",
"BX c #F2EADE",
"VX c #ECECE2",
"CX c #F5EDE1",
"ZX c #F9EFE3",
"AX c #F9F2E5",
/* pixels */
"e.K.<X3XT { T =.4.2.[ K.<Xe...q...| 4.=.,.L.L.yXY w.[ F %.4.h 4.4.M.L { T <.5.M.<.g.g.c.D ] L D @Xx.",
"s.S.V.Z.5XZ.oXM.M.M.] D.V.0.%XZ.d.x.b.v.v.>./ Z.'.B.XX+.1.b.h 1.%. .;X.Xc.F.m.v.-.| >._ .XZ.oXX.@X=X",
"0.S.S.[.$XoX+Xo.}..XH Z.V.K [.oXq.`.i.u.`.-.4.8.@.<.XXF oX#Xr #.=.[ z.'.*.<.+Xf.#.| b.) u.Z.Z.L OX@X",
"$Xs.y.>XD K S '.a.oX0.s.y.T I H x O.-X#X4Xe.f.A.H A H w.%X%XZ i.*.#.S R m x.@Xc.l.@.z.+.I Z Y D Z.OX",
"p.} 8. .n.b.;.OXd.Z.q.8.8.c e.Z.`.w.#X'..X@.7.e.$XOXq.q.oXoXD y.8.` Z.oXOXx.Z.oXe.y.{ u.oXZ.{ D a.x.",
"..} ` F %.4.4.u.a.q.T J } D r.y.a.@.) ] +.X.` ( +XOX@XT e.O.H { { H @XZ.oXy.q...0.] ] ` Z.l.d.c q.{ ",
"0.*X=X2X( z Z =XZ.a.L @X1Xe.L u g ) 4.^ | c.*X@XZ c k O.Z.y.Z @X=Xa.] u l x.Z.a.'.@X1X[.A c k H y.y.",
"R 5X@X6X8Xy.Z.m.1.v.F 4.<.o.oXA.t.N.V.s.y.<XD.6X#X*X%Xw.F.=.m L.A.4X8X@XZ.d.Z.N.w.S.D.oXa.7X$X] -.$.",
"g v u v +XZ.t.Z Z v k h j l $X@Xd.D x D A v d f #X1X1XS x k g j f l N.7X7XH l G Z j d v -XpX-Xx k ) ",
"p G.G.J.w.` K k.>.;.>.3.j.' u.{ T 0.H.h.K J.C.a.L O.q.-Xz.%.k &.Z.p.{ e.w.i.@Xs.d.C.C.e.u.'. X@.:.^ ",
"C F.C.C.q.} '.uXn.B.f.j.j.7.} e.0.p.K.H.K J.H.s.q.{ +X-XB.n.u f.x.t.X.e.u.&Xk.N.d.H.V.t.{ e.w.{ 4.%.",
"s f A Z y.y.OX9X>X+Xg r N C e.y.e.s.d.H.u u t S s.t.l.4X>X>XI t s g y.y.l.XX*.-Xv s C Y e.r.s. .c.=.",
"t.K.C.pX9.q.X.[.<X<XT V.K.t.w.e.q.$XuX<X,X3X<X9Xp.8.} 6.2XK.x 3X1X4X[.q.@..XtX2X[.h.C.$X0.e.{ ( tX4.",
"t.H.V.@X{ ..w.,X3XK.7.H.H.w...w.0.s.3X,XK.K.H.S.{ } q.w.>XH.u 9XOXy.`.q...1.~.2X>XH.S.p...q.u.` 4.^ ",
"R J D T *XD.*XZ.Z.>XZ 7.J S +XZ.Z.d.d.1Xe.c D L [.D.>X0.Z.>Xu ..T T =Xx.k.'.`.%Xo.v z K [.Z.@Xq.x.@X",
"T y.V.N.e.e.OX[.@XD.c s.V.{ w.7.t.t.S.>X[.oXOXe...u.y.d.1XcXf X.r.X.e.@.#.#XqX}.#.&.3.L ..X.r.v @XD.",
"{.y.N.D.p.u.u.Z.Z.#.k > 0 p k ].w.e.OXD.*Xl.x.Z.`.'.`.u.OX6XfX[.{.X.w.l 0 n _.R X.=.4.X...a.`.L Z.@X",
"0.D ....=XOXl.u.dXwX].-X-X Xz | ] 8XdXpXaXaXaX] eXdXpXaXpXpXD pX{.9XdX XqXwXqX XiXpXQ ` y.d.q.x t.w.",
"T +X%X%XZ.Z.A.iX).CXCXCXVXVXaXwX-XaXzXzXzXxXnXzXfXvXvXlX6.P vX6.6.mXmXCXmXCXAXVXAXjXz $Xr.y.a.D Z.y.",
"Z @X1X*Xt A 4 mXMXNXCXvXMXqXI 7 7 7 8 7 7 8 zXnX1 7 7 w _.g e w q aXBXZXCXCXAXmXCXCXjXaX6 Z L v y.l.",
"H OXe.oX9X4XfXaX4XlXMXMXxXT !. XqX-XC C n r  X{.- N Y xX> < 7 M q 2 mXCXCXZXCXAXZXAXAXgXM.2XOXK e.y.",
"f V.9.y.9XeXzX/.> _._.I P Y I Y -XqX>         .   4XAXR , : : w q > mXBXBXBXCXZXCXZXAXAXpX1XD.` <.&.",
"u G.G.C.y Z Y.Y.* I 8 ; & : ; > a p O . . . . o   $XAXq a : : w M # eXNXBXBXCXBXBXCXAXAX[.6 H } =.^ ",
"H V.7.9.i.{.Y.B * P , & & ; ; ; 8 Y.9 U.R.E.U.3 $  XmXY :X: : 7 b 2 r MXBXBXBXmXsXvXBXZXpXOX,Xe.:.%.",
"x J ' { x.{.b B * P , # O & ; : Y.(.Q.W.W.W.W.W 5 z.vXx  X< : 7 b - > mXMXBXMX|.N |.dXBXpXr.w.] 8.| ",
"7.H.G.<Xu.`.V B * P , # O O ; , |.hXQ.W.W.W.W.E 3 '. XY :X, & 7 q # x mXMXBXmX|.^.eXfXZXeX`...G *X@X",
"..,Xh.9.6X[.Y.B = N , O % + + *  XxX, o % % % X . }.6. X X& + < , @ aXMXMXNXMXrX:XvXBXBXpX}.[.w.OXA.",
"A 0.t.0.oX_./.B * P = O + + + O T.rX-       . .   }.BXcX0 * O , * 2 cXMXmXMXNXMXNXBXBXBXaX}.Z.k j ..",
"[.l.C.Z.}._./.Y.& V n a b a n a 0XrXi i i i q r 0 qXvXaX> & O , - p bXnXMXMXMXmXNXVXVXeX.X].[.J @XA.",
"+Xx.A.p.9X1Xl /.a n Y.T.N P i r 8 i 8 q q 0 P |.m t t _.N * O 7 1 qXMXNXBXCXCXmXMXMX6.{.y.@X`.J A.*X",
"O.`.5Xa.*XoX@.kX0XY.N |./.^.2 8 + o O O O # P Y + @ # = = X 0X!.S nXMXmXzX:XCXxX|.(.u }.d.e.e.L =Xz.",
"R 5X=X5X@X].u.O.L _._.T.U Y.Y._.S !.0 = p I ] R S f 0 0 0 Z t 0 {.eXsX_.R qXwX}.7.4 7X6X} q.'.G l.B.",
"..,X,X,X-X5X5X[ >.~ 2 X = # . =X%Xx.;.-.#.m.=.XXoX@X%XO.z.iX4X,.b.<..X. # = X h ~ ~ b.oXu.5X-XF | ~ ",
"C H.D.d.uX1X1X<.v.z.z Q +.k v 7X+Xi.c.;.( 1.1.c.6X5X@Xw.F.&XS 4.:.[ ;X].!.) ! | ) :.L.%X>X7XwXF f.4.",
"t K.K.,X5Xt.t.n.g.-.*.%.k.(  .e.oX#.n.-.F %.=.F.7Xe.Z.#X<.&.l %.2._ .XwX#. ./ &.$.:.^ @XoXpXD o.>.2.",
"u V.9.s.w.q.%XyXn.c.z.;. .] ] X.e.[ g.-.F %._ r...u.>X$XF.,.y ,.:.| o.o.o.;.:.#.<.>.) } L `.#X[ 4.2.",
"S +Xe.p.0.s.@X>Xs.s.0.d.u...e.Z.y.+.$.;.r.Z.7.[.e.N.oX`.x.$.r ;.,Xp.s.s.u.z.$.x.[.[.{ 0.a.Z.a.` &.~ ",
"0.2XH.,Xp.a.w.7.V.V.T K.K.q.{ x.w.#.>.1.XX1XV.1XX.y.0.L B.:.u ;XuXS.d.d.O.#.P.N.$XS.H.oX..Z.u.G P./ ",
"d.s.J.B.wXZ.@X7XV.3X7.K.H.7.%XOXoX.XP.I.tXN.H.C.+XoX5XR <.P.h P.K.N.uXA..XtX>.uXC.S.x.u.}.oXoX` L.I.",
"q..X*.| 5X+XS.e.Z.y.D D.S.L %X*Xa.X.z.x.@X@XS.[.[.@XA.0.a.x.d ~.e.T 7XD.<.`._.`.r.| :.0.[.*XA.O.r.A.",
"O.#.-.;.e.q.u.X.a.u.v H.S.K 0.w.q.K { e.a.Z.D.e.0.e.e.D u.r.p *.a.O.e.X.( .._.].#.*.:.o...u.{ Z w.y.",
"].#.| >.$Xa.r.+XA.@Xw.t.h.J t.t.q.y.A.D.+Xt.N.,X6Xd.e.X.A.c.H $.Z.e.Z.#.+.].qX#Xi.=.~ p.#Xt.} v @X5X",
"_.X.+.F 7XOXZ.4X[.{ 0.p.s.D t.D.s.u.p.w.a.w.p.e.+XN.1Xp.e.X.o.[ X.Z Z.A.<.`._.R o.+.$.@.x.oXA.v } q.",
"T XXXX=X>Xp.p.w.OXt.T 8X8Xu.e.q.{ p.D.t.q.%X7XpXd.t.e.X.OXx.R 1X@Xi.@Xe.q.r.Z.a...5XpXXX_ _ ..D @Xy.",
"L ~.~.XX6Xi.w.0.+Xa...OX1Xw.[.a.p.u.Z.a.`.7X@X=X`.d.'.`.x.x.S @X1X[.4Xa.u.oXOXZ.p.#X=Xz.@..X'...s.l.",
"S ) o.o.1XZ.1XZ l A Y Z.a.K a.@XZ.L d ..O.q..Xy.d.*X1Xg l L f ..O.L wX5X8X] u H Y o.u.X.x.pX8Xc l D ",
"u D.D.1X1XD.1XB.%.=.*.:.n.e.y.6Xa.r.yX>.k L.L.J.1X1XOXa.c.,.l ^ :.<.&X4X5X#.1.Z.9.K.D.=X4X8XqX .g.3.",
"l J.C.D.4Xu.'.=X4.=.| 4.>. .a.X.{ #.,.;.( L.g.f.#X[.'.[.c.=.l ^ 2.$.%X].@.<.%.Z.d.J.C.y.w.[.`.} g.3.",
"g t.q.0.+Xt.%XuX4.1._ $.( ] y.y.d.r.>.b.) &.F @.a.d.@X$XF.4.2 $._ ] z.u.r.m.,.OXt.9.T w.Z.,Xx.X.L.3.",
"{ ,X2XeXZ.Z.a.5XtX>.v ,.&X].@.l.u.$Xc.,.c.I.I.pXi.l.r. XyX:.p P.P..X+.'.l.;X1.F.a.%X1X[.q.OXq.q.P.3."
};
