/* XPM */
static char *shenq1677765841[] = {
/* columns rows colors chars-per-pixel */
"50 50 251 2 ",
"   c #010201",
".  c #04090A",
"X  c #0B1713",
"o  c #171C19",
"O  c #10100D",
"+  c #18221B",
"@  c #27261C",
"#  c #362E1B",
"$  c #09162A",
"%  c #121B27",
"&  c #081933",
"*  c #111D37",
"=  c #000A20",
"-  c #1C2825",
";  c #162539",
":  c #272A26",
">  c #342D27",
",  c #2B332C",
"<  c #3A332C",
"1  c #36342A",
"2  c #2B3432",
"3  c #2A3636",
"4  c #3A3835",
"5  c #212D39",
"6  c #231F21",
"7  c #41372D",
"8  c #433B34",
"9  c #473D36",
"0  c #543F39",
"q  c #35403A",
"w  c #4A423C",
"e  c #474438",
"r  c #53463B",
"t  c #4E412E",
"y  c #233446",
"u  c #3F494E",
"i  c #4C4541",
"p  c #484C47",
"a  c #544B45",
"s  c #5B4C46",
"d  c #5B4E4A",
"f  c #544845",
"g  c #4B524C",
"h  c #53524D",
"j  c #5D534C",
"k  c #585547",
"l  c #5A5655",
"z  c #4F5152",
"x  c #614D46",
"c  c #61544D",
"v  c #65584C",
"b  c #635A54",
"n  c #6B5E5B",
"m  c #685A55",
"M  c #735C57",
"N  c #72554F",
"B  c #5E625C",
"V  c #64625D",
"C  c #6C635C",
"Z  c #6D6657",
"A  c #7B635E",
"S  c #75655C",
"D  c #515865",
"F  c #6F5F63",
"G  c #5C6374",
"H  c #6C6563",
"J  c #6D6D6D",
"K  c #696766",
"L  c #736563",
"P  c #7A6562",
"I  c #746C65",
"U  c #736D6B",
"Y  c #7B6C6C",
"T  c #7B6966",
"R  c #6F716B",
"E  c #75726C",
"W  c #7C746B",
"Q  c #7A7769",
"!  c #726F75",
"~  c #6E7672",
"^  c #737372",
"/  c #7B7572",
"(  c #7D7A74",
")  c #7B7B7A",
"_  c #757879",
"`  c #6E6E70",
"'  c #8D5B56",
"]  c #86685C",
"[  c #B56E5C",
"{  c #855E62",
"}  c #846D6B",
"|  c #876A66",
" . c #956967",
".. c #82746B",
"X. c #8B726C",
"o. c #847A6D",
"O. c #8B7C6D",
"+. c #877564",
"@. c #96746B",
"#. c #8D7573",
"$. c #847B74",
"%. c #8B7C74",
"&. c #847D79",
"*. c #867775",
"=. c #937573",
"-. c #9D7B74",
";. c #947C7A",
":. c #9C7C7B",
">. c #997675",
",. c #8C6E70",
"<. c #A66C63",
"1. c #A7786C",
"2. c #B97668",
"3. c #B17471",
"4. c #A95C66",
"5. c #CB6F5D",
"6. c #C57965",
"7. c #CA6F71",
"8. c #E97664",
"9. c #7C8277",
"0. c #8B816B",
"q. c #97886D",
"w. c #8C8274",
"e. c #85837B",
"r. c #8C837B",
"t. c #898676",
"y. c #928474",
"u. c #948A75",
"i. c #9C8B74",
"p. c #928579",
"a. c #9A857D",
"s. c #948A7B",
"d. c #9B8C7B",
"f. c #9B8674",
"g. c #9D9275",
"h. c #9C927B",
"j. c #969579",
"k. c #9F926F",
"l. c #B7876E",
"z. c #A78978",
"x. c #B78878",
"c. c #A39473",
"v. c #A4927C",
"b. c #AA957B",
"n. c #AC9A7C",
"m. c #A89A77",
"M. c #B4997A",
"N. c #AB926E",
"B. c #B7A778",
"V. c #BCAD73",
"C. c #E48A5C",
"Z. c #C88777",
"A. c #CB8F72",
"S. c #C4AB75",
"D. c #C7B175",
"F. c #CCB16E",
"G. c #E89072",
"H. c #656D83",
"J. c #737988",
"K. c #927F80",
"L. c #D97380",
"P. c #78828C",
"I. c #888685",
"U. c #938B83",
"Y. c #988A84",
"T. c #9C9284",
"R. c #979388",
"E. c #999796",
"W. c #868E98",
"Q. c #A78886",
"!. c #A49483",
"~. c #AC9B82",
"^. c #A89989",
"/. c #B29C82",
"(. c #B79B86",
"). c #A49A97",
"_. c #B39A95",
"`. c #BC8A83",
"'. c #ADA188",
"]. c #B4A284",
"[. c #B4A48B",
"{. c #BCA48B",
"}. c #BAA988",
"|. c #A7A298",
" X c #BBAB93",
".X c #B6A693",
"XX c #BEB29D",
"oX c #BEB287",
"OX c #949BAA",
"+X c #8892A5",
"@X c #9CA3AF",
"#X c #AAA7A7",
"$X c #B2ACAA",
"%X c #B9B5AC",
"&X c #A3A5B3",
"*X c #A8ACB6",
"=X c #ACB1BA",
"-X c #B7B6B9",
";X c #B0ADB6",
":X c #CE928C",
">X c #E59387",
",X c #C5A88A",
"<X c #C7B58B",
"1X c #C7AC95",
"2X c #CAB294",
"3X c #C6B598",
"4X c #D2BA92",
"5X c #C7B8A6",
"6X c #D2BDA5",
"7X c #C6B3B1",
"8X c #E7A0A6",
"9X c #C6C3B8",
"0X c #D4C5B4",
"qX c #E1D0BC",
"wX c #ACB2C1",
"eX c #B4B5C4",
"rX c #B9BBC6",
"tX c #C1BEC3",
"yX c #BEC1C9",
"uX c #BDC4D3",
"iX c #C4C5CB",
"pX c #C5CAD5",
"aX c #CBCEDA",
"sX c #C8C9D4",
"dX c #CDD2DC",
"fX c #CDD0D6",
"gX c #D2D4DD",
"hX c #D7D7DA",
"jX c #D3CFCA",
"kX c #E2DBD4",
"lX c #CDD4E1",
"zX c #CFD6E8",
"xX c #D2D6E3",
"cX c #D4DAE4",
"vX c #DCDCE4",
"bX c #DBDEEA",
"nX c #D5DAE9",
"mX c #E1DFE3",
"MX c #DDE1EB",
"NX c #DBE1E8",
"BX c #E2E4EF",
"VX c #E3E5E8",
"CX c #E3E5F2",
"ZX c #EAECF5",
"AX c #EAEDFA",
"SX c #E5EAF4",
"DX c #EDF3FD",
"FX c #E6F0FA",
"GX c #FCFFFF",
"HX c #F4F6FC",
"JX c #D7E0DF",
/* pixels */
"U ..B ' 7.5.4.e.y.w./ K Q b d.B./.O.....#.T I I C !.~.n.w.$.w.%.! W S Q {.b.!.p.w.$.&.U W l o.1Xn.b.",
"T. X!.1.5.[  .r.~.f.) ^..X^.d.d.f.o. .5. .T (..Xh.h.u.f...f.v.( _ .X.X!.!.y.w.T.~.b./ r..X'.s.v.f.y.",
"[.3X.XJ I 9.( M.b.f.;.,X3X^.H Q _ _ Z.5.<.f.2X3X!.H Q E ..].M...p.1X6Xt.H o.J h.].m.( !.2X3X/ V $.` ",
"T.v.v.U.!.}.T.X.@.=.Y 2.3.).|.XX3X).~.}.^.|.<X X#X$X5X7X|._.x.Y.Q.,X X).|.5X%XT.y.i.E t.B.b.;.!.XX|.",
"v.0.E R.3Xb.o.K 1.| P [ p.pXnXAXCXCXFXSXCXFXDXuX=XeXrXrXrXrXrXrXrXeXnXFXCXMXAXjXU c.E 0.g.E r.6X6X%X",
"B.S.k.T.3Xt.| 1.A. .] C.1X=XlXpXrXNXcXzXzXGXOX$ & * ; * ; * ; ; * & OXFXlXsXnXVX/.}.I g.B.g.U.5X5XE.",
"F.F.F.T C ) U.2.6.| ] C.F.tXnXdXzXMXNXcXHXuX* $ ; % * $ $ $ * ; y & +XDXlXxXMXVX[.m.K g.S.B./ Z $._ ",
"N.0.Q $.q.(.|.[.S.d...M.Q.eXzXNXMXzXcXNXrX%   = .     . . = = & 5 & P.CXaXxXMXvXZ.,XQ k.u.U %.y.g.U.",
"I ( _ o.v.v.v.E.j.j.J E *XwXgXxXcXcXNXVX#X_ I.I.! ` J _ P.9.R p ; $ J.SXaXaXnXmXK.f.R H Q J.&.g.c.m.",
"'.V.oX$.w.y.K T.}.c.h.oXqXeXxXdXgXdXBXeXsXHXHXGXHXHXGXGXZXGXsXz ; $ J.AXdXlXcXhX7Xb.t.u.D.3XK...d.E ",
"h.V.B.) r.e.) n.<XoXg.~.9XyXcXgXcXxXSX&X&XgX;X+XnXnXlXxXdXDX-Xh ; = ! DXdXdXpXvX8X:Xj.j.V.[.$.&.&._ ",
"u.g.O.U. X/./.[.B.oXv.g.5XeXVXhXvXhXZXeXxXZXmX*XzXnXnXxXlXDX-Xz ; $ G gXdXxXaXbX7X,Xi.q.N.o.e..Xb.}.",
"Q d.Q /  X}.s.W s.!.Q O.9XeXSXgXgXxXBX&XW.H.eXDXcXnXnXzXzXDXrXl 5 $ D sXpXdXdXNX$XE.Y n 2.| !  X}.!.",
"%.n.m.W I O.W w.b.^.r.g.9X=XSXhXMXSXHX;XD = H.GXFXFXCXcXzXDX-Xl 5 $ G ZXxXdXdXNXtX).;.| 5.N._ P $...",
"p.n.m.t.p.w...~.].,X^.c.9XwXVXsX-XaXsXZXGX*XH.@XwX=X=XzXlXDXiXl ; * D fXdXfXpXNXgX#XY.>.5.l.t.t.w.E ",
"E O.Z 0.<X(.p.t.w.d.u.Q ;X*XMXgXjXJ.: tX-XI.J 7 : ~ *XdXdXDXyXV y $ u fXdXdXpXBXfXK.p.,.' N Q 1X/.T.",
"/ I.^ s.{.].s.( c.w.! ) ;X&XVXAXhXO 6 *X! _ w l 0 U nXzXaXnXrXJ 5 $ &XAXxXxXdXCXjX+./ R e.) y.,Xn.~.",
"[.6X3XW U Q I t.D.c.r.3X%X&XbXAX7X  G tXl *X_ ;XY.l tXaXzXCXiXY % J.GXxXxXlXaXMXkXn.^ T.6X3Xw.I W Y ",
"_.,X{./ Q r.W g.m.k.d. X*X&XvXDX$X  % &Xl l E.vXw 4 eXxXFXHXyXb D nXCXgXlXxXdXMXkX^.*.s.1X1X$.U T.&.",
"s.w./ T.6X6X|.K E E r.E.*X&XaXzXrXL _ I.) L / I.K #XrX&X&X@X=XI.rXbXaXxXdXaXaXbXhX&./ %.p.%.U.<X2X X",
"m.k.+.h.qXjX~.A /.w.S x.&X&XaXtXxXAXAXCXZXHXCXmXZXZXiX*X*X-XiXdXgXsXaXdXsXsXaXnXNX{.I t.c.0.s.2X3Xn.",
"F.F.S.o.r.U.a.Z.A.] ' G.&X&XsXsXaXdXgXgXfXfXgXfXsXgXgXgXNXhXhXgXaXxXgXdXxXxXgXvXhX,XQ N.F.B.w.$.W y.",
"D.m.c.Q Z O.I.Z.A.+. .>XOX&XaXxXxXbXbXbXbXvXBXBXVXBXCXCXBXMXMXMXCXCXCXMXCXCXBXBXmX1XQ m.D.v.( P 0.I.",
"o.` K 0./.~.T.z.6.f.T Q.*XI.OX&X=X*X;XwXeXeXeXeX-XrXiXsXiXrXpXsXpXtXpXaXtXsXsXaXZX5XQ Q Q K $.n.].].",
"%.d.d.p.m.v.f.a.3.1.#.).).E.E.).$X#XOX).#X$X$X#X$X#XE.#X;X$X$X$X@XR.E.#XtX-X%X;X7X#X) E p.!.p.f.v.v.",
"'.D.<X) ( e.` 6.G.Z.l.'.s > 1 4 > i ;.#.i < 8 4 4 T Y.F 7 9 0 7 j ;.} i 8 0 e < s 1Xt.d.{.<Xe.! t.K ",
"h.V.V.w.T.s.p.3.:X3.c. Xf + 2 4 : a K.:.e - , : o P _.c . X o . w Q.,.: O X % @ C 1Xu.f.n.B.s.R.r.r.",
"0.k.+.t.1X{.!.>.1.z.%.T.F V Y *.U / K.;.%./ r.Q I %.K.#.K F V V } K.#.H B K H b ;.^.w.W d.W $. X_.^.",
"Q B.q.U d.b.w.^ I.R.J R.m > 4 4 > a / #.d < 9 8 9 | Y.n < 9 8 < M K.T 7 8 e < 7 !.~.Q H v.q.Q p.U.s.",
"q.m.b./ ^ O.Q !.}..XQ.1.C : : 2 - 4 } ,.p - % : : | K.j X + - X j Q.n X % o . 6 5X}.d.t.c.n.$.^ t.W ",
"f.v.%.r. Xn.w.a.N.(.Q.4.#.b n L C W } } Y.*.I *.;.X.>.Y./ Y ) / #.=.#.H C K n x .XB.^.p.z.y.r..Xb.w.",
"U ( B O.,X/.r.#.X.} *.! *.7 9 i i c } =.m f c d d X.a.P f c d s } :.} s c h f x ).W r.U E K O.{.b.v.",
"T..X^.U.v.d.( | 7. .! K.K.p p g p p } >.p : 3 2 2 ..Q.C 2 p u , S Q.n - 5 2 + r  Xv.J &..X|.d.v.f.t.",
"{.<X XH V e.J | 7.4.,.>XL.j c n m n } =.T l l V S ;.K.%.H T C n =.:.W l b b l A 4XN.*.d.1X1X^ b o.^ ",
"m.V.b.r.b.1XT.] ] +.-.3.^.> , 4 4 4 } :.j 1 w 4 8 =.Q.m , 9 8 e @.K.m 7 i 4 8 P x.<.} =.6.N.r.^.1XE.",
"h.0.( s.2X3Xp.A =.) T  .Y.f p h g z } :.H p l z p =.Q.H g R B V ,.>.H g z p w ;.O.z.L X.<.} s.0X0X%X",
"B.B.g.h. XT.f.1.A.1.n 7.Q.0 9 f i d } >.A k m m S ;.Q...b S C A =.=.P d m c x Q.A.A.n <.5.1.U.5XXX).",
"B.B.B.I H I p.l.6.| A 7.(.> - 4 , 1 T Q.d - 2 , 4 #.Q.a - 2 - i :.=.q : 4 : > _.A.2.n <.5.M.Q K ) &.",
"c.o.I O.f.~.^./.S.z.Q x.Y.x b C C L } =...n L n Y :.:.} C L l Y >.,.n l b j s _.5.M.Q q.O.I 0.T.~.R.",
"E O.) $.v.v.!.T.g.j.U 9.).r i h a j | :.n i j a b =.;.m h c s P =.| f f h i 0 _.<.q.~ K t.) &.}.b.h.",
"'.V.<X_ %.u.I j.}.c.T.}.3Xs j V j l } :.b e Z p p =.>.h h V l S >.A q g g 1 9 ).Z.A.t.U.D.3XI.Q f.J ",
"j.B.B.$.$.$.W n.<XoXc.m.3Xj a k a f ] =.M a b h m =.=.b j v k A =.A r a f 8 x _.C.G.j.h.V.'.&.9.O.^ ",
"u.c.+.U.1X/.^.'.}. Xh.h.[.j q p p 2 A :.j , 3 , 8 >.=.4 - : + s Q.c - 2 , : v .X`.{.j.=.k.+.t.1X/.'.",
"P 1.' /  X{.f./ u.!.W $.'.S r v v s A  .C j m v S =.@.Z v m x M @.A k v l s P U.P.W.Y m [ } ~ ].{.~.",
"#.2.2.U R w.Q p.n.v.t.k. Xv @ > : 1 Z @.c , 8 o > -.| @ : : o c -.f o : : @ ..r.E.).;.} 6.x.~ E 0...",
">.2.[ ;.R.y.W v.].,X'.k.n.o.t k s v ] | M d c e x =.| r w a 4 Z 1.d 4 i w 7 a.I.=X$XQ.@.5.1.I.U.t.W ",
"Y  .N O.2X].f.t.w.p.d.0.0.+.@ @ , @ N =.f @ > > r X.M 9 < 7 1 N X.c 7 9 < < ^.U.P.I.U.| ' C e.2X/.!.",
"o.d./ p.{.{.s.( d.&.! &.u.0.1 < 4 1 v 1.r : < : r >.S @ > : # S -.8 : f o < !.t.0.t.$./ U.,. .7.7.Q.",
":X>X:X! J Q U w.B.d.&.3X6Xy.# 7 9 7 v +.x t e 7 x ] N t t t t S ] r 9 s 9 t w.y.{.n.W T.4X:X{ N { J ",
"3.7.L.*.( d.&.%.v.f.U..X1Xq.O   .   t ] 7   O   # Z r O O O # r v v o O # # j.d.,Xb.&.s.2X,X$.W f.&."
};
