/* XPM */
static char *daa5c11e6e6940a7b914d6f44229b58bSKETuddXECFxhfnO[] = {
/* columns rows colors chars-per-pixel */
"50 50 237 2 ",
"   c #000000",
".  c #04050A",
"X  c #0A0A0D",
"o  c #0A0D12",
"O  c #0C0D1A",
"+  c #100F15",
"@  c #0E1218",
"#  c #14151B",
"$  c #16181A",
"%  c #151A22",
"&  c #1D1C22",
"*  c #1A1C2B",
"=  c #1C1D30",
"-  c #221E30",
";  c #1C212A",
":  c #1E2936",
">  c #23242B",
",  c #2C2C2D",
"<  c #242334",
"1  c #222A33",
"2  c #2C2A34",
"3  c #25243A",
"4  c #29253C",
"5  c #242B3D",
"6  c #2B2B3D",
"7  c #302E3C",
"8  c #28303B",
"9  c #2C333D",
"0  c #333436",
"q  c #34333B",
"w  c #3B3B3B",
"e  c #41413F",
"r  c #1F2F40",
"t  c #242D41",
"y  c #2C2C43",
"u  c #2B2D4A",
"i  c #312E44",
"p  c #332F48",
"a  c #243344",
"s  c #2B3346",
"d  c #2A3846",
"f  c #25354A",
"g  c #2C354A",
"h  c #26394B",
"j  c #2B3B4B",
"k  c #343245",
"l  c #383645",
"z  c #353B42",
"x  c #3B3B44",
"c  c #34344B",
"v  c #39364D",
"b  c #333A4D",
"n  c #3C3B4C",
"m  c #273752",
"M  c #2C3C53",
"N  c #2C3D5B",
"B  c #343D52",
"V  c #373A55",
"C  c #3C3B52",
"Z  c #333E5B",
"A  c #2E3E61",
"S  c #333F61",
"D  c #413F48",
"F  c #413D54",
"G  c #433F5B",
"H  c #2E414E",
"J  c #33414F",
"K  c #3B434D",
"L  c #2D4152",
"P  c #2F405F",
"I  c #344354",
"U  c #3C4255",
"Y  c #364956",
"T  c #3C4955",
"R  c #33445B",
"E  c #3B435B",
"W  c #35495B",
"Q  c #3B4B5C",
"!  c #3F505E",
"~  c #2D4262",
"^  c #334364",
"/  c #3A4664",
"(  c #3B4A64",
")  c #33456B",
"_  c #37496A",
"`  c #3B4B6B",
"'  c #3F5164",
"]  c #2D4773",
"[  c #344C75",
"{  c #3B4C72",
"}  c #364C79",
"|  c #3E5173",
" . c #3B527A",
".. c #424345",
"X. c #464946",
"o. c #44434C",
"O. c #4B4B4C",
"+. c #504E4F",
"@. c #434255",
"#. c #44435A",
"$. c #434B5D",
"%. c #4A495A",
"&. c #504E55",
"*. c #46525B",
"=. c #525155",
"-. c #5A5958",
";. c #444B63",
":. c #4C4C62",
">. c #434F6A",
",. c #514E67",
"<. c #425364",
"1. c #4B5464",
"2. c #43536B",
"3. c #4D556B",
"4. c #475968",
"5. c #4C5C6E",
"6. c #555767",
"7. c #454F74",
"8. c #435473",
"9. c #485777",
"0. c #4B5B73",
"q. c #44557A",
"w. c #4C5B7B",
"e. c #565A74",
"r. c #515C74",
"t. c #535C7B",
"y. c #4C617B",
"u. c #546275",
"i. c #5B6275",
"p. c #52637C",
"a. c #5C657E",
"s. c #57697E",
"d. c #676977",
"f. c #72777A",
"g. c #3B5987",
"h. c #3B5C91",
"j. c #445B83",
"k. c #465A87",
"l. c #4B5D82",
"z. c #445D8B",
"x. c #515D81",
"c. c #465C94",
"v. c #505891",
"b. c #4C6184",
"n. c #4D628C",
"m. c #546584",
"M. c #576786",
"N. c #5C6A84",
"B. c #546589",
"V. c #5A668B",
"C. c #5C6B8B",
"Z. c #496597",
"A. c #526594",
"S. c #556B93",
"D. c #5B6C92",
"F. c #596D9C",
"G. c #5D7192",
"H. c #597897",
"J. c #55729E",
"K. c #616983",
"L. c #647286",
"P. c #787A86",
"I. c #636E94",
"U. c #637393",
"Y. c #6D7B93",
"T. c #64759B",
"R. c #697899",
"E. c #6B7C9D",
"W. c #787D97",
"Q. c #4C6DA9",
"!. c #566EAA",
"~. c #5472A4",
"^. c #5975A8",
"/. c #516DBA",
"(. c #5979B7",
"). c #667AA6",
"_. c #637DB6",
"`. c #496EC6",
"'. c #4D75C3",
"]. c #728B93",
"[. c #738298",
"{. c #5C83BF",
"}. c #6885A8",
"|. c #7483A3",
" X c #7588AD",
".X c #7490AB",
"XX c #6884B8",
"oX c #748AB8",
"OX c #7C93B8",
"+X c #5A86CF",
"@X c #6485C6",
"#X c #728EC8",
"$X c #7998C8",
"%X c #698BD8",
"&X c #6B93D4",
"*X c #789ADA",
"=X c #6D95E3",
"-X c #799EE1",
";X c #7BABE5",
":X c #8A8A99",
">X c #818BA6",
",X c #8796AA",
"<X c #8B96B0",
"1X c #8999B7",
"2X c #929EB5",
"3X c #95A1B1",
"4X c #97A7BA",
"5X c #839BD9",
"6X c #99A8C6",
"7X c #94B0CF",
"8X c #82A3D5",
"9X c #A4B3C6",
"0X c #ADB7CE",
"qX c #ABB9D2",
"wX c #84ADE9",
"eX c #87B5E4",
"rX c #A5BBE4",
"tX c #B6C6D9",
"yX c #96CAEE",
"uX c #9DD3EF",
"iX c #A5C5E0",
"pX c #B6C9E8",
"aX c #BBD9E8",
"sX c #BDE2F2",
"dX c #C5C9D4",
"fX c #CCD5DE",
"gX c #C2D5E3",
"hX c #CBD8E6",
"jX c #D2DCEA",
"kX c #D7E7ED",
"lX c #C7E4F3",
"zX c #DCE8F5",
"xX c #E7ECF2",
"cX c #E5F2F7",
"vX c #EBF4F6",
"bX c #EEF6F9",
"nX c #F6FAFA",
/* pixels */
"                                                                                                    ",
"                                                                                                    ",
"                          . X % 1 9 b g U U Q $.;.g 1 & o .                                         ",
"                    @ 3 $.E B 2.0.b.M.M.w.8.n.B.M.M.E.Y.K.t.$.9 # .                                 ",
"              . $ 9 2.|.).A.A.v.A.^.S.B.y.J.Z.U.E.` >.2.q.D.E.E.|.K.b O                             ",
"            $ s B ^ b.$X(.*X@X_.$XiX6XqXqXqXqXjXtX6X XT.l.V.l.t.C.E.|.[.;.%                         ",
"        . * b R ) j.q.8XwX5X(.-X*X$X X2X3X9XhXkXnXnXnXjX0X6X<X6.#.:.y.U.|.U.#.O                     ",
"      # B E / [ h.c.#X8XeX&X{.@X$X).Z.F.j.~. XE.2XfXzXnXnXnXxXdX:X6.1.u.m.C.E.N.1 .                 ",
"    O _ k.g.{ h.Q.Q.;X%XXXJ.~._.7X1X~._.^.OXs.' q.B.C.,XtXbXvXnXnXdX2X].i.e.s.U.U.;.o               ",
"  o g { A.Z.) } Z.{.;XXXXXXXT.I.^.7X@X@X{.y.! W <.0.' 2.s.,X4XgXbXnXvX9Xi.1.y.u.C.E.i.%             ",
". : ` {  .z.{ { Z.*XwX}.}.oXB.B.l.^.%X=X^.~ W I B B I Q $.<.w.T.1XdXnXxX2XN.C.u.4.y.D.V.=           ",
"= M j.z.] Q.q.l.B.}.$XH.J._.z.7.q.c.(.{.^.Z.7.c v v C v C C 2.U.E.).tXxXxX0X<XM.M.0.y.U.V.*         ",
"g g z.Z.).#Xq.q.B.y.z.J.D.D.l.w.l.z.~.l.| c.B.C v v v C v V 2.N.8.|.tX6XtXxXhXOXB.m.y.M.G.t.o       ",
"f M Z.).tX}. .) 8.8. .b.2.` 8.{ 7.q.B.k.l.[ D.:.C ;.>.;.C #.u.L.N.3X<X). X9XvXjX Xm.y.y.M.U.;.      ",
"m { !.qXaXH._ ^ ^ ^ [ 8.R ^ _ ` ` q.^ ) l.8.x.*.I 2.w.E C v K. XN.u.s.p.m.b.9XnXhX[.9.y.p.m.G.6     ",
"9.oX6X<X.XH.^ N ) ^ _ | ) N ^ R R ^ L P <.y.m.$.b B U C @.n e.[.W 5.5.u.*.( ).tXbX0XY.r.5.p.U.C.%   ",
"^ q.Y.Q m [ W ^ ) ) q.( N R ^ ^ R N M Y ' W ! I B C I $.n :.6.e.c <X3XP.F Z n.$XhXbX3Xe.>.l.M.R.4.. ",
"j j I d f L g.Q.[ ~ w.^ N W W ] Z.~ L ) 8.M L W c C C U v F F F v  XW.F F Z b._.oXxXxX4Xs.0.8.b.G.: ",
"g d j j b d L Z.Z.g.J.q.R j m ] ~.OXH.Z.l.L j L b b E #.v F v v v ;.,.:.@.2.B.A.!.6XbXdXN. .| m.G.u.",
"c d d d j j g M _ ` H.G.W h a m [ #X(.h.Q W W I M f b v %.F K.:Xd.#.3.#.;.L.C.n.(. X4XxX:X| | l.C.Y.",
"g 8 j j j Z b b J m w.m.W j j I _ [ h.[ J I E I L j c v G F K.fXf.c Z C R 3.;.7.^._.).qXhXM.z.( w.R.",
"<.9 B I 5 f y c U I ^ { I c d d L _ | I d g B B f I C F G O.:.3Xf.C c c G 3.r./ Z.Q.I.I.qX5XoXr./ V.",
"d.g Z ( j j s s n U j ` Q b j a H H I b z b i c y F F k D %.F W.d.#.V ;.%.3.Y.Y R ` 3.V.5X9X#XOX) l.",
"3XB c Z s.H c w o.K J ( <.B k k d j j d b c y v n l l i i F G G :.%.&.:.;.;.Q I F B I 9.!. X).p.j.oX",
"aXy.w.w.0.j k 6 ..%.( Q <.I n b c C I b v i i i p k v i k p v G G l F v p c C E / I W >.` 7.K.>XpXiX",
"sX4X).C./ j y y V 0.<.<.0.L j b b @.U c k y i i k v v c c p l v F v v v y c C v Z R E >.| y.oXaXsX-X",
"aXkXOX_.0.f 5 y 2.C.4.Q <.Y j j g c v v l p i i x n C v F D v G F v v c d c v v b B I 3.w.A.%XwX&X=X",
"6XlXaXC.` d a j 0.U.4.<.4.T g k s y l F v v i k i C i.v l k F F p l n x i c c c C n #.3.i.M.oX%X'.'.",
"Q hXcX6X( s a d Z 8.W W <.Y h a d j k v v p i l i l %.i F p v p i i l o.k C b L B C E <.*.d.)./.`.+X",
"o Y.pXxX6X8.t 6 M 0.B n Y Q Y h j Y j y p p i k q 6 i F F v $.#.c p v #.v b j b b C Z >.6.m._.(.`.;X",
"  5 6XzXlX$X^ 6 g ( j U T ! 2.( H b b s y s i v l 7 n G F k n n v p b 3.U b I n n #.7.e.=.4.V./.&XyX",
"  . e.rXgXB.7.B 5 5 s U K ! <.2.Y s 5 6 s M c v v k k k l q w k t.$.j 4.:.E $.o.o...1.e.=.$.$.>.@XuX",
"    # I.6Xy.( ( j 5 y v y v T U K q 6 6 8 j E C c c c n q e O.B Y.6.k U *.i.%.O.+.-.=.-.-.+.:.x.*XuX",
"      * N.5.L R ^ g p C y y n ..K ..w 0 6 k v k s k i n z w x b 1.x n %.1.$.n ..n o.x ..+.=.v.@XyXeX",
"        : J f f N N Z I c 4 6 k w O.w w w q l x K b q b I U n k i k %.,.I c x X...&.v n U #.K.F.;XyX",
"          ; 8 a m N ^ / y s 5 6 X.X.e e ..x x n I H g s g 9 0 9 x o.w o.e.n K O.x x k @.L.Z.!.'.;X$X",
"            % a f M Z ^ g M m t J 9 0 w ....o.T W R M M k 6 9 k K X.0 l #.v x O.D k k ..f.i.Z./.eX].",
"            . % 5 M N A N A ) N f h z 9 w ..K Q W R <.I y y b #.k x x b v v c v x ....=.X.-.3.` Z.1 ",
"                & 6 j R ^ ^ A M h P L f 8 g I L R W Q j b c V C c s s E V c b b v o.O.=.6.-.&.T u . ",
"                  # 3 h g m R M h P h r 8 f 8.0.( I M h j Z R a a a a A _ N b C v D =.*.3.C I v $   ",
"                    X > 5 a f j W Q f : t 3 s <.R h f t y y b y t t m S 7.Z B B @.#.v n c n :.6 .   ",
"                      . # < a h I I s t 3 3 6 j f j a t t y y y t c c N { N E K 6.:.@.l n k < .     ",
"                          + 6 y s a s y 5 3 i y : a 5 3 t y y y y y i u V m / n f.@.F k k > .       ",
"                            . O * 1 s y y 3 3 3 : u y 3 < 5 y 4 3 3 y y v u >.n ..i s s $           ",
"                                  o * < < < 4 < t y y 6 , < 3 6 3 4 2 4 y 5 g i 6 4 * X             ",
"                                      . X $ & - 3 y 2 , , 2 q ..4 4 4 4 y 6 3 < $ X                 ",
"                                            . . X + $ & $ & > , > - & $ $ + X                       ",
"                                                      . .   .   . .                                 ",
"                                                                                                    ",
"                                                                                                    "
};
